<svg width="23" height="20" viewBox="0 0 23 20" fill="none" xmlns="http://www.w3.org/2000/svg">
<path fill-rule="evenodd" clip-rule="evenodd" d="M19.0219 19.4759C20.1748 19.1852 22.1112 17.5937 22.1112 10.1586C22.1112 6.65537 21.7269 4.11294 20.9681 2.60029C20.1305 0.92997 18.9972 0.796936 18.6622 0.796936L12.109 0.796936C8.02342 0.804755 4.25832 3.0111 2.25461 6.57161L0.643419 9.43431C0.3906 9.88408 0.3906 10.4331 0.643419 10.8829L2.25461 13.7456C4.25832 17.3061 8.02342 19.5125 12.109 19.5203H18.6622C18.7834 19.5203 18.9042 19.5054 19.0219 19.4759ZM12.1235 18.0421C8.56416 18.0423 5.2813 16.1231 3.53543 13.0213L1.90945 10.1586L3.52065 7.29593C5.26652 4.19414 8.54938 2.27491 12.1087 2.27511L18.6619 2.27511C18.6619 2.27511 20.6328 2.27511 20.6328 10.1586C20.6328 17.5494 18.6619 18.0421 18.6619 18.0421H12.1235Z" fill="white"/>
<path fill-rule="evenodd" clip-rule="evenodd" d="M15.735 14.1299C16.0232 13.8413 16.0232 13.3738 15.735 13.0853L12.8082 10.1585L15.735 7.23178C16.0063 6.94058 15.9983 6.48678 15.7169 6.20533C15.4354 5.92387 14.9816 5.91587 14.6904 6.18722L11.7637 9.11397L8.83691 6.18722C8.65266 5.98949 8.37517 5.90809 8.11331 5.97497C7.85145 6.04184 7.64697 6.24632 7.58009 6.50819C7.51322 6.77005 7.59461 7.04753 7.79234 7.23178L10.7191 10.1585L7.79234 13.0853C7.59461 13.2695 7.51322 13.547 7.58009 13.8089C7.64697 14.0708 7.85145 14.2752 8.11331 14.3421C8.37517 14.409 8.65266 14.3276 8.83691 14.1299L11.7637 11.2031L14.6904 14.1299C14.979 14.418 15.4464 14.418 15.735 14.1299Z" fill="white"/>
</svg>
