<svg width="256" height="114" viewBox="0 0 256 114" fill="none" xmlns="http://www.w3.org/2000/svg">
<path d="M26.7615 42.5666C27.0488 39.9123 29.0555 37.7672 31.6847 37.3036L235.381 1.38645C239.317 0.692473 242.818 3.96784 242.388 7.94107L237.681 51.4189C237.394 54.0732 235.387 56.2184 232.758 56.682L29.0617 92.5991C25.1259 93.2931 21.6245 90.0177 22.0546 86.0445L26.7615 42.5666Z" fill="#FFAE58"/>
<path d="M17.7636 62.4644C18.0372 59.7959 20.0487 57.6332 22.6905 57.1673L221.811 22.057C225.733 21.3655 229.228 24.6162 228.822 28.5776L224.37 72.0105C224.097 74.679 222.085 76.8418 219.443 77.3076L20.3228 112.418C16.4011 113.109 12.9061 109.859 13.3121 105.897L17.7636 62.4644Z" fill="#4CD080"/>
<path d="M35.6473 90.7914C34.434 91.0053 33.3264 90.9894 32.3245 90.7436C31.3198 90.4821 30.4816 90.0126 29.8097 89.3349C29.135 88.6415 28.6912 87.7369 28.4782 86.6209L31.6689 86.0583C31.8366 86.8248 32.2277 87.4301 32.8421 87.8742C33.4695 88.2997 34.2481 88.4305 35.1777 88.2666C35.9813 88.1249 36.5861 87.8232 36.9922 87.3617C37.3954 86.8845 37.5401 86.3228 37.4262 85.6768C37.3067 84.9992 37.0009 84.5089 36.5088 84.2057C36.0324 83.8998 35.4267 83.6898 34.6918 83.5757C33.9568 83.4616 33.1718 83.34 32.3367 83.2111C30.9826 82.9949 29.9056 82.6 29.1058 82.0261C28.3218 81.4495 27.8284 80.5861 27.6255 79.4358C27.4375 78.4617 27.5187 77.5863 27.8692 76.8096C28.2326 76.0144 28.7986 75.3541 29.567 74.8287C30.3327 74.2875 31.2591 73.9211 32.3463 73.7294C33.4493 73.5349 34.4531 73.561 35.3577 73.8076C36.278 74.0515 37.0371 74.4863 37.6348 75.112C38.2483 75.735 38.6569 76.5321 38.8607 77.5035L35.6226 78.0744C35.5041 77.4942 35.1853 77.0224 34.6663 76.659C34.1603 76.2771 33.5213 76.1542 32.7492 76.2903C32.0846 76.3913 31.5544 76.6553 31.1586 77.0826C30.7757 77.4912 30.6413 78.0186 30.7552 78.6646C30.8524 79.2161 31.1035 79.6268 31.5085 79.8965C31.9108 80.1506 32.4307 80.3351 33.0684 80.4501C33.706 80.5651 34.4331 80.6806 35.2497 80.7966C36.119 80.9357 36.9258 81.1346 37.6701 81.3933C38.4143 81.652 39.0468 82.0604 39.5676 82.6184C40.0857 83.1607 40.4308 83.9203 40.6031 84.8973C40.7559 85.7639 40.677 86.6064 40.3664 87.4248C40.0558 88.2431 39.5074 88.9572 38.7214 89.567C37.9325 90.161 36.9078 90.5691 35.6473 90.7914ZM49.7264 88.3088C48.5446 88.5172 47.4523 88.4499 46.4495 88.1068C45.4467 87.7637 44.6048 87.1811 43.9236 86.3589C43.2425 85.5366 42.7964 84.5268 42.5852 83.3292C42.3713 82.116 42.4331 80.9922 42.7706 79.9578C43.1239 78.9207 43.7037 78.063 44.5102 77.3847C45.3296 76.6878 46.3539 76.231 47.5829 76.0143C48.7332 75.8115 49.7939 75.8844 50.7652 76.233C51.7365 76.5816 52.5442 77.1541 53.1883 77.9503C53.8453 78.728 54.2683 79.6526 54.4572 80.7241C54.4878 80.8974 54.5118 81.08 54.5294 81.2719C54.5628 81.461 54.5896 81.6593 54.61 81.867L45.6994 83.4381C45.9236 84.3409 46.3652 85.0023 47.0241 85.4222C47.6988 85.8394 48.4458 85.9758 49.2652 85.8313C49.8797 85.7229 50.3682 85.4987 50.7306 85.1586C51.106 84.8 51.3573 84.382 51.4843 83.9047L54.5569 83.3629C54.4669 84.1424 54.2161 84.8852 53.8045 85.5914C53.4058 86.2791 52.8589 86.8629 52.1637 87.3429C51.4842 87.8202 50.6718 88.1421 49.7264 88.3088ZM48.0163 78.4724C47.2758 78.6029 46.6593 78.931 46.1671 79.4564C45.6721 79.9661 45.4208 80.6603 45.4133 81.539L51.2512 80.5096C51.0678 79.7458 50.6758 79.1813 50.0753 78.816C49.4747 78.4508 48.7884 78.3362 48.0163 78.4724ZM63.8995 85.8097C62.702 86.0209 61.6004 85.9471 60.5948 85.5882C59.5892 85.2294 58.7366 84.6324 58.037 83.7972C57.3531 82.9592 56.9055 81.9415 56.6944 80.7439C56.4832 79.5464 56.5557 78.437 56.9117 77.4156C57.2835 76.3915 57.8805 75.5389 58.7028 74.8578C59.525 74.1766 60.5348 73.7305 61.7324 73.5193C63.2293 73.2554 64.5593 73.427 65.7224 74.0343C66.8828 74.6258 67.7256 75.582 68.2509 76.9028L65.0602 77.4654C64.8026 76.926 64.4096 76.5403 63.8814 76.3085C63.3661 76.0582 62.7933 75.9886 62.163 76.0998C61.3279 76.247 60.6744 76.6872 60.2025 77.4203C59.7306 78.1533 59.5933 79.0792 59.7906 80.198C59.9879 81.3167 60.4336 82.1398 61.1277 82.6673C61.8219 83.1948 62.5865 83.3849 63.4216 83.2377C64.0519 83.1265 64.5677 82.8731 64.9691 82.4774C65.3862 82.0789 65.6222 81.5743 65.677 80.9635L68.8677 80.4008C68.8175 81.7744 68.3511 82.9533 67.4686 83.9375C66.5861 84.9217 65.3964 85.5458 63.8995 85.8097ZM76.7243 83.5484C75.2589 83.8068 74.0438 83.5499 73.0791 82.7777C72.1301 82.0027 71.5 80.7328 71.1888 78.968L70.0219 72.3501L73.0236 71.8208L74.1405 78.1551C74.3183 79.1636 74.6593 79.8995 75.1634 80.363C75.6676 80.8265 76.3609 80.9805 77.2432 80.8249C78.0784 80.6776 78.711 80.2574 79.1411 79.5642C79.5871 78.8682 79.7156 77.9844 79.5266 76.913L78.4597 70.8623L81.4851 70.3288L83.5522 82.052L80.8814 82.5229L80.2949 80.5792C80.0548 81.3364 79.6242 81.981 79.0031 82.5129C78.3978 83.0421 77.6382 83.3872 76.7243 83.5484ZM86.6578 81.5044L84.5907 69.7812L87.2851 69.3061L87.9564 71.4542C88.2484 70.6229 88.718 69.9227 89.365 69.3537C90.025 68.7662 90.8514 68.3849 91.844 68.2098L92.4067 71.4006L91.5558 71.5506C90.894 71.6673 90.3212 71.8739 89.8373 72.1705C89.3534 72.467 89.0063 72.8938 88.7958 73.4508C88.6011 74.005 88.5829 74.7312 88.7413 75.6293L89.6832 80.9709L86.6578 81.5044ZM101.567 79.1679C100.386 79.3763 99.2932 79.3089 98.2904 78.9658C97.2876 78.6228 96.4456 78.0401 95.7645 77.2179C95.0834 76.3957 94.6373 75.3858 94.4261 74.1883C94.2122 72.975 94.274 71.8512 94.6115 70.8169C94.9648 69.7798 95.5446 68.9221 96.3511 68.2437C97.1705 67.5468 98.1948 67.09 99.4238 66.8733C100.574 66.6705 101.635 66.7434 102.606 67.092C103.577 67.4407 104.385 68.0131 105.029 68.8094C105.686 69.5871 106.109 70.5117 106.298 71.5832C106.329 71.7565 106.353 71.9391 106.37 72.131C106.404 72.32 106.43 72.5184 106.451 72.726L97.5403 74.2972C97.7645 75.2 98.206 75.8613 98.865 76.2813C99.5397 76.6985 100.287 76.8348 101.106 76.6903C101.721 76.582 102.209 76.3578 102.572 76.0177C102.947 75.659 103.198 75.241 103.325 74.7637L106.398 74.2219C106.308 75.0014 106.057 75.7443 105.645 76.4505C105.247 77.1381 104.7 77.722 104.005 78.202C103.325 78.6792 102.513 79.0012 101.567 79.1679ZM99.8572 69.3314C99.1166 69.462 98.5002 69.79 98.008 70.3155C97.513 70.8252 97.2617 71.5193 97.2542 72.398L103.092 71.3686C102.909 70.6049 102.517 70.0404 101.916 69.6751C101.316 69.3098 100.629 69.1953 99.8572 69.3314ZM123.192 75.3548C121.522 75.6493 120.026 75.5476 118.703 75.0497C117.378 74.5361 116.279 73.698 115.408 72.5357C114.535 71.3575 113.949 69.9254 113.652 68.2394C113.354 66.5534 113.415 65.0075 113.833 63.6015C114.251 62.1955 114.995 61.0245 116.065 60.0885C117.135 59.1526 118.505 58.5373 120.175 58.2428C122.16 57.8927 123.871 58.1029 125.306 58.8733C126.755 59.6252 127.794 60.8636 128.423 62.5886L125.09 63.1762C124.727 62.3142 124.162 61.6908 123.396 61.3061C122.642 60.9028 121.714 60.7984 120.611 60.9929C119.083 61.2624 117.977 61.9935 117.294 63.1863C116.61 64.379 116.428 65.8814 116.748 67.6935C117.067 69.5055 117.752 70.8551 118.802 71.7423C119.849 72.6137 121.137 72.9146 122.666 72.6451C123.769 72.4506 124.609 72.0587 125.188 71.4693C125.779 70.8613 126.102 70.1139 126.157 69.2269L129.49 68.6393C129.475 70.3966 128.914 71.8683 127.807 73.0546C126.716 74.238 125.178 75.0048 123.192 75.3548ZM137.097 72.903C136.089 73.0809 135.234 73.0692 134.532 72.8679C133.828 72.651 133.271 72.3024 132.861 71.8222C132.451 71.342 132.19 70.7789 132.076 70.1329C131.884 69.0457 132.154 68.0883 132.885 67.2607C133.617 66.4331 134.833 65.8693 136.535 65.5692L139.513 65.0441L139.463 64.7605C139.321 63.9569 138.989 63.4063 138.465 63.1087C137.941 62.8111 137.341 62.722 136.663 62.8415C136.049 62.9499 135.539 63.194 135.135 63.574C134.728 63.9382 134.52 64.4136 134.509 65.0003L131.555 65.5213C131.484 64.6565 131.637 63.8659 132.014 63.1495C132.407 62.4303 132.968 61.8358 133.698 61.366C134.425 60.8804 135.277 60.5515 136.253 60.3793C137.924 60.0848 139.313 60.2703 140.421 60.936C141.53 61.6016 142.219 62.6986 142.488 64.227L143.759 71.4358L141.183 71.8901L140.566 70.0493C140.331 70.7407 139.934 71.3468 139.376 71.8676C138.834 72.3856 138.074 72.7308 137.097 72.903ZM137.366 70.4186C138.232 70.2658 138.852 69.8641 139.225 69.2135C139.613 68.5602 139.797 67.8048 139.776 66.9474L137.199 67.4017C136.396 67.5434 135.847 67.7945 135.553 68.155C135.256 68.4998 135.146 68.8849 135.221 69.3103C135.301 69.7672 135.537 70.0912 135.928 70.2822C136.319 70.4732 136.798 70.5187 137.366 70.4186ZM151.542 70.3561C150.502 70.5394 149.559 70.5351 148.712 70.3431C147.864 70.1354 147.15 69.7738 146.572 69.2584C145.993 68.743 145.587 68.0997 145.354 67.3285L148.403 66.7909C148.578 67.2312 148.9 67.5807 149.368 67.8393C149.849 68.0795 150.42 68.1412 151.082 68.0245C151.744 67.9078 152.201 67.6891 152.453 67.3685C152.721 67.045 152.824 66.71 152.763 66.3633C152.674 65.8591 152.394 65.5592 151.922 65.4637C151.447 65.3524 150.801 65.2796 149.983 65.2452C149.459 65.2238 148.923 65.1801 148.375 65.1142C147.828 65.0484 147.312 64.9361 146.829 64.7776C146.36 64.6005 145.957 64.3465 145.623 64.0155C145.285 63.6688 145.067 63.2119 144.967 62.6446C144.783 61.6047 145.039 60.6579 145.733 59.8044C146.443 58.9481 147.547 58.3879 149.044 58.124C150.43 57.8795 151.59 58.008 152.524 58.5096C153.473 59.0084 154.126 59.8111 154.483 60.9178L151.624 61.4221C151.297 60.586 150.567 60.268 149.433 60.4681C148.865 60.5681 148.444 60.7562 148.167 61.0323C147.907 61.3057 147.806 61.6079 147.864 61.9388C147.925 62.2854 148.202 62.5209 148.695 62.6451C149.189 62.7694 149.829 62.8515 150.615 62.8915C151.468 62.9361 152.254 63.0168 152.973 63.1337C153.706 63.2321 154.317 63.4736 154.807 63.8583C155.294 64.2273 155.612 64.8293 155.759 65.6644C155.903 66.3865 155.829 67.0737 155.538 67.7262C155.247 68.3787 154.76 68.9356 154.078 69.3971C153.396 69.8586 152.55 70.1782 151.542 70.3561ZM159.064 68.7372L156.064 51.7197L159.089 51.1863L160.339 58.2769C160.619 57.5614 161.058 56.9641 161.656 56.485C162.267 55.9873 163.006 55.6621 163.872 55.5093C165.322 55.2537 166.521 55.5134 167.47 56.2884C168.435 57.0606 169.073 58.3291 169.384 60.0938L170.551 66.7117L167.549 67.241L166.432 60.9067C166.255 59.8983 165.914 59.1623 165.41 58.6988C164.921 58.2326 164.244 58.0758 163.377 58.2286C162.526 58.3787 161.87 58.8031 161.408 59.5019C160.962 60.1979 160.834 61.0816 161.023 62.1531L162.09 68.2037L159.064 68.7372ZM177.536 65.7726C176.527 65.9504 175.672 65.9387 174.971 65.7375C174.266 65.5205 173.709 65.1719 173.3 64.6918C172.89 64.2116 172.628 63.6485 172.514 63.0025C172.323 61.9152 172.592 60.9578 173.324 60.1303C174.055 59.3027 175.272 58.7389 176.974 58.4388L179.952 57.9137L179.902 57.6301C179.76 56.8265 179.427 56.2759 178.904 55.9783C178.38 55.6807 177.779 55.5916 177.102 55.7111C176.487 55.8194 175.978 56.0636 175.574 56.4435C175.167 56.8077 174.958 57.2832 174.948 57.8699L171.994 58.3908C171.922 57.5261 172.075 56.7355 172.453 56.0191C172.846 55.2999 173.407 54.7054 174.137 54.2356C174.863 53.75 175.715 53.4211 176.692 53.2488C178.362 52.9543 179.752 53.1399 180.86 53.8055C181.969 54.4712 182.657 55.5682 182.927 57.0966L184.198 64.3054L181.622 64.7597L181.005 62.9189C180.769 63.6103 180.373 64.2164 179.814 64.7372C179.272 65.2552 178.513 65.6004 177.536 65.7726ZM177.804 63.2882C178.671 63.1354 179.291 62.7337 179.663 62.0831C180.052 61.4297 180.235 60.6744 180.214 59.817L177.638 60.2713C176.834 60.413 176.286 60.6641 175.992 61.0246C175.695 61.3693 175.584 61.7544 175.659 62.1799C175.74 62.6368 175.976 62.9608 176.367 63.1518C176.758 63.3428 177.237 63.3882 177.804 63.2882ZM188.002 68.9961L185.018 52.0732L187.712 51.5981L188.339 53.2179C188.626 52.6312 189.041 52.0867 189.587 51.5845C190.147 51.0794 190.924 50.7393 191.917 50.5643C193.02 50.3698 194.052 50.464 195.013 50.847C195.974 51.2299 196.789 51.8417 197.457 52.6825C198.125 53.5232 198.563 54.5345 198.772 55.7163C198.98 56.898 198.914 57.9982 198.574 59.0168C198.231 60.0196 197.673 60.8653 196.901 61.5538C196.126 62.2266 195.187 62.6602 194.084 62.8547C193.202 63.0103 192.4 62.981 191.68 62.7668C190.96 62.5526 190.342 62.1822 189.827 61.6557L191.027 68.4627L188.002 68.9961ZM192.979 60.3201C193.94 60.1506 194.679 59.6873 195.195 58.9301C195.712 58.1729 195.88 57.2822 195.699 56.258C195.518 55.2338 195.055 54.4464 194.308 53.8958C193.561 53.3451 192.707 53.1545 191.745 53.324C190.768 53.4963 190.023 53.9688 189.51 54.7418C189.009 55.4962 188.849 56.3855 189.03 57.4097C189.21 58.4339 189.666 59.2227 190.397 59.7761C191.142 60.311 192.002 60.4923 192.979 60.3201ZM203.42 66.2775L200.436 49.3545L203.131 48.8794L203.758 50.4992C204.044 49.9125 204.46 49.3681 205.005 48.8658C205.566 48.3607 206.343 48.0207 207.335 47.8456C208.438 47.6511 209.47 47.7454 210.431 48.1283C211.392 48.5112 212.207 49.1231 212.875 49.9638C213.543 50.8046 213.982 51.8158 214.19 52.9976C214.398 54.1794 214.332 55.2795 213.992 56.2981C213.649 57.3009 213.091 58.1466 212.319 58.8351C211.544 59.5079 210.605 59.9415 209.502 60.136C208.62 60.2916 207.819 60.2623 207.099 60.0481C206.378 59.8339 205.761 59.4635 205.245 58.937L206.446 65.744L203.42 66.2775ZM208.397 57.6014C209.359 57.4319 210.097 56.9686 210.614 56.2114C211.13 55.4543 211.298 54.5636 211.117 53.5394C210.937 52.5152 210.473 51.7277 209.726 51.1771C208.979 50.6264 208.125 50.4358 207.164 50.6053C206.187 50.7776 205.442 51.2502 204.928 52.0231C204.427 52.7775 204.267 53.6668 204.448 54.691C204.629 55.7152 205.085 56.504 205.816 57.0574C206.56 57.5923 207.42 57.7737 208.397 57.6014Z" fill="white"/>
</svg>
