<svg width="52" height="30" viewBox="0 0 52 30" fill="none" xmlns="http://www.w3.org/2000/svg">
<path d="M7.3157 9.68118C7.2966 8.2107 8.34624 6.94315 9.7945 6.68779L44.2505 0.612267C46.0718 0.291115 47.7472 1.67844 47.7712 3.52772L47.9291 15.685C47.9482 17.1555 46.8986 18.423 45.4503 18.6784L10.9943 24.7539C9.17298 25.0751 7.49766 23.6877 7.47363 21.8385L7.3157 9.68118Z" fill="#FFAE58"/>
<path d="M4.07107 14.315C4.05197 12.8445 5.10161 11.5769 6.54987 11.3216L41.0059 5.24606C42.8272 4.9249 44.5025 6.31223 44.5265 8.16151L44.6845 20.3188C44.7036 21.7893 43.6539 23.0568 42.2057 23.3122L7.74969 29.3877C5.92835 29.7088 4.25303 28.3215 4.229 26.4722L4.07107 14.315Z" fill="#4CD080"/>
<path d="M15.4472 21.9379L13.0173 16.6799L14.0966 16.4896L15.8631 20.7029L16.2553 16.109L17.3662 15.9131L19.2745 20.1014L19.4934 15.538L20.5806 15.3463L20.0561 21.1252L18.8586 21.3364L17.0425 17.4405L16.6369 21.7281L15.4472 21.9379ZM22.5659 22.4698L21.5712 16.8288L22.4694 16.6705L22.6783 17.2104C22.7738 17.0148 22.9124 16.8333 23.0941 16.6659C23.281 16.4976 23.5399 16.3842 23.8708 16.3259C24.2385 16.261 24.5825 16.2924 24.9029 16.4201C25.2232 16.5477 25.4948 16.7517 25.7175 17.0319C25.9402 17.3122 26.0863 17.6493 26.1557 18.0432C26.2252 18.4371 26.2032 18.8038 26.0898 19.1434C25.9754 19.4776 25.7895 19.7595 25.5322 19.989C25.2738 20.2133 24.9609 20.3578 24.5932 20.4227C24.2991 20.4745 24.032 20.4648 23.7919 20.3934C23.5519 20.322 23.346 20.1985 23.1742 20.023L23.5743 22.292L22.5659 22.4698ZM24.2249 19.5778C24.5453 19.5213 24.7915 19.3669 24.9637 19.1145C25.1358 18.8621 25.1917 18.5652 25.1315 18.2238C25.0713 17.8824 24.9167 17.6199 24.6678 17.4364C24.4188 17.2528 24.1341 17.1893 23.8137 17.2458C23.488 17.3032 23.2396 17.4607 23.0684 17.7184C22.9016 17.9698 22.8482 18.2663 22.9084 18.6077C22.9686 18.9491 23.1206 19.212 23.3643 19.3965C23.6124 19.5748 23.8992 19.6352 24.2249 19.5778ZM28.7636 19.6873C28.4275 19.7466 28.1425 19.7427 27.9086 19.6756C27.6738 19.6033 27.4881 19.4871 27.3516 19.327C27.2151 19.167 27.1278 18.9793 27.0898 18.7639C27.0259 18.4015 27.1159 18.0824 27.3597 17.8065C27.6035 17.5307 28.009 17.3427 28.5763 17.2427L29.5689 17.0677L29.5523 16.9731C29.505 16.7053 29.3942 16.5217 29.2196 16.4225C29.0451 16.3233 28.8449 16.2936 28.619 16.3335C28.4142 16.3696 28.2444 16.451 28.1097 16.5776C27.974 16.699 27.9045 16.8575 27.9011 17.0531L26.9163 17.2267C26.8925 16.9385 26.9435 16.6749 27.0693 16.4361C27.2003 16.1964 27.3874 15.9982 27.6306 15.8416C27.8728 15.6798 28.1568 15.5701 28.4824 15.5127C29.0392 15.4145 29.5023 15.4764 29.8718 15.6983C30.2412 15.9202 30.4709 16.2858 30.5607 16.7953L30.9844 19.1982L30.1257 19.3497L29.92 18.7361C29.8415 18.9665 29.7092 19.1686 29.5232 19.3422C29.3425 19.5148 29.0893 19.6299 28.7636 19.6873ZM28.8532 18.8592C29.142 18.8082 29.3486 18.6743 29.4728 18.4575C29.6023 18.2397 29.6635 17.9879 29.6564 17.7021L28.7977 17.8535C28.5298 17.9008 28.3469 17.9845 28.249 18.1046C28.1501 18.2196 28.1131 18.3479 28.1381 18.4897C28.165 18.642 28.2436 18.75 28.374 18.8137C28.5044 18.8774 28.6641 18.8925 28.8532 18.8592ZM32.6101 20.6988L33.1646 18.5457L32.9283 18.5874L30.7645 15.2078L31.8596 15.0147L33.4396 17.5712L34.0971 14.6202L35.1686 14.4312L33.6815 20.5098L32.6101 20.6988Z" fill="white"/>
</svg>
