<svg width="13" height="13" viewBox="0 0 13 13" fill="none" xmlns="http://www.w3.org/2000/svg">
<path d="M0.158483 4.63286C0.041777 4.41639 -0.0122913 4.17167 0.00234626 3.92617C0.0169839 3.68067 0.0997481 3.44411 0.241351 3.24303C0.472761 2.90349 0.782666 2.62479 1.14477 2.43059L5.20743 0.316053C5.60675 0.108408 6.0502 0 6.50027 0C6.95034 0 7.3938 0.108408 7.79311 0.316053L11.8552 2.43221C12.2173 2.62642 12.5272 2.90512 12.7586 3.24466C12.9003 3.44573 12.983 3.6823 12.9977 3.92779C13.0123 4.17329 12.9582 4.41801 12.8415 4.63449C12.7159 4.87217 12.5274 5.07083 12.2967 5.20883C12.066 5.34683 11.8018 5.41888 11.533 5.41715H1.46757C1.19847 5.41883 0.934081 5.34658 0.703235 5.20827C0.472389 5.06997 0.283953 4.87093 0.158483 4.63286ZM12.4581 11.9167C12.4581 11.6294 12.3439 11.3539 12.1408 11.1508C11.9376 10.9476 11.6621 10.8335 11.3748 10.8335V6.50041H10.2916V10.8335H8.66674V6.50041H7.5835V10.8335H5.41704V6.50041H4.33381V10.8335H2.70896V6.50041H1.62572V10.8335C1.33843 10.8335 1.06291 10.9476 0.859761 11.1508C0.656615 11.3539 0.542489 11.6294 0.542489 11.9167C0.398844 11.9167 0.261081 11.9738 0.159509 12.0754C0.0579358 12.177 0.000872835 12.3147 0.000872835 12.4584C0.000872835 12.602 0.0579358 12.7398 0.159509 12.8414C0.261081 12.9429 0.398844 13 0.542489 13H12.4581C12.6017 13 12.7395 12.9429 12.841 12.8414C12.9426 12.7398 12.9997 12.602 12.9997 12.4584C12.9997 12.3147 12.9426 12.177 12.841 12.0754C12.7395 11.9738 12.6017 11.9167 12.4581 11.9167Z" fill="#263238"/>
</svg>
