<svg width="20" height="26" viewBox="0 0 20 26" fill="none" xmlns="http://www.w3.org/2000/svg">
<path d="M7.78234 6.92529H7.78223L7.78223 11.3155C9.59827 11.4299 13.3878 11.4156 13.3878 9.17042C13.3878 6.92532 10.199 6.9253 7.78234 6.92529Z" stroke="#BDBDBD" stroke-width="1.5"/>
<path d="M12.1379 4.64813C15.112 4.93285 17.4441 5.81431 17.7026 8.44001C17.8781 10.3542 17.0459 11.4931 15.6698 12.135C17.8915 12.6728 19.2429 13.9371 18.9636 16.7417C18.6237 20.257 15.9117 21.1701 12.0345 21.3627L12.0406 24.992L9.75713 24.9948L9.75106 21.3656C9.16801 21.3573 8.52297 21.3881 7.87551 21.3679L7.88159 24.9972L5.6023 25L5.59623 21.3707L1.02969 21.2832L1.41453 18.6309C1.41453 18.6309 2.49996 18.6485 3.10724 18.6485C3.74218 18.6452 3.93063 18.2087 3.97756 17.922L3.9662 12.1042L3.98414 7.96347C3.91402 7.53187 3.61114 7.01401 2.67767 6.99828C2.72851 6.95408 1.00578 7.00037 1.00578 7.00037L1 4.5688L5.67954 4.56297L5.67359 1.00805L8.03109 1.00511L8.03704 4.56003C8.64151 4.54379 9.23512 4.55529 9.84411 4.55778L9.83816 1.00286L12.1319 1L12.1379 4.64813Z" stroke="#BDBDBD" stroke-width="1.5"/>
<path d="M7.75 18.455C9.23689 18.5096 14.5088 18.8258 14.4862 16.3284C14.5088 13.7588 9.21753 14.1044 7.75 14.0912L7.75 18.455Z" stroke="#BDBDBD" stroke-width="1.5"/>
</svg>
