<svg width="15" height="15" viewBox="0 0 15 15" fill="none" xmlns="http://www.w3.org/2000/svg">
<path d="M0.172109 5.34561C0.0453686 5.09583 -0.0133481 4.81346 0.00254798 4.53019C0.018444 4.24693 0.108324 3.97397 0.2621 3.74196C0.513405 3.35019 0.849954 3.02861 1.24319 2.80452L5.65513 0.364677C6.08877 0.125086 6.57035 0 7.05912 0C7.54788 0 8.02946 0.125086 8.46311 0.364677L12.8745 2.8064C13.2677 3.03048 13.6042 3.35206 13.8555 3.74384C14.0093 3.97585 14.0992 4.2488 14.1151 4.53207C14.131 4.81534 14.0723 5.09771 13.9455 5.34749C13.8091 5.62174 13.6044 5.85096 13.3539 6.01019C13.1033 6.16942 12.8164 6.25256 12.5245 6.25055H1.59374C1.30151 6.25249 1.01439 6.16913 0.763694 6.00955C0.513001 5.84997 0.308366 5.62031 0.172109 5.34561ZM13.5291 13.7501C13.5291 13.4186 13.4052 13.1007 13.1846 12.8663C12.9639 12.6318 12.6647 12.5002 12.3527 12.5002V7.50047H11.1764V12.5002H9.41184V7.50047H8.23548V12.5002H5.88276V7.50047H4.70639V12.5002H2.94185V7.50047H1.76549V12.5002C1.4535 12.5002 1.15429 12.6318 0.933677 12.8663C0.713067 13.1007 0.589129 13.4186 0.589129 13.7501C0.433133 13.7501 0.283527 13.8159 0.173222 13.9331C0.0629168 14.0503 0.000947876 14.2093 0.000947876 14.375C0.000947876 14.5408 0.0629168 14.6998 0.173222 14.817C0.283527 14.9342 0.433133 15 0.589129 15H13.5291C13.6851 15 13.8347 14.9342 13.945 14.817C14.0553 14.6998 14.1173 14.5408 14.1173 14.375C14.1173 14.2093 14.0553 14.0503 13.945 13.9331C13.8347 13.8159 13.6851 13.7501 13.5291 13.7501Z" fill="white"/>
</svg>
