<svg width="20" height="27" viewBox="0 0 20 27" fill="none" xmlns="http://www.w3.org/2000/svg">
<path d="M16.3895 12.4952C17.8327 11.7597 18.7348 10.4639 18.5231 8.30663C18.2385 5.35766 15.6921 4.37034 12.4777 4.09016L12.4761 0.525731C12.4769 0.514319 12.4828 0.504482 12.4828 0.492676C12.4828 0.22076 12.2624 0.000786807 11.9904 0.000393295H10.4897C10.3593 0.000497606 10.2343 0.0523674 10.1421 0.144603C10.0499 0.236839 9.99813 0.361894 9.99813 0.492283H9.98672L9.98868 3.98352C9.33377 3.98352 8.66468 3.9965 8.00031 4.01027L7.99913 0.535569C8.00031 0.520615 8.00779 0.50763 8.00779 0.492283C8.00779 0.220367 7.78739 0.000393511 7.51542 0H6.0147C5.88429 0.000104311 5.75925 0.0519741 5.66707 0.14421C5.5749 0.236446 5.52312 0.3615 5.52312 0.491889L5.52351 0.49307H5.51131L5.5121 4.09094C4.97289 4.10196 4.44353 4.11338 3.92715 4.11338L3.92675 4.10039H0.49237V4.1055C0.427697 4.10545 0.363647 4.11815 0.303887 4.14287C0.244127 4.16759 0.189828 4.20385 0.144097 4.24958C0.0983659 4.2953 0.0620998 4.34959 0.0373743 4.40934C0.0126487 4.46909 -5.16019e-05 4.53313 1.57571e-07 4.59779V6.26077C1.57571e-07 6.53268 0.220406 6.75305 0.49237 6.75305L0.494338 6.75266V6.76013C0.494338 6.76013 2.33315 6.72432 2.30245 6.75698C3.3108 6.75738 3.63944 7.34253 3.73508 7.8474L3.73705 12.5078L3.73744 12.5255L3.73941 19.0526C3.69533 19.3698 3.50877 19.8763 2.80426 19.8774C2.83614 19.9054 0.994185 19.8771 0.994185 19.8771L0.993792 19.8794C0.990643 19.8794 0.988281 19.8774 0.985133 19.8774C0.748591 19.8774 0.56046 20.0474 0.512836 20.2698L0.492763 20.2686L0.0393584 22.3027L0.0499852 22.3046C0.0480173 22.3227 0.0393584 22.3385 0.0393584 22.3574C0.0393584 22.6186 0.244808 22.8276 0.502209 22.8437L0.501029 22.8512L3.74138 22.85C4.34434 22.85 4.93786 22.8599 5.52036 22.8634L5.52312 26.5081H5.5243C5.5243 26.7796 5.7447 27 6.01667 27H7.51739C7.64784 26.9998 7.77287 26.9478 7.86504 26.8555C7.95721 26.7632 8.00897 26.6381 8.00897 26.5077H8.00976L8.00819 22.9075C8.69105 22.9213 9.35187 22.9264 9.99734 22.9248L9.99813 26.5081H9.99931C9.9997 26.7796 10.2197 27 10.4913 27H11.992C12.1225 26.9998 12.2475 26.9478 12.3397 26.8555C12.4318 26.7632 12.4836 26.6381 12.4836 26.5077V26.5073H12.4867L12.486 22.8685C16.6717 22.6265 19.6015 21.5711 19.9636 17.6403C20.2556 14.4761 18.7659 13.0642 16.3895 12.4952ZM8.05935 6.93682C9.46483 6.93603 13.88 6.48743 13.8816 9.42066C13.882 12.2335 9.4664 11.9069 8.06093 11.9077L8.05935 6.93682ZM8.06368 19.8971L8.0625 14.4159C9.75017 14.4159 15.0419 13.9287 15.043 17.1528C15.0454 20.2442 9.75135 19.8944 8.06368 19.8971Z" fill="#105D38"/>
</svg>
