<svg width="40" height="28" viewBox="0 0 40 28" fill="none" xmlns="http://www.w3.org/2000/svg">
<g opacity="0.7">
<rect x="0.5" y="0.5" width="39" height="27" rx="5.5" fill="white" stroke="#BDBDBD"/>
<path d="M0.416504 5.25H39.5832" stroke="#BDBDBD"/>
<path d="M0.416504 21H39.5832" stroke="#BDBDBD"/>
<path d="M17.0835 15.75H39.5835" stroke="#BDBDBD"/>
<path d="M0.416504 15.75H9.58317" stroke="#BDBDBD"/>
<path d="M17.0835 10.5H39.5835" stroke="#BDBDBD"/>
<path d="M0.416504 10.5H9.1665" stroke="#BDBDBD"/>
<path d="M13.75 0.875V5.6875" stroke="#BDBDBD"/>
<path d="M13.75 21V27.5625" stroke="#BDBDBD"/>
<path d="M13.3332 5.25C11.032 5.25 9.1665 7.20875 9.1665 9.625C9.1665 10.5897 9.46387 11.4815 9.96761 12.2048C10.3371 12.7352 10.3371 13.5148 9.96761 14.0452C9.46387 14.7685 9.1665 15.6603 9.1665 16.625C9.1665 19.0412 11.032 21 13.3332 21C15.6344 21 17.4998 19.0412 17.4998 16.625C17.4998 15.6603 17.2025 14.7685 16.6987 14.0452C16.3293 13.5148 16.3293 12.7352 16.6987 12.2048C17.046 11.7061 17.2952 11.1275 17.4165 10.5" stroke="#BDBDBD"/>
</g>
</svg>
