<svg width="38" height="24" viewBox="0 0 38 24" fill="none" xmlns="http://www.w3.org/2000/svg">
<path d="M37.9898 2.26362L38 21.7038C38.0011 22.9537 36.983 23.9686 35.7279 23.9697L2.28458 23.9878C2.07596 23.9878 1.87302 23.9595 1.68141 23.9064C0.718822 23.6442 0.0113388 22.7673 0.010205 21.7242L9.47061e-07 2.28396C-0.00113284 1.03405 1.01587 0.0180818 2.27211 0.0180818L35.7165 0C36.1644 0 36.585 0.129963 36.9365 0.355985C37.5703 0.756045 37.9898 1.46011 37.9898 2.26362Z" fill="url(#paint0_linear_687_8657)"/>
<path opacity="0.53" d="M26.3404 23.9871L2.28482 23.9999C2.0762 23.9999 1.87325 23.9707 1.68164 23.9157L12.3528 12.8902C12.6714 12.5602 13.0603 12.3472 13.4696 12.2571C14.202 12.0862 15.0036 12.2969 15.5751 12.889L26.3404 23.9871Z" fill="url(#paint1_linear_687_8657)"/>
<path opacity="0.53" d="M10.3752 8.61308L0.0090275 18.9503L9.4147e-07 2.25583C-0.00112741 1.01158 1.01213 0.00224821 2.26008 0.00112422L4.92862 0L10.374 5.41872C11.2609 6.2988 11.262 7.73075 10.3752 8.61308Z" fill="url(#paint2_linear_687_8657)"/>
<path opacity="0.53" d="M19.6389 0L16.3704 2.68906C15.4821 3.42067 14.0388 3.4216 13.1505 2.69093L9.87744 0.0046539L19.6389 0Z" fill="url(#paint3_linear_687_8657)"/>
<path opacity="0.53" d="M37.991 2.24187L38.0001 19.4284C37.3909 19.4519 36.7728 19.2348 36.3072 18.7728L22.5141 5.13369C21.6258 4.25664 21.6247 2.8303 22.5118 1.95212L24.476 0.00559339L35.724 0C36.1704 0 36.5897 0.12865 36.94 0.352389C37.5729 0.749526 37.991 1.44647 37.991 2.24187Z" fill="url(#paint4_linear_687_8657)"/>
<path d="M3.85838 9.67474V9.8725L3.58513 9.8608L3.74386 10.0866L3.57266 10.192L3.43774 9.93803L3.30282 10.192L3.13502 10.0866L3.29035 9.8608L3.02051 9.87367V9.67591L3.29035 9.69112L3.13389 9.46176L3.30169 9.35645L3.43661 9.61038L3.57153 9.35645L3.74273 9.46176L3.584 9.69112L3.85838 9.67474Z" fill="white"/>
<path d="M5.26316 9.67352V9.87128L4.98992 9.85958L5.14865 10.0854L4.97745 10.1907L4.84253 9.93681L4.70761 10.1907L4.53981 10.0854L4.69513 9.85958L4.42529 9.87245V9.67469L4.69513 9.6899L4.53867 9.46054L4.70647 9.35522L4.84139 9.60916L4.97631 9.35522L5.14752 9.46054L4.98879 9.6899L5.26316 9.67352Z" fill="white"/>
<path d="M6.66877 9.67352V9.87128L6.39666 9.85958L6.55539 10.0854L6.38418 10.1907L6.24926 9.93681L6.11434 10.1907L5.94654 10.0854L6.10187 9.85958L5.83203 9.87245V9.67469L6.10187 9.6899L5.94541 9.46054L6.11321 9.35522L6.24813 9.60916L6.38305 9.35522L6.55425 9.46054L6.39552 9.6899L6.66877 9.67352Z" fill="white"/>
<path d="M8.07371 9.6723V9.87006L7.80046 9.85835L7.9592 10.0842L7.78799 10.1895L7.65307 9.93559L7.51815 10.1895L7.35035 10.0842L7.50568 9.85835L7.23584 9.87123V9.67347L7.50568 9.68868L7.34922 9.45932L7.51702 9.354L7.65194 9.60794L7.78686 9.354L7.95806 9.45932L7.79933 9.68868L8.07371 9.6723Z" fill="white"/>
<path d="M10.4536 9.67083V9.86859L10.1803 9.85689L10.3391 10.0827L10.1679 10.1881L10.033 9.93412L9.89804 10.1881L9.73024 10.0827L9.88556 9.85689L9.61572 9.86976V9.672L9.88556 9.68721L9.7291 9.45786L9.8969 9.35254L10.0318 9.60647L10.1667 9.35254L10.3379 9.45786L10.1792 9.68721L10.4536 9.67083Z" fill="white"/>
<path d="M11.8594 9.66961V9.86737L11.5861 9.85567L11.7448 10.0815L11.5736 10.1868L11.4387 9.9329L11.3038 10.1868L11.136 10.0815L11.2913 9.85567L11.0215 9.86854V9.67078L11.2913 9.68599L11.1349 9.45664L11.3027 9.35132L11.4376 9.60525L11.5725 9.35132L11.7437 9.45664L11.585 9.68599L11.8594 9.66961Z" fill="white"/>
<path d="M13.2646 9.66961V9.86737L12.9914 9.85567L13.1501 10.0815L12.9789 10.1868L12.844 9.9329L12.7091 10.1868L12.5413 10.0815L12.6966 9.85567L12.4268 9.86854V9.67078L12.6966 9.68599L12.5401 9.45664L12.7079 9.35132L12.8429 9.60525L12.9778 9.35132L13.149 9.45664L12.9902 9.68599L13.2646 9.66961Z" fill="white"/>
<path d="M14.6697 9.66863V9.8664L14.3976 9.85469L14.5564 10.0805L14.3852 10.1859L14.2502 9.93193L14.1153 10.1859L13.9475 10.0805L14.1029 9.85469L13.833 9.86756V9.6698L14.1029 9.68502L13.9464 9.45566L14.1142 9.35034L14.2491 9.60427L14.384 9.35034L14.5552 9.45566L14.3965 9.68502L14.6697 9.66863Z" fill="white"/>
<path d="M17.0488 9.66741V9.86517L16.7756 9.85347L16.9343 10.0793L16.7631 10.1846L16.6282 9.9307L16.4933 10.1846L16.3255 10.0793L16.4808 9.85347L16.2109 9.86634V9.66858L16.4808 9.6838L16.3243 9.45444L16.4921 9.34912L16.627 9.60305L16.762 9.34912L16.9332 9.45444L16.7744 9.6838L17.0488 9.66741Z" fill="white"/>
<path d="M18.4546 9.66644V9.8642L18.1813 9.8525L18.3401 10.0783L18.1689 10.1837L18.0339 9.92973L17.899 10.1837L17.7312 10.0783L17.8865 9.8525L17.6167 9.86537V9.66761L17.8865 9.68282L17.7301 9.45346L17.8979 9.34814L18.0328 9.60208L18.1677 9.34814L18.3389 9.45346L18.1802 9.68282L18.4546 9.66644Z" fill="white"/>
<path d="M19.8608 9.66522V9.86298L19.5876 9.85127L19.7463 10.0771L19.5751 10.1824L19.4402 9.92851L19.3053 10.1824L19.1375 10.0771L19.2928 9.85127L19.0229 9.86415V9.66639L19.2928 9.6816L19.1363 9.45224L19.3041 9.34692L19.439 9.60085L19.574 9.34692L19.7452 9.45224L19.5864 9.6816L19.8608 9.66522Z" fill="white"/>
<path d="M21.2654 9.66522V9.86298L20.9933 9.85127L21.1521 10.0771L20.9809 10.1824L20.8459 9.92851L20.711 10.1824L20.5432 10.0771L20.6986 9.85127L20.4287 9.86415V9.66639L20.6986 9.6816L20.5421 9.45224L20.7099 9.34692L20.8448 9.60085L20.9797 9.34692L21.1509 9.45224L20.9922 9.6816L21.2654 9.66522Z" fill="white"/>
<path d="M22.7437 11.5504V11.3152L23.4829 10.5358C23.6802 10.3311 23.7799 10.1567 23.7799 10.0104C23.7799 9.88872 23.7436 9.79394 23.6722 9.72606C23.6008 9.65819 23.5124 9.62426 23.408 9.62426C23.2096 9.62426 23.0668 9.72138 22.9772 9.91564L22.7437 9.77404C22.8094 9.63362 22.9012 9.52713 23.018 9.45575C23.1348 9.3832 23.2641 9.34692 23.4058 9.34692C23.5815 9.34692 23.7346 9.4066 23.8638 9.52596C23.9942 9.64532 24.0588 9.80681 24.0588 10.0081C24.0588 10.2269 23.9341 10.4656 23.6847 10.7231L23.1495 11.2742H24.0974V11.5527L22.7437 11.5504Z" fill="white"/>
<path d="M25.3563 10.2714C25.5162 10.3018 25.6477 10.3732 25.7497 10.4844C25.8518 10.5956 25.9028 10.7372 25.9028 10.908C25.9028 11.1186 25.8325 11.2848 25.693 11.4065C25.5536 11.5282 25.3835 11.5891 25.184 11.5891C25.0241 11.5891 24.8824 11.5516 24.7588 11.4767C24.6352 11.4018 24.5468 11.293 24.4946 11.1502L24.7282 11.0075C24.7905 11.2076 24.9425 11.307 25.184 11.307C25.3132 11.307 25.4198 11.2719 25.5014 11.2017C25.5831 11.1315 25.6239 11.0332 25.6239 10.908C25.6239 10.7828 25.5831 10.6833 25.5014 10.6131C25.4198 10.5417 25.3132 10.5066 25.184 10.5066H25.1125L25.0014 10.3299L25.4867 9.65239H24.5547V9.38325L25.8132 9.38208L25.8121 9.63484L25.3563 10.2714Z" fill="white"/>
<path d="M27.973 10.867V11.1362H27.7179V11.5481H27.4389V11.1362H26.3687V10.867L27.1204 9.38208H27.4197L26.668 10.867H27.4378V10.255H27.7167V10.867H27.973Z" fill="white"/>
<path d="M29.0683 10.2269C29.2668 10.2269 29.4334 10.2866 29.5706 10.4071C29.7078 10.5276 29.7758 10.6938 29.7758 10.9068C29.7758 11.1174 29.7055 11.2836 29.5661 11.4053C29.4266 11.527 29.2565 11.5878 29.057 11.5878C28.8971 11.5878 28.7543 11.548 28.6284 11.4685C28.5026 11.3889 28.4141 11.2742 28.3643 11.1233L28.6012 10.984C28.6296 11.0893 28.6829 11.1689 28.7634 11.2239C28.8438 11.2789 28.9414 11.3058 29.057 11.3058C29.1885 11.3058 29.2962 11.2707 29.3779 11.2005C29.4595 11.1303 29.5003 11.032 29.5003 10.9068C29.5003 10.7816 29.4595 10.6821 29.3767 10.6119C29.2951 10.5405 29.1897 10.5054 29.0615 10.5054H28.4686L28.5434 9.38203L29.6942 9.38086V9.65H28.7985L28.7622 10.2257L29.0683 10.2269Z" fill="white"/>
<path d="M3.20285 17.4763C3.0804 17.4763 2.97949 17.4342 2.89899 17.3511C2.81849 17.268 2.77881 17.165 2.77881 17.0433C2.77881 16.9216 2.81849 16.8186 2.89786 16.7356C2.97722 16.6525 3.07926 16.6104 3.20171 16.6104C3.27541 16.6104 3.34344 16.6291 3.40579 16.6654C3.46815 16.7016 3.51577 16.7508 3.55092 16.8128L3.45681 16.869C3.43414 16.8233 3.39899 16.7859 3.35364 16.759C3.30829 16.732 3.25727 16.718 3.20171 16.718C3.10874 16.718 3.03278 16.7496 2.97382 16.8116C2.91486 16.8736 2.88538 16.9509 2.88538 17.0445C2.88538 17.1369 2.91486 17.2142 2.97382 17.2762C3.03278 17.3382 3.10874 17.3698 3.20171 17.3686C3.25727 17.3686 3.30829 17.3546 3.35364 17.3277C3.40013 17.3008 3.43414 17.2645 3.45681 17.2188L3.55092 17.2738C3.51691 17.3359 3.46929 17.3862 3.40693 17.4225C3.34457 17.4576 3.27654 17.4763 3.20285 17.4763Z" fill="white"/>
<path d="M4.13927 16.8631H4.24017V17.4599H4.13927V17.3569C4.08938 17.4353 4.01682 17.4751 3.92045 17.4751C3.83995 17.4751 3.77079 17.4447 3.71296 17.3838C3.65627 17.323 3.62793 17.2493 3.62793 17.1615C3.62793 17.0737 3.65627 17 3.71296 16.9392C3.76965 16.8783 3.83881 16.8479 3.92045 16.8479C4.01569 16.8479 4.08825 16.8865 4.13927 16.9661V16.8631ZM3.93292 17.3745C3.99188 17.3745 4.04063 17.3546 4.07918 17.3125C4.11886 17.2715 4.13813 17.2212 4.13813 17.1603C4.13813 17.0995 4.11886 17.0492 4.07918 17.0082C4.03949 16.9673 3.99074 16.9474 3.93178 16.9474C3.87396 16.9474 3.82521 16.9684 3.78666 17.0094C3.74698 17.0503 3.7277 17.1007 3.7277 17.1615C3.7277 17.2224 3.74698 17.2727 3.78666 17.3136C3.82748 17.3546 3.8751 17.3757 3.93292 17.3745Z" fill="white"/>
<path d="M4.49349 16.9625C4.52637 16.8888 4.58646 16.8513 4.67376 16.8513V16.9601C4.62501 16.9578 4.58192 16.9707 4.54677 17.0011C4.51163 17.0304 4.49349 17.0783 4.49349 17.1427V17.4586H4.39258V16.8618H4.49349V16.9625Z" fill="white"/>
<path d="M5.21935 16.6233H5.32025V17.4588H5.21935V17.3558C5.16946 17.4342 5.0969 17.474 5.00053 17.474C4.92003 17.474 4.85086 17.4436 4.79304 17.3827C4.73635 17.3219 4.70801 17.2482 4.70801 17.1604C4.70801 17.0726 4.73635 16.9989 4.79304 16.9381C4.84973 16.8772 4.91889 16.8468 5.00053 16.8468C5.09576 16.8468 5.16946 16.8854 5.21935 16.965V16.6233ZM5.01413 17.3746C5.07309 17.3746 5.12184 17.3547 5.16039 17.3125C5.20007 17.2716 5.21935 17.2213 5.21935 17.1604C5.21935 17.0996 5.20007 17.0492 5.16039 17.0083C5.12071 16.9673 5.07195 16.9474 5.01413 16.9474C4.95631 16.9474 4.90755 16.9685 4.86901 17.0095C4.82932 17.0504 4.81005 17.1007 4.81005 17.1616C4.81005 17.2224 4.82932 17.2727 4.86901 17.3137C4.90755 17.3547 4.95631 17.3746 5.01413 17.3746Z" fill="white"/>
<path d="M6.27213 16.6233H6.37871V17.4588H6.27213V17.0832H5.87871V17.4588H5.771V16.6233H5.87871V16.9779H6.27213V16.6233Z" fill="white"/>
<path d="M7.0292 17.3826C6.97024 17.4434 6.89768 17.4738 6.81264 17.4738C6.72761 17.4738 6.65618 17.4434 6.59723 17.3837C6.53827 17.3229 6.50879 17.2492 6.50879 17.1602C6.50879 17.0725 6.53827 16.9976 6.59723 16.9367C6.65618 16.8759 6.72761 16.8466 6.81264 16.8455C6.89768 16.8455 6.96911 16.8759 7.0292 16.9356C7.08929 16.9952 7.11877 17.0701 7.11877 17.1591C7.11763 17.248 7.08815 17.3217 7.0292 17.3826ZM6.81264 17.372C6.87047 17.372 6.91922 17.3522 6.95777 17.3112C6.99745 17.2702 7.01673 17.2199 7.01673 17.1602C7.01673 17.0994 6.99745 17.0491 6.95777 17.0093C6.91809 16.9683 6.86933 16.9484 6.81151 16.9484C6.75482 16.9484 6.70607 16.9683 6.66639 17.0093C6.6267 17.0502 6.60743 17.1006 6.60743 17.1602C6.60743 17.2211 6.6267 17.2714 6.66639 17.3112C6.70834 17.3522 6.75595 17.372 6.81264 17.372Z" fill="white"/>
<path d="M7.23877 17.4575V16.5869H7.33968V17.4575H7.23877Z" fill="white"/>
<path d="M7.97048 16.6221H8.07139V17.4576H7.97048V17.3546C7.92059 17.433 7.84803 17.4728 7.75166 17.4728C7.67116 17.4728 7.602 17.4424 7.54418 17.3815C7.48749 17.3207 7.45914 17.247 7.45801 17.1592C7.45801 17.0714 7.48635 16.9977 7.54304 16.9369C7.59973 16.876 7.66889 16.8456 7.74939 16.8456C7.84463 16.8456 7.91833 16.8854 7.96821 16.9638L7.97048 16.6221ZM7.76526 17.3733C7.82422 17.3733 7.87297 17.3534 7.91152 17.3113C7.95121 17.2704 7.97048 17.22 7.97048 17.1592C7.97048 17.0983 7.95121 17.048 7.91152 17.0071C7.87184 16.9661 7.82309 16.9462 7.76526 16.9462C7.70744 16.9462 7.65869 16.9673 7.61901 17.0082C7.57932 17.0492 7.56005 17.0995 7.56005 17.1604C7.56005 17.2212 7.57932 17.2715 7.61901 17.3125C7.65869 17.3523 7.70744 17.3733 7.76526 17.3733Z" fill="white"/>
<path d="M8.29491 17.207C8.30512 17.2608 8.32893 17.3018 8.36634 17.331C8.40376 17.3603 8.45024 17.3755 8.50466 17.3755C8.58063 17.3755 8.63618 17.3462 8.67133 17.2877L8.75636 17.3381C8.69967 17.4282 8.61577 17.4726 8.50239 17.4726C8.41056 17.4726 8.33573 17.4434 8.27904 17.3837C8.22122 17.324 8.19287 17.2491 8.19287 17.159C8.19287 17.0689 8.22122 16.994 8.27677 16.9343C8.33346 16.8747 8.40602 16.8442 8.49559 16.8442C8.58063 16.8442 8.64979 16.8747 8.70308 16.9367C8.75636 16.9987 8.78357 17.0724 8.78357 17.159C8.78357 17.1742 8.78244 17.1894 8.78017 17.2058L8.29491 17.207ZM8.49446 16.9425C8.44004 16.9425 8.39582 16.9577 8.36067 16.9893C8.32552 17.0209 8.30285 17.0631 8.29491 17.1157H8.68153C8.67246 17.0596 8.65092 17.0163 8.61691 16.987C8.58063 16.9577 8.53981 16.9425 8.49446 16.9425Z" fill="white"/>
<path d="M8.99788 16.9603C9.03076 16.8866 9.09085 16.8491 9.17815 16.8491V16.9579C9.12826 16.9556 9.08631 16.9697 9.05117 16.9989C9.01602 17.0282 8.99788 17.0761 8.99788 17.1405V17.4564H8.89697V16.8597H8.99788V16.9603Z" fill="white"/>
<path d="M9.85455 16.8442C9.92257 16.8442 9.977 16.8665 10.0178 16.9098C10.0586 16.9542 10.079 17.0139 10.079 17.09V17.4562H9.97813V17.0958C9.97813 17.0467 9.96566 17.0092 9.93958 16.9835C9.91464 16.9566 9.87836 16.9437 9.83414 16.9437C9.78425 16.9437 9.74343 16.9601 9.71282 16.9917C9.68221 17.0244 9.66634 17.0736 9.66634 17.1403V17.4562H9.56543V16.8594H9.66634V16.9449C9.70829 16.8782 9.77065 16.8442 9.85455 16.8442Z" fill="white"/>
<path d="M10.6961 16.8594H10.797V17.4562H10.6961V17.3533C10.6462 17.4317 10.5736 17.4715 10.4772 17.4715C10.3967 17.4715 10.3276 17.441 10.2698 17.3802C10.2131 17.3193 10.1847 17.2456 10.1836 17.1578C10.1836 17.0701 10.2119 16.9964 10.2686 16.9355C10.3253 16.8747 10.3945 16.8442 10.475 16.8442C10.5702 16.8442 10.6439 16.8829 10.6938 16.9624V16.8594H10.6961ZM10.4909 17.3708C10.5498 17.3708 10.5986 17.3498 10.6371 17.3088C10.6768 17.2678 10.6961 17.2175 10.6961 17.1567C10.6961 17.0958 10.6768 17.0455 10.6371 17.0046C10.5974 16.9636 10.5487 16.9437 10.4909 16.9437C10.433 16.9437 10.3843 16.9636 10.3446 17.0057C10.3049 17.0467 10.2856 17.097 10.2856 17.1578C10.2856 17.2187 10.3049 17.269 10.3446 17.31C10.3843 17.3509 10.433 17.3708 10.4909 17.3708Z" fill="white"/>
<path d="M11.5739 16.8431C11.6386 16.8431 11.6907 16.8642 11.7315 16.9086C11.7712 16.9519 11.7916 17.0104 11.7916 17.0842V17.4551H11.6907V17.0877C11.6907 17.042 11.6794 17.0058 11.6556 16.98C11.6329 16.9543 11.6011 16.9414 11.5626 16.9414C11.5195 16.9414 11.4855 16.9566 11.4594 16.9859C11.4333 17.0151 11.4209 17.0608 11.4209 17.1228V17.4539H11.32V17.0865C11.32 17.0409 11.3086 17.0046 11.2871 16.9789C11.2655 16.9531 11.2349 16.9402 11.1975 16.9402C11.1544 16.9402 11.1193 16.9554 11.0921 16.9859C11.0637 17.0163 11.0501 17.0619 11.0501 17.1216V17.4528H10.9492V16.856H11.0501V16.9356C11.0898 16.8724 11.1465 16.8396 11.2225 16.8396C11.3007 16.8396 11.3574 16.8735 11.3925 16.9414C11.4322 16.877 11.4934 16.8431 11.5739 16.8431Z" fill="white"/>
<path d="M12.0015 17.2048C12.0117 17.2586 12.0355 17.2996 12.0729 17.3288C12.1103 17.3581 12.1568 17.3733 12.2112 17.3733C12.2872 17.3733 12.3427 17.3441 12.3779 17.2855L12.4629 17.3359C12.4062 17.426 12.3223 17.4704 12.2089 17.4704C12.1171 17.4704 12.0423 17.4412 11.9856 17.3815C11.9278 17.3218 11.8994 17.2469 11.8994 17.1568C11.8994 17.0667 11.9278 16.9918 11.9833 16.9321C12.04 16.8725 12.1126 16.8432 12.2021 16.842C12.2872 16.842 12.3563 16.8725 12.4096 16.9345C12.4629 16.9965 12.4901 17.0702 12.4901 17.1568C12.4901 17.172 12.489 17.1872 12.4867 17.2036L12.0015 17.2048ZM12.2021 16.9403C12.1477 16.9403 12.1035 16.9555 12.0683 16.9871C12.0332 17.0187 12.0105 17.0609 12.0026 17.1135H12.3892C12.3801 17.0574 12.3586 17.0141 12.3246 16.9848C12.2883 16.9555 12.2475 16.9403 12.2021 16.9403Z" fill="white"/>
<path d="M27.7698 17.3415H28.1451V17.4468H27.6621V16.6113H28.1394V16.7166H27.7698V16.9729H28.1111V17.0771H27.7698V17.3415Z" fill="white"/>
<path d="M28.7666 17.4457H28.6487L28.4866 17.2198L28.3245 17.4457H28.2065L28.4276 17.1379L28.219 16.8489H28.3381L28.4866 17.056L28.6362 16.8489H28.7542L28.5455 17.1379L28.7666 17.4457Z" fill="white"/>
<path d="M29.1793 16.8337C29.2598 16.8337 29.3289 16.8642 29.3868 16.925C29.4435 16.9859 29.4729 17.0596 29.4729 17.1474C29.4729 17.2351 29.4446 17.3088 29.3879 17.3697C29.3312 17.4305 29.262 17.461 29.1815 17.461C29.0863 17.461 29.0126 17.4212 28.9627 17.3428V17.6845H28.8618V16.849H28.9627V16.9519C29.0103 16.8724 29.084 16.8337 29.1793 16.8337ZM29.1668 17.3603C29.2246 17.3603 29.2734 17.3404 29.3131 17.2983C29.3528 17.2573 29.372 17.207 29.372 17.1462C29.372 17.0853 29.3528 17.035 29.3131 16.9941C29.2734 16.9531 29.2246 16.9332 29.1668 16.9332C29.1078 16.9332 29.0591 16.9543 29.0205 16.9952C28.9809 17.0362 28.9616 17.0865 28.9616 17.1474C28.9616 17.2082 28.9809 17.2585 29.0205 17.2995C29.0591 17.3404 29.1078 17.3603 29.1668 17.3603Z" fill="white"/>
<path d="M29.6432 16.7401C29.6239 16.7401 29.6081 16.7331 29.5945 16.7202C29.5809 16.7061 29.5752 16.6909 29.5752 16.671C29.5752 16.6511 29.582 16.6359 29.5945 16.6219C29.6081 16.6079 29.6239 16.6008 29.6432 16.6008C29.6614 16.6008 29.6772 16.6079 29.6908 16.6219C29.7044 16.6359 29.7101 16.6523 29.7101 16.671C29.7101 16.6898 29.7033 16.7061 29.6908 16.7202C29.6772 16.7331 29.6614 16.7401 29.6432 16.7401ZM29.5922 17.4445V16.8477H29.6931V17.4445H29.5922Z" fill="white"/>
<path d="M29.9466 16.9483C29.9795 16.8746 30.0396 16.8372 30.1269 16.8372V16.946C30.0781 16.9436 30.035 16.9577 29.9999 16.9869C29.9648 17.0162 29.9466 17.0642 29.9466 17.1285V17.4445H29.8457V16.8477H29.9466V16.9483Z" fill="white"/>
<path d="M30.6414 16.8477H30.7491L30.5133 17.4819C30.4884 17.5498 30.4543 17.6013 30.4101 17.6364C30.3659 17.6715 30.3149 17.6878 30.2571 17.6832V17.586C30.3274 17.5919 30.3795 17.5509 30.4124 17.4643L30.4237 17.4421L30.1709 16.8477H30.2786L30.4714 17.3052L30.6414 16.8477Z" fill="white"/>
<path d="M31.448 16.6091C31.558 16.6091 31.6498 16.6489 31.7224 16.7296C31.7949 16.8104 31.8312 16.9086 31.8312 17.0257C31.8312 17.1427 31.7949 17.241 31.7224 17.3217C31.6498 17.4025 31.558 17.4434 31.448 17.4434H31.1328V16.6079L31.448 16.6091ZM31.4491 17.3393C31.5319 17.3393 31.5988 17.3089 31.651 17.2492C31.7031 17.1895 31.7292 17.1146 31.7292 17.0257C31.7292 16.9367 31.7031 16.8618 31.651 16.8022C31.5988 16.7425 31.5308 16.7132 31.4491 16.7132H31.2405V17.3381L31.4491 17.3393Z" fill="white"/>
<path d="M32.4308 16.8465H32.5317V17.4433H32.4308V17.3403C32.3809 17.4187 32.3083 17.4585 32.2119 17.4585C32.1315 17.4585 32.0623 17.4281 32.0045 17.3672C31.9478 17.3064 31.9194 17.2327 31.9194 17.1449C31.9194 17.0571 31.9478 16.9834 32.0045 16.9226C32.0612 16.8617 32.1303 16.8313 32.2119 16.8313C32.3072 16.8313 32.3798 16.8699 32.4308 16.9495V16.8465ZM32.2256 17.3591C32.2845 17.3591 32.3333 17.338 32.3718 17.297C32.4115 17.2561 32.4308 17.2058 32.4308 17.1449C32.4308 17.0841 32.4115 17.0337 32.3718 16.9928C32.3321 16.9518 32.2834 16.9319 32.2244 16.9319C32.1666 16.9319 32.1178 16.9518 32.0793 16.994C32.0396 17.0349 32.0203 17.0852 32.0203 17.1461C32.0203 17.2069 32.0396 17.2572 32.0793 17.2982C32.119 17.3392 32.1677 17.3591 32.2256 17.3591Z" fill="white"/>
<path d="M32.9985 16.9472H32.8443V17.2702C32.8443 17.2995 32.85 17.3205 32.8613 17.3334C32.8727 17.3463 32.8897 17.3521 32.9124 17.3521C32.935 17.3521 32.9645 17.3521 32.9974 17.3509V17.4434C32.9101 17.4551 32.8455 17.4481 32.8046 17.4211C32.7638 17.3942 32.7434 17.3439 32.7434 17.2702V16.9472H32.6289V16.8466H32.7434V16.7108L32.8443 16.6804V16.8478H32.9985V16.9472Z" fill="white"/>
<path d="M33.1601 17.1928C33.1704 17.2467 33.1942 17.2876 33.2316 17.3169C33.269 17.3461 33.3155 17.3613 33.3699 17.3613C33.4459 17.3613 33.5014 17.3321 33.5366 17.2736L33.6216 17.3239C33.5649 17.414 33.481 17.4585 33.3676 17.4585C33.2758 17.4585 33.201 17.4292 33.1443 17.3695C33.0864 17.3099 33.0581 17.235 33.0581 17.1449C33.0581 17.0548 33.0864 16.9799 33.142 16.9202C33.1987 16.8605 33.2713 16.8312 33.3608 16.8301C33.4459 16.8301 33.515 16.8605 33.5683 16.9225C33.6216 16.9845 33.6488 17.0583 33.6488 17.1449C33.6488 17.1601 33.6477 17.1753 33.6454 17.1917L33.1601 17.1928ZM33.3597 16.9284C33.3053 16.9284 33.2611 16.9436 33.2259 16.9752C33.1908 17.0068 33.1681 17.0489 33.1601 17.1016H33.5468C33.5377 17.0454 33.5162 17.0021 33.4821 16.9728C33.4459 16.9436 33.4062 16.9284 33.3597 16.9284Z" fill="white"/>
<path d="M28.4862 19.7663C28.4023 19.8868 28.2855 19.9476 28.1347 19.9476C27.9839 19.9476 27.866 19.888 27.7821 19.7674C27.6982 19.6469 27.6562 19.4866 27.6562 19.2853C27.6562 19.0841 27.6982 18.9237 27.7821 18.8032C27.866 18.6827 27.9828 18.623 28.1336 18.6218C28.2844 18.6218 28.4023 18.6815 28.485 18.802C28.569 18.9226 28.6109 19.0829 28.6109 19.2842C28.612 19.4854 28.5701 19.6457 28.4862 19.7663ZM27.9023 19.6516C27.9567 19.7382 28.0338 19.7815 28.1336 19.7815C28.2333 19.7815 28.3116 19.7382 28.366 19.6516C28.4204 19.565 28.4476 19.4433 28.4476 19.2853C28.4476 19.1273 28.4204 19.0045 28.3649 18.9179C28.3104 18.8313 28.2322 18.788 28.1324 18.788C28.0327 18.788 27.9556 18.8313 27.9011 18.9179C27.8467 19.0045 27.8195 19.1273 27.8195 19.2865C27.8206 19.4433 27.8479 19.565 27.9023 19.6516Z" fill="white"/>
<path d="M28.7324 19.9231V19.7838L29.1689 19.3239C29.2857 19.2034 29.3435 19.1004 29.3435 19.0138C29.3435 18.9425 29.322 18.8863 29.28 18.8465C29.2381 18.8067 29.1859 18.7868 29.1247 18.7868C29.0079 18.7868 28.9229 18.8442 28.8707 18.9588L28.7324 18.8746C28.771 18.7915 28.8254 18.7295 28.8946 18.6862C28.9637 18.6441 29.0397 18.6218 29.1236 18.6218C29.2267 18.6218 29.3175 18.6569 29.3945 18.7271C29.4716 18.7974 29.5091 18.8921 29.5102 19.0115C29.5102 19.1402 29.4365 19.2818 29.2891 19.4339L28.9739 19.7592H29.534V19.9231H28.7324Z" fill="white"/>
<path d="M29.7598 20.1033L29.668 20.1056L30.3743 18.465L30.4661 18.4626L29.7598 20.1033Z" fill="white"/>
<path d="M31.0923 19.1683C31.1864 19.187 31.2646 19.228 31.3247 19.2947C31.3848 19.3602 31.4154 19.4433 31.4154 19.5451C31.4154 19.6691 31.3746 19.7674 31.2918 19.8388C31.209 19.9102 31.1093 19.9465 30.9913 19.9465C30.8972 19.9465 30.8133 19.9242 30.7408 19.8798C30.6682 19.8353 30.6161 19.7709 30.5854 19.6879L30.7238 19.6036C30.7601 19.7218 30.8496 19.7803 30.9925 19.7803C31.0696 19.7803 31.1319 19.7592 31.1796 19.7183C31.2272 19.6773 31.2521 19.6188 31.2521 19.5451C31.2521 19.4714 31.2283 19.4129 31.1796 19.3707C31.1308 19.3286 31.0684 19.3075 30.9925 19.3075H30.9505L30.8848 19.2034L31.1716 18.8032H30.6217V18.644H31.3644L31.3632 18.7927L31.0923 19.1683Z" fill="white"/>
<path d="M32.3889 19.7638C32.305 19.8844 32.1882 19.9452 32.0374 19.9452C31.8866 19.9452 31.7687 19.8855 31.6859 19.765C31.602 19.6445 31.5601 19.4842 31.5601 19.2829C31.5601 19.0816 31.602 18.9213 31.6848 18.8008C31.7675 18.6802 31.8855 18.6206 32.0362 18.6194C32.187 18.6194 32.305 18.6791 32.3889 18.7996C32.4728 18.9201 32.5147 19.0804 32.5147 19.2817C32.5147 19.483 32.4728 19.6433 32.3889 19.7638ZM31.8061 19.6491C31.8605 19.7357 31.9376 19.779 32.0374 19.779C32.1372 19.779 32.2154 19.7357 32.2698 19.6491C32.3242 19.5626 32.3514 19.4409 32.3514 19.2817C32.3514 19.1226 32.3242 19.0009 32.2687 18.9143C32.2143 18.8277 32.136 18.7832 32.0362 18.7844C31.9365 18.7844 31.8582 18.8277 31.805 18.9143C31.7505 19.0009 31.7233 19.1237 31.7233 19.2829C31.7245 19.4409 31.7517 19.5626 31.8061 19.6491Z" fill="white"/>
<path d="M33.4061 3.10278H31.998V5.63322H33.4061V3.10278Z" fill="#FF5F00"/>
<path d="M32.0873 4.36772C32.0873 3.85458 32.3278 3.3973 32.7019 3.10273C32.4283 2.88728 32.0828 2.75854 31.7073 2.75854C30.8187 2.75854 30.0981 3.4791 30.0981 4.36772C30.0981 5.25635 30.8187 5.9769 31.7073 5.9769C32.0828 5.9769 32.4279 5.84817 32.7019 5.63272C32.3278 5.33815 32.0873 4.88087 32.0873 4.36772Z" fill="#EB001B"/>
<path d="M35.3054 4.36772C35.3054 5.25635 34.5848 5.9769 33.6962 5.9769C33.3207 5.9769 32.9757 5.84817 32.7017 5.63272C33.0758 5.33815 33.3163 4.88087 33.3163 4.36772C33.3163 3.85458 33.0758 3.3973 32.7017 3.10273C32.9752 2.88728 33.3207 2.75854 33.6962 2.75854C34.5848 2.75854 35.3054 3.4791 35.3054 4.36772Z" fill="#F79E1B"/>
<path d="M35.1518 5.36507V5.31322H35.1728V5.30249H35.1196V5.31322H35.1406V5.36507H35.1518ZM35.2551 5.36507V5.30249H35.239L35.2202 5.3454L35.2014 5.30249H35.1849V5.36507H35.1965V5.31813L35.2139 5.35881H35.226L35.2434 5.31813V5.36552H35.2551V5.36507Z" fill="#F79E1B"/>
<path d="M2.8309 20.2307L3.24607 19.1043H3.43273L3.84468 20.2307H3.66446L3.56791 19.9555H3.10768L3.01113 20.2307H2.8309ZM3.15596 19.8204H3.51963L3.33779 19.307L3.15596 19.8204ZM4.31395 20.25C4.21311 20.25 4.12997 20.2253 4.06453 20.176C3.99909 20.1267 3.96154 20.0612 3.95188 19.9797H4.12407C4.13265 20.0162 4.15303 20.0478 4.18521 20.0746C4.2174 20.1004 4.25977 20.1132 4.31234 20.1132C4.36383 20.1132 4.40138 20.1025 4.42498 20.0811C4.44858 20.0596 4.46038 20.0349 4.46038 20.007C4.46038 19.9663 4.44376 19.9389 4.4105 19.925C4.37832 19.9099 4.33326 19.8965 4.27533 19.8847C4.23027 19.8751 4.18521 19.8622 4.14016 19.8461C4.09617 19.83 4.05916 19.8075 4.02912 19.7785C4.00016 19.7485 3.98568 19.7083 3.98568 19.6578C3.98568 19.5881 4.0125 19.5302 4.06614 19.4841C4.11977 19.4369 4.19487 19.4132 4.29142 19.4132C4.38046 19.4132 4.45234 19.4347 4.50705 19.4776C4.56284 19.5205 4.59556 19.5811 4.60521 19.6595H4.44107C4.43571 19.6251 4.41962 19.5983 4.3928 19.579C4.36705 19.5597 4.33219 19.55 4.2882 19.55C4.24529 19.55 4.21203 19.5591 4.18843 19.5774C4.16483 19.5946 4.15303 19.6171 4.15303 19.645C4.15303 19.6729 4.16912 19.6949 4.20131 19.7109C4.23456 19.727 4.27801 19.7415 4.33165 19.7544C4.38529 19.7662 4.43464 19.7801 4.47969 19.7962C4.52582 19.8113 4.56284 19.8338 4.59073 19.8638C4.61862 19.8939 4.63257 19.9378 4.63257 19.9958C4.63364 20.0687 4.60521 20.1293 4.54728 20.1776C4.49042 20.2259 4.41265 20.25 4.31395 20.25ZM4.81878 20.2307V19.0721H4.98935V19.5613C5.01617 19.5152 5.05318 19.4792 5.10039 19.4535C5.14866 19.4267 5.20176 19.4132 5.25969 19.4132C5.35517 19.4132 5.43027 19.4433 5.48498 19.5034C5.53969 19.5634 5.56705 19.653 5.56705 19.7721V20.2307H5.39808V19.7898C5.39808 19.6353 5.3364 19.5581 5.21303 19.5581C5.14866 19.5581 5.09502 19.5806 5.05211 19.6257C5.01027 19.6707 4.98935 19.7351 4.98935 19.8188V20.2307H4.81878ZM5.76794 20.2307V19.0721H5.93852V20.2307H5.76794ZM6.52785 20.25C6.44954 20.25 6.37981 20.2329 6.31866 20.1985C6.25858 20.1631 6.21138 20.1143 6.17705 20.0521C6.14272 19.9899 6.12556 19.9175 6.12556 19.8349C6.12556 19.7512 6.14219 19.6777 6.17544 19.6144C6.20977 19.5511 6.25698 19.5018 6.31705 19.4664C6.3782 19.431 6.449 19.4132 6.52946 19.4132C6.60778 19.4132 6.6759 19.431 6.73383 19.4664C6.79176 19.5007 6.83682 19.5468 6.869 19.6047C6.90118 19.6627 6.91728 19.7265 6.91728 19.7962C6.91728 19.807 6.91674 19.8188 6.91567 19.8316C6.91567 19.8434 6.91513 19.8568 6.91406 19.8719H6.29291C6.29828 19.9491 6.32349 20.0081 6.36854 20.0489C6.41467 20.0886 6.46778 20.1084 6.52785 20.1084C6.57613 20.1084 6.61636 20.0977 6.64854 20.0762C6.6818 20.0537 6.70647 20.0237 6.72256 19.9861H6.89314C6.87168 20.0612 6.82877 20.124 6.7644 20.1744C6.70111 20.2248 6.62226 20.25 6.52785 20.25ZM6.52785 19.5532C6.471 19.5532 6.42057 19.5704 6.37659 19.6047C6.33261 19.638 6.30579 19.6884 6.29613 19.756H6.7467C6.74348 19.6938 6.72149 19.6444 6.68073 19.608C6.63996 19.5715 6.589 19.5532 6.52785 19.5532ZM7.15145 20.5847L7.34294 20.1647H7.29627L6.98088 19.4326H7.16593L7.41053 20.0231L7.66639 19.4326H7.84661L7.33168 20.5847H7.15145ZM8.39873 20.2307V19.1043H8.78654C8.87558 19.1043 8.94853 19.1193 9.00539 19.1493C9.06332 19.1794 9.10623 19.2201 9.13412 19.2716C9.16201 19.3221 9.17596 19.3784 9.17596 19.4406C9.17596 19.5103 9.15719 19.5736 9.11964 19.6305C9.08316 19.6873 9.02577 19.7281 8.94746 19.7528L9.18722 20.2307H8.9893L8.77045 19.7769H8.5693V20.2307H8.39873ZM8.5693 19.6482H8.77688C8.85412 19.6482 8.91045 19.6294 8.94585 19.5919C8.98232 19.5543 9.00056 19.5055 9.00056 19.4454C9.00056 19.3854 8.98286 19.3376 8.94746 19.3022C8.91206 19.2657 8.85466 19.2475 8.77527 19.2475H8.5693V19.6482ZM9.69593 20.25C9.61976 20.25 9.5511 20.2329 9.48995 20.1985C9.42988 20.1631 9.38214 20.1143 9.34673 20.0521C9.31133 19.9888 9.29363 19.9153 9.29363 19.8316C9.29363 19.748 9.31133 19.675 9.34673 19.6128C9.38321 19.5495 9.43202 19.5007 9.49317 19.4664C9.55432 19.431 9.62244 19.4132 9.69754 19.4132C9.7737 19.4132 9.84183 19.431 9.9019 19.4664C9.96305 19.5007 10.0113 19.5495 10.0467 19.6128C10.0832 19.675 10.1014 19.748 10.1014 19.8316C10.1014 19.9153 10.0832 19.9888 10.0467 20.0521C10.0113 20.1143 9.96305 20.1631 9.9019 20.1985C9.84075 20.2329 9.77209 20.25 9.69593 20.25ZM9.69593 20.1036C9.73669 20.1036 9.77424 20.0934 9.80857 20.073C9.84397 20.0526 9.8724 20.0226 9.89386 19.9829C9.91531 19.9421 9.92604 19.8917 9.92604 19.8316C9.92604 19.7716 9.91531 19.7217 9.89386 19.682C9.87347 19.6412 9.84558 19.6106 9.81018 19.5903C9.77585 19.5699 9.7383 19.5597 9.69754 19.5597C9.65677 19.5597 9.61869 19.5699 9.58328 19.5903C9.54895 19.6106 9.52106 19.6412 9.49961 19.682C9.47815 19.7217 9.46742 19.7716 9.46742 19.8316C9.46742 19.8917 9.47815 19.9421 9.49961 19.9829C9.52106 20.0226 9.54895 20.0526 9.58328 20.073C9.61761 20.0934 9.65516 20.1036 9.69593 20.1036ZM10.7349 20.25C10.6726 20.25 10.6174 20.2377 10.5691 20.213C10.5219 20.1883 10.4844 20.1535 10.4565 20.1084L10.4388 20.2307H10.2859V19.0721H10.4565V19.5565C10.4822 19.5189 10.5176 19.4857 10.5627 19.4567C10.6077 19.4277 10.6657 19.4132 10.7365 19.4132C10.8137 19.4132 10.8818 19.4315 10.9408 19.468C10.9998 19.5044 11.046 19.5543 11.0792 19.6176C11.1136 19.6809 11.1307 19.7528 11.1307 19.8332C11.1307 19.9137 11.1136 19.9856 11.0792 20.0489C11.046 20.1111 10.9998 20.1604 10.9408 20.1969C10.8818 20.2323 10.8132 20.25 10.7349 20.25ZM10.7059 20.102C10.7789 20.102 10.8389 20.0773 10.8861 20.028C10.9333 19.9775 10.9569 19.9121 10.9569 19.8316C10.9569 19.7791 10.9462 19.7324 10.9247 19.6916C10.9033 19.6509 10.8738 19.6192 10.8362 19.5967C10.7987 19.5731 10.7552 19.5613 10.7059 19.5613C10.633 19.5613 10.5729 19.5865 10.5257 19.6369C10.4795 19.6873 10.4565 19.7523 10.4565 19.8316C10.4565 19.9121 10.4795 19.9775 10.5257 20.028C10.5729 20.0773 10.633 20.102 10.7059 20.102ZM11.6885 20.25C11.6102 20.25 11.5405 20.2329 11.4794 20.1985C11.4193 20.1631 11.3721 20.1143 11.3377 20.0521C11.3034 19.9899 11.2862 19.9175 11.2862 19.8349C11.2862 19.7512 11.3029 19.6777 11.3361 19.6144C11.3705 19.5511 11.4177 19.5018 11.4777 19.4664C11.5389 19.431 11.6097 19.4132 11.6902 19.4132C11.7685 19.4132 11.8366 19.431 11.8945 19.4664C11.9524 19.5007 11.9975 19.5468 12.0297 19.6047C12.0619 19.6627 12.078 19.7265 12.078 19.7962C12.078 19.807 12.0774 19.8188 12.0764 19.8316C12.0764 19.8434 12.0758 19.8568 12.0747 19.8719H11.4536C11.459 19.9491 11.4842 20.0081 11.5292 20.0489C11.5754 20.0886 11.6285 20.1084 11.6885 20.1084C11.7368 20.1084 11.777 20.0977 11.8092 20.0762C11.8425 20.0537 11.8672 20.0237 11.8833 19.9861H12.0538C12.0324 20.0612 11.9895 20.124 11.9251 20.1744C11.8618 20.2248 11.7829 20.25 11.6885 20.25ZM11.6885 19.5532C11.6317 19.5532 11.5813 19.5704 11.5373 19.6047C11.4933 19.638 11.4665 19.6884 11.4568 19.756H11.9074C11.9042 19.6938 11.8822 19.6444 11.8414 19.608C11.8007 19.5715 11.7497 19.5532 11.6885 19.5532ZM12.2549 20.2307V19.4326H12.4078L12.4223 19.5838C12.4502 19.5313 12.4888 19.49 12.5382 19.4599C12.5886 19.4288 12.6492 19.4132 12.72 19.4132V19.5919H12.6733C12.6261 19.5919 12.5838 19.5999 12.5462 19.616C12.5097 19.631 12.4802 19.6573 12.4577 19.6949C12.4363 19.7313 12.4255 19.7823 12.4255 19.8477V20.2307H12.2549ZM13.201 20.2307C13.1226 20.2307 13.0604 20.2119 13.0143 20.1744C12.9682 20.1358 12.9451 20.0676 12.9451 19.97V19.5758H12.8083V19.4326H12.9451L12.966 19.2298H13.1157V19.4326H13.341V19.5758H13.1157V19.97C13.1157 20.014 13.1248 20.0446 13.143 20.0617C13.1623 20.0778 13.1951 20.0859 13.2412 20.0859H13.3329V20.2307H13.201Z" fill="white"/>
<defs>
<linearGradient id="paint0_linear_687_8657" x1="4.16481" y1="26.7975" x2="33.7391" y2="-2.90541" gradientUnits="userSpaceOnUse">
<stop stop-color="#00252E"/>
<stop offset="1" stop-color="#83F8A6"/>
</linearGradient>
<linearGradient id="paint1_linear_687_8657" x1="1.67892" y1="18.1035" x2="26.3372" y2="18.0905" gradientUnits="userSpaceOnUse">
<stop stop-color="#02CAFD"/>
<stop offset="1" stop-color="#83F8A6"/>
</linearGradient>
<linearGradient id="paint2_linear_687_8657" x1="-4.41734" y1="14.5459" x2="7.50543" y2="2.5637" gradientUnits="userSpaceOnUse">
<stop stop-color="#02CAFD"/>
<stop offset="1" stop-color="#83F8A6"/>
</linearGradient>
<linearGradient id="paint3_linear_687_8657" x1="12.3189" y1="2.00863" x2="16.2498" y2="-2.78131" gradientUnits="userSpaceOnUse">
<stop stop-color="#02CAFD"/>
<stop offset="1" stop-color="#83F8A6"/>
</linearGradient>
<linearGradient id="paint4_linear_687_8657" x1="59.0908" y1="22.7502" x2="17.0616" y2="-2.34871" gradientUnits="userSpaceOnUse">
<stop stop-color="#02CAFD"/>
<stop offset="1" stop-color="#83F8A6"/>
</linearGradient>
</defs>
</svg>
