<svg width="44" height="32" viewBox="0 0 44 32" fill="none" xmlns="http://www.w3.org/2000/svg">
<g filter="url(#filter0_ii_1067_7067)">
<path d="M0 4.48115C0 2.1902 1.87614 0.333008 4.19048 0.333008H39.8095C42.1239 0.333008 44 2.1902 44 4.48116V27.4312C44 29.7222 42.1239 31.5794 39.8095 31.5794H4.19048C1.87614 31.5794 0 29.7222 0 27.4312V4.48115Z" fill="#CDC9C1"/>
<path d="M0 4.48115C0 2.1902 1.87614 0.333008 4.19048 0.333008H39.8095C42.1239 0.333008 44 2.1902 44 4.48116V27.4312C44 29.7222 42.1239 31.5794 39.8095 31.5794H4.19048C1.87614 31.5794 0 29.7222 0 27.4312V4.48115Z" fill="url(#paint0_radial_1067_7067)" fill-opacity="0.1"/>
<path d="M0 4.48115C0 2.1902 1.87614 0.333008 4.19048 0.333008H39.8095C42.1239 0.333008 44 2.1902 44 4.48116V27.4312C44 29.7222 42.1239 31.5794 39.8095 31.5794H4.19048C1.87614 31.5794 0 29.7222 0 27.4312V4.48115Z" fill="url(#paint1_radial_1067_7067)" fill-opacity="0.1"/>
<path d="M0 4.48115C0 2.1902 1.87614 0.333008 4.19048 0.333008H39.8095C42.1239 0.333008 44 2.1902 44 4.48116V27.4312C44 29.7222 42.1239 31.5794 39.8095 31.5794H4.19048C1.87614 31.5794 0 29.7222 0 27.4312V4.48115Z" fill="url(#paint2_radial_1067_7067)" fill-opacity="0.1"/>
</g>
<mask id="mask0_1067_7067" style="mask-type:alpha" maskUnits="userSpaceOnUse" x="0" y="0" width="44" height="32">
<path d="M0 4.48115C0 2.1902 1.87614 0.333008 4.19048 0.333008H39.8095C42.1239 0.333008 44 2.1902 44 4.48116V27.4312C44 29.7222 42.1239 31.5794 39.8095 31.5794H4.19048C1.87614 31.5794 0 29.7222 0 27.4312V4.48115Z" fill="#D9D9D9"/>
</mask>
<g mask="url(#mask0_1067_7067)">
<path fill-rule="evenodd" clip-rule="evenodd" d="M-0.261719 4.21036C-0.261719 3.49443 0.324575 2.91406 1.0478 2.91406H11.3873C12.1106 2.91406 12.6969 3.49443 12.6969 4.21036V10.658C12.6969 11.3739 12.1106 11.9543 11.3873 11.9543H1.0478C0.324575 11.9543 -0.261719 11.3739 -0.261719 10.658V4.21036ZM1.0478 3.43258C0.613867 3.43258 0.262091 3.7808 0.262091 4.21036V10.658C0.262091 11.0876 0.613867 11.4358 1.0478 11.4358H11.3873C11.8213 11.4358 12.1731 11.0876 12.1731 10.658V4.21036C12.1731 3.7808 11.8213 3.43258 11.3873 3.43258H1.0478Z" fill="#10141E"/>
<path fill-rule="evenodd" clip-rule="evenodd" d="M-0.261719 12.7318C-0.261719 12.0159 0.324575 11.4355 1.0478 11.4355H11.3873C12.1106 11.4355 12.6969 12.0159 12.6969 12.7318V19.1795C12.6969 19.8954 12.1106 20.4758 11.3873 20.4758H1.0478C0.324575 20.4758 -0.261719 19.8954 -0.261719 19.1795V12.7318ZM1.0478 11.9541C0.613867 11.9541 0.262091 12.3023 0.262091 12.7318V19.1795C0.262091 19.6091 0.613867 19.9573 1.0478 19.9573H11.3873C11.8213 19.9573 12.1731 19.6091 12.1731 19.1795V12.7318C12.1731 12.3023 11.8213 11.9541 11.3873 11.9541H1.0478Z" fill="#10141E"/>
<path fill-rule="evenodd" clip-rule="evenodd" d="M15.0424 11.7846C15.0424 11.0687 15.6287 10.4883 16.3519 10.4883H30.5176C31.2408 10.4883 31.8271 11.0687 31.8271 11.7846V12.0777C31.8271 12.7936 31.2408 13.3739 30.5176 13.3739H29.7432C29.3093 13.3739 28.9575 13.7222 28.9575 14.1517V21.0728C28.9575 21.7887 28.3712 22.3691 27.648 22.3691H13.4824C12.7591 22.3691 12.1729 21.7887 12.1729 21.0728V20.3063C12.1729 19.5904 12.7591 19.01 13.4824 19.01H14.2567C14.6906 19.01 15.0424 18.6618 15.0424 18.2322V11.7846ZM16.3519 11.0068C15.918 11.0068 15.5662 11.355 15.5662 11.7846V18.2322C15.5662 18.9482 14.9799 19.5285 14.2567 19.5285H13.4824C13.0484 19.5285 12.6967 19.8768 12.6967 20.3063V21.0728C12.6967 21.5024 13.0484 21.8506 13.4824 21.8506H27.648C28.0819 21.8506 28.4337 21.5024 28.4337 21.0728V14.1517C28.4337 13.4358 29.02 12.8554 29.7432 12.8554H30.5176C30.9515 12.8554 31.3033 12.5072 31.3033 12.0777V11.7846C31.3033 11.355 30.9515 11.0068 30.5176 11.0068H16.3519Z" fill="#10141E"/>
<path fill-rule="evenodd" clip-rule="evenodd" d="M-0.261719 21.2533C-0.261719 20.5374 0.324575 19.957 1.0478 19.957H11.3873C12.1106 19.957 12.6969 20.5374 12.6969 21.2533V27.701C12.6969 28.4169 12.1106 28.9973 11.3873 28.9973H1.0478C0.324575 28.9973 -0.261719 28.4169 -0.261719 27.701V21.2533ZM1.0478 20.4755C0.613867 20.4755 0.262091 20.8238 0.262091 21.2533V27.701C0.262091 28.1305 0.613867 28.4788 1.0478 28.4788H11.3873C11.8213 28.4788 12.1731 28.1305 12.1731 27.701V21.2533C12.1731 20.8238 11.8213 20.4755 11.3873 20.4755H1.0478Z" fill="#10141E"/>
<path fill-rule="evenodd" clip-rule="evenodd" d="M31.3027 4.21036C31.3027 3.49443 31.889 2.91406 32.6123 2.91406H42.9518C43.675 2.91406 44.2613 3.49443 44.2613 4.21036V10.658C44.2613 11.3739 43.675 11.9543 42.9518 11.9543H32.6123C31.889 11.9543 31.3027 11.3739 31.3027 10.658V4.21036ZM32.6123 3.43258C32.1783 3.43258 31.8265 3.7808 31.8265 4.21036V10.658C31.8265 11.0876 32.1783 11.4358 32.6123 11.4358H42.9518C43.3857 11.4358 43.7375 11.0876 43.7375 10.658V4.21036C43.7375 3.7808 43.3857 3.43258 42.9518 3.43258H32.6123Z" fill="#10141E"/>
<path fill-rule="evenodd" clip-rule="evenodd" d="M31.3027 12.7318C31.3027 12.0159 31.889 11.4355 32.6123 11.4355H42.9518C43.675 11.4355 44.2613 12.0159 44.2613 12.7318V19.1795C44.2613 19.8954 43.675 20.4758 42.9518 20.4758H32.6123C31.889 20.4758 31.3027 19.8954 31.3027 19.1795V12.7318ZM32.6123 11.9541C32.1783 11.9541 31.8265 12.3023 31.8265 12.7318V19.1795C31.8265 19.6091 32.1783 19.9573 32.6123 19.9573H42.9518C43.3857 19.9573 43.7375 19.6091 43.7375 19.1795V12.7318C43.7375 12.3023 43.3857 11.9541 42.9518 11.9541H32.6123Z" fill="#10141E"/>
<path fill-rule="evenodd" clip-rule="evenodd" d="M31.3027 21.2533C31.3027 20.5374 31.889 19.957 32.6123 19.957H42.9518C43.675 19.957 44.2613 20.5374 44.2613 21.2533V27.701C44.2613 28.4169 43.675 28.9973 42.9518 28.9973H32.6123C31.889 28.9973 31.3027 28.4169 31.3027 27.701V21.2533ZM32.6123 20.4755C32.1783 20.4755 31.8265 20.8238 31.8265 21.2533V27.701C31.8265 28.1305 32.1783 28.4788 32.6123 28.4788H42.9518C43.3857 28.4788 43.7375 28.1305 43.7375 27.701V21.2533C43.7375 20.8238 43.3857 20.4755 42.9518 20.4755H32.6123Z" fill="#10141E"/>
</g>
<defs>
<filter id="filter0_ii_1067_7067" x="0" y="0.333008" width="44" height="31.2461" filterUnits="userSpaceOnUse" color-interpolation-filters="sRGB">
<feFlood flood-opacity="0" result="BackgroundImageFix"/>
<feBlend mode="normal" in="SourceGraphic" in2="BackgroundImageFix" result="shape"/>
<feColorMatrix in="SourceAlpha" type="matrix" values="0 0 0 0 0 0 0 0 0 0 0 0 0 0 0 0 0 0 127 0" result="hardAlpha"/>
<feOffset dx="-0.514019" dy="-0.514019"/>
<feComposite in2="hardAlpha" operator="arithmetic" k2="-1" k3="1"/>
<feColorMatrix type="matrix" values="0 0 0 0 0.184314 0 0 0 0 0.152941 0 0 0 0 0.0941176 0 0 0 0.2 0"/>
<feBlend mode="normal" in2="shape" result="effect1_innerShadow_1067_7067"/>
<feColorMatrix in="SourceAlpha" type="matrix" values="0 0 0 0 0 0 0 0 0 0 0 0 0 0 0 0 0 0 127 0" result="hardAlpha"/>
<feOffset dx="0.514019" dy="0.514019"/>
<feComposite in2="hardAlpha" operator="arithmetic" k2="-1" k3="1"/>
<feColorMatrix type="matrix" values="0 0 0 0 0.184314 0 0 0 0 0.152941 0 0 0 0 0.0941176 0 0 0 0.2 0"/>
<feBlend mode="normal" in2="effect1_innerShadow_1067_7067" result="effect2_innerShadow_1067_7067"/>
</filter>
<radialGradient id="paint0_radial_1067_7067" cx="0" cy="0" r="1" gradientUnits="userSpaceOnUse" gradientTransform="translate(11 0.333007) rotate(70.6058) scale(33.1261 46.5435)">
<stop stop-color="#C29632"/>
<stop offset="1" stop-color="#C29632" stop-opacity="0"/>
</radialGradient>
<radialGradient id="paint1_radial_1067_7067" cx="0" cy="0" r="1" gradientUnits="userSpaceOnUse" gradientTransform="translate(44 16.4296) rotate(145.448) scale(26.7117 37.1016)">
<stop stop-color="#664700"/>
<stop offset="1" stop-color="#664700"/>
</radialGradient>
<radialGradient id="paint2_radial_1067_7067" cx="0" cy="0" r="1" gradientUnits="userSpaceOnUse" gradientTransform="translate(5.73913 31.5794) rotate(-21.6016) scale(41.1511 56.9405)">
<stop stop-color="#402200"/>
<stop offset="1" stop-color="#402200" stop-opacity="0"/>
</radialGradient>
</defs>
</svg>
