<svg width="50" height="50" viewBox="0 0 50 50" fill="none" xmlns="http://www.w3.org/2000/svg">
<rect y="2" width="48" height="48" rx="16" fill="#4CD080"/>
<path d="M20 30L28 22" stroke="white" stroke-width="2" stroke-linecap="round" stroke-linejoin="round"/>
<path d="M20.6667 23.3333C21.0349 23.3333 21.3333 23.0349 21.3333 22.6667C21.3333 22.2985 21.0349 22 20.6667 22C20.2985 22 20 22.2985 20 22.6667C20 23.0349 20.2985 23.3333 20.6667 23.3333Z" fill="white" stroke="white" stroke-width="2" stroke-linecap="round" stroke-linejoin="round"/>
<path d="M27.3332 30C27.7014 30 27.9998 29.7015 27.9998 29.3333C27.9998 28.9651 27.7014 28.6666 27.3332 28.6666C26.965 28.6666 26.6665 28.9651 26.6665 29.3333C26.6665 29.7015 26.965 30 27.3332 30Z" fill="white" stroke="white" stroke-width="2" stroke-linecap="round" stroke-linejoin="round"/>
<path d="M14.6665 19.6C14.6665 18.822 14.9756 18.0759 15.5257 17.5258C16.0758 16.9757 16.8219 16.6667 17.5999 16.6667H18.9332C19.7077 16.6662 20.4507 16.3595 20.9999 15.8133L21.9332 14.88C22.2058 14.6059 22.5299 14.3883 22.8869 14.2399C23.2438 14.0914 23.6266 14.015 24.0132 14.015C24.3998 14.015 24.7826 14.0914 25.1396 14.2399C25.4965 14.3883 25.8206 14.6059 26.0932 14.88L27.0265 15.8133C27.5758 16.3595 28.3187 16.6662 29.0932 16.6667H30.4265C31.2045 16.6667 31.9506 16.9757 32.5007 17.5258C33.0508 18.0759 33.3599 18.822 33.3599 19.6V20.9333C33.3603 21.7079 33.6671 22.4508 34.2132 23L35.1465 23.9333C35.4207 24.2059 35.6382 24.53 35.7867 24.887C35.9351 25.244 36.0115 25.6267 36.0115 26.0133C36.0115 26.3999 35.9351 26.7827 35.7867 27.1397C35.6382 27.4966 35.4207 27.8207 35.1465 28.0933L34.2132 29.0267C33.6671 29.5759 33.3603 30.3188 33.3599 31.0933V32.4267C33.3599 33.2046 33.0508 33.9507 32.5007 34.5009C31.9506 35.051 31.2045 35.36 30.4265 35.36H29.0932C28.3187 35.3604 27.5758 35.6672 27.0265 36.2133L26.0932 37.1467C25.8206 37.4208 25.4965 37.6383 25.1396 37.7868C24.7826 37.9352 24.3998 38.0117 24.0132 38.0117C23.6266 38.0117 23.2438 37.9352 22.8869 37.7868C22.5299 37.6383 22.2058 37.4208 21.9332 37.1467L20.9999 36.2133C20.4507 35.6672 19.7077 35.3604 18.9332 35.36H17.5999C16.8219 35.36 16.0758 35.051 15.5257 34.5009C14.9756 33.9507 14.6665 33.2046 14.6665 32.4267V31.0933C14.6661 30.3188 14.3594 29.5759 13.8132 29.0267L12.8799 28.0933C12.6057 27.8207 12.3882 27.4966 12.2398 27.1397C12.0913 26.7827 12.0149 26.3999 12.0149 26.0133C12.0149 25.6267 12.0913 25.244 12.2398 24.887C12.3882 24.53 12.6057 24.2059 12.8799 23.9333L13.8132 23C14.3594 22.4508 14.6661 21.7079 14.6665 20.9333V19.6" stroke="white" stroke-width="2" stroke-linecap="round" stroke-linejoin="round"/>
<circle cx="44" cy="6" r="5" fill="#FFAE58" stroke="#EDFAF2" stroke-width="2"/>
</svg>
