<svg width="44" height="44" viewBox="0 0 44 44" fill="none" xmlns="http://www.w3.org/2000/svg">
<circle cx="22" cy="22" r="22" fill="white"/>
<path d="M31.5 18.488V26.875C31.5 28.325 30.325 29.5 28.875 29.5H15.125C14.4288 29.5 13.7611 29.2234 13.2688 28.7312C12.7766 28.2389 12.5 27.5712 12.5 26.875V18.488L21.699 23.548C21.8865 23.651 22.114 23.651 22.301 23.548L31.5 18.4875V18.488ZM28.875 14.5C29.5602 14.5001 30.2183 14.7681 30.7086 15.2468C31.1989 15.7255 31.4826 16.377 31.499 17.062L22 22.287L12.501 17.0615L12.502 17.0165C12.53 16.3396 12.8186 15.6998 13.3075 15.2308C13.7963 14.7618 14.4475 14.4999 15.125 14.5H28.875Z" fill="#222222"/>
</svg>
