<svg width="24" height="24" viewBox="0 0 24 24" fill="none" xmlns="http://www.w3.org/2000/svg">
<circle cx="12" cy="12" r="12" fill="#262D38"/>
<path d="M14.79 17.2655L13.176 15.6505C12.5518 15.8737 11.8771 15.915 11.2304 15.7697C10.5837 15.6244 9.99153 15.2984 9.52282 14.8297C9.05411 14.361 8.72814 13.7688 8.58283 13.1221C8.43752 12.4754 8.47885 11.8007 8.702 11.1765L6.642 9.11652C4.938 10.6315 4 12.3535 4 12.3535C4 12.3535 7 17.8535 12 17.8535C12.9604 17.8502 13.9099 17.6501 14.79 17.2655ZM9.21 7.44152C10.0901 7.05694 11.0396 6.85682 12 6.85352C17 6.85352 20 12.3535 20 12.3535C20 12.3535 19.061 14.0745 17.359 15.5915L15.297 13.5295C15.5202 12.9054 15.5615 12.2307 15.4162 11.5839C15.2709 10.9372 14.9449 10.345 14.4762 9.87634C14.0075 9.40763 13.4153 9.08166 12.7686 8.93635C12.1219 8.79103 11.4472 8.83236 10.823 9.05552L9.21 7.44252V7.44152Z" fill="white"/>
<path d="M9.525 12C9.46999 12.3843 9.50524 12.7762 9.62796 13.1445C9.75068 13.5128 9.95749 13.8475 10.232 14.122C10.5065 14.3965 10.8412 14.6033 11.2095 14.726C11.5778 14.8488 11.9697 14.884 12.354 14.829L9.524 12H9.525ZM14.475 12.708L11.646 9.878C12.0303 9.82299 12.4221 9.85824 12.7905 9.98096C13.1588 10.1037 13.4935 10.3105 13.768 10.585C14.0425 10.8595 14.2493 11.1942 14.372 11.5625C14.4948 11.9309 14.53 12.3227 14.475 12.707V12.708ZM17.646 18.708L5.646 6.708L6.354 6L18.354 18L17.646 18.708Z" fill="white"/>
</svg>
