<svg width="52" height="16" viewBox="0 0 52 16" fill="none" xmlns="http://www.w3.org/2000/svg">
<path d="M48.6049 0H45.3848C44.3868 0 43.6255 0.272356 43.1934 1.24075L37 15H41.3827C41.3827 15 42.1029 13.154 42.2675 12.7505H47.6173C47.751 13.2751 48.1214 15 48.1214 15H52L48.6049 0ZM43.4609 9.68392C43.8004 8.8164 45.107 5.48756 45.107 5.48756C45.107 5.48756 45.4671 4.59987 45.6729 4.05515L45.9506 5.35642C45.9506 5.35642 46.7634 8.92736 46.9177 9.68392H43.4609Z" fill="white"/>
<path d="M31.2969 4.56994C31.2862 5.29864 32.227 5.7775 33.7344 6.49578C36.236 7.59923 37.3906 8.94211 37.3692 10.7118C37.3372 13.9284 34.3865 16 29.8215 16C27.8865 15.9792 26.0049 15.594 25 15.1776L25.6094 11.7007L26.1653 11.9506C27.5765 12.5231 28.5066 12.7625 30.2492 12.7625C31.4893 12.7625 32.8257 12.2837 32.8364 11.2531C32.847 10.566 32.2804 10.0768 30.5913 9.31685C28.9449 8.57775 26.764 7.33898 26.7853 5.11126C26.8067 2.1028 29.8322 0 34.1086 0C35.787 0 37.1447 0.333122 38 0.655828L37.412 4.00781L37.0272 3.83085C36.2254 3.51855 35.199 3.21666 33.7878 3.23748C32.088 3.23748 31.2969 3.93494 31.2969 4.56994Z" fill="white"/>
<path d="M25 0L22.2913 15H18L20.6874 0H25Z" fill="white"/>
<path d="M10 8C8.57595 4.46726 5.16878 1.53017 0 0.308091L0.0527459 0H6.68776C7.58439 0.0308088 8.30169 0.308079 8.55486 1.24261L10 8Z" fill="white"/>
<path d="M19 0.0100887L12.3019 15H7.80504L4 2.48317C6.73585 4.16891 9.06289 6.84388 9.88051 8.70122L10.3312 10.2456L14.4927 0H19V0.0100887Z" fill="white"/>
</svg>
