<?xml version="1.0" ?><!DOCTYPE svg  PUBLIC '-//W3C//DTD SVG 1.1//EN'  'http://www.w3.org/Graphics/SVG/1.1/DTD/svg11.dtd'><svg height="512px" style="enable-background:new 0 0 512 512;" version="1.1" viewBox="0 0 512 512" width="512px" xml:space="preserve" xmlns="http://www.w3.org/2000/svg" xmlns:xlink="http://www.w3.org/1999/xlink"><g id="_x36_82_x2C__Cash_x2C__dollar_x2C__finance_x2C__funds_x2C__money"><g><path d="M247.426,279.637c1.709-0.377,3.099-1.188,4.169-2.434    c1.07-1.273,1.593-2.723,1.593-4.432c0-1.506-0.435-2.81-1.348-3.91c-0.881-1.102-2.358-1.94-4.415-2.521V279.637z     M242.485,243.456c-1.33,0.493-2.376,1.246-3.141,2.347c-0.782,1.102-1.158,2.289-1.158,3.592c0,1.188,0.348,2.318,1.042,3.332    c0.709,1.043,1.793,1.854,3.257,2.49V243.456z M242.485,279.057v-14.192c-4.415-1.246-7.647-3.159-9.704-5.736    s-3.085-5.677-3.085-9.327c0-3.707,1.158-6.836,3.506-9.357c2.316-2.52,5.416-3.968,9.283-4.345v-3.331h4.941v3.331    c3.618,0.435,6.486,1.651,8.63,3.68c2.144,2.026,3.505,4.75,4.099,8.14l-8.633,1.101c-0.534-2.665-1.895-4.46-4.096-5.417v13.238    c5.458,1.478,9.181,3.389,11.15,5.706c1.986,2.347,2.969,5.359,2.969,9.009c0,4.084-1.229,7.531-3.734,10.341    c-2.491,2.81-5.938,4.548-10.384,5.243v6.344h-4.941v-6.285c-3.896-0.464-7.054-1.911-9.5-4.317    c-2.446-2.432-3.998-5.851-4.678-10.282l8.833-1.043c0.347,1.825,1.045,3.361,2.028,4.692    C240.183,277.551,241.271,278.478,242.485,279.057z M485.999,109.6H107.818v6.314h368.736c1.969,0,3.563,1.594,3.563,3.563V308.98    h5.882V109.6z M472.992,312.631v-0.088V123.04H104.256h-0.102h-9.328v6.345h368.736c1.969,0,3.563,1.592,3.563,3.563v189.502    h5.867V312.631z M460.015,326.1v-0.115V136.51H91.264h-0.088H81.82v6.314h368.75c1.969,0,3.563,1.594,3.563,3.564v189.502h5.882    V326.1z M447.008,339.541v-0.088V149.951H78.258H78.17h-9.342v6.344h368.737c1.969,0,3.562,1.593,3.562,3.563V349.36h5.882    V339.541z M434.002,353.011v-0.116V163.42H65.266h-0.088h-9.342v199.381h378.167V353.011z M279.058,228.973    c-8.735-8.748-20.801-14.135-34.123-14.135c-13.252,0-25.261,5.329-33.965,13.933l-0.189,0.202    c-8.718,8.749-14.136,20.799-14.136,34.152c0,13.326,5.404,25.404,14.136,34.123c8.721,8.749,20.801,14.137,34.154,14.137    c13.322,0,25.388-5.418,34.123-14.137c8.745-8.719,14.136-20.797,14.136-34.123C293.193,249.771,287.803,237.722,279.058,228.973z     M244.935,207.422c15.364,0,29.283,6.229,39.366,16.308c10.079,10.081,16.309,24.014,16.309,39.396    c0,15.353-6.229,29.287-16.309,39.366c-10.083,10.081-23.984,16.309-39.366,16.309c-15.382,0-29.287-6.228-39.366-16.309    l-0.087-0.086c-10.038-10.081-16.253-23.956-16.253-39.28c0-15.41,6.229-29.314,16.309-39.396l0.231-0.202    C215.823,213.563,229.668,207.422,244.935,207.422z M377.225,186.449H112.641c-0.853,8.777-4.808,16.715-10.732,22.625    c-5.924,5.938-13.859,9.877-22.636,10.716v86.612c8.777,0.841,16.712,4.809,22.636,10.746c5.924,5.91,9.879,13.847,10.732,22.624    h264.584c0.843-8.777,4.78-16.714,10.719-22.624c5.924-5.938,13.849-9.905,22.653-10.746V219.79    c-8.805-0.839-16.729-4.778-22.653-10.716C382.005,203.164,378.067,195.227,377.225,186.449z M71,386.496    c-1.955,0-3.562-1.623-3.562-3.563c0-1.969,1.607-3.563,3.562-3.563h230.638c1.954,0,3.562,1.594,3.562,3.563    c0,1.94-1.607,3.563-3.562,3.563H71z M193.155,402.399c-1.955,0-3.562-1.593-3.562-3.563c0-1.941,1.607-3.534,3.562-3.534h181.146    c1.954,0,3.562,1.593,3.562,3.534c0,1.971-1.607,3.563-3.562,3.563H193.155z M392.839,402.399c-1.969,0-3.562-1.593-3.562-3.563    c0-1.941,1.593-3.534,3.562-3.534h22.654c1.954,0,3.562,1.593,3.562,3.534c0,1.971-1.607,3.563-3.562,3.563H392.839z     M29.563,401.937c-1.969,0-3.562-1.593-3.562-3.563c0-1.969,1.593-3.563,3.562-3.563h85.829c1.969,0,3.562,1.594,3.562,3.563    c0,1.971-1.593,3.563-3.562,3.563H29.563z M109.25,179.324h271.365c1.955,0,3.549,1.593,3.549,3.562    c0,8.228,3.375,15.729,8.818,21.146c5.419,5.446,12.923,8.835,21.177,8.835c1.955,0,3.563,1.594,3.563,3.564v93.359    c0,1.971-1.607,3.564-3.563,3.564c-8.254,0-15.758,3.388-21.177,8.805c-5.443,5.445-8.818,12.948-8.818,21.175    c0,1.97-1.594,3.563-3.549,3.563H109.25c-1.969,0-3.563-1.594-3.563-3.563c0-8.227-3.39-15.729-8.819-21.175    c-5.433-5.417-12.936-8.805-21.162-8.805c-1.969,0-3.562-1.594-3.562-3.564v-93.359c0-1.971,1.593-3.564,3.562-3.564    c8.226,0,15.729-3.389,21.162-8.835c5.429-5.417,8.819-12.919,8.819-21.146C105.688,180.917,107.281,179.324,109.25,179.324z" style="fill-rule:evenodd;clip-rule:evenodd;"/></g></g><g id="Layer_1"/></svg>