<svg width="15" height="15" viewBox="0 0 15 15" fill="none" xmlns="http://www.w3.org/2000/svg">
<path d="M10.4427 11.1811V14.8667H12.8997C13.9175 14.8667 14.7426 14.0417 14.7426 13.0239V7.42113C14.7427 7.102 14.6187 6.79535 14.3967 6.56606L9.17664 0.922713C8.25557 -0.0738498 6.70104 -0.135037 5.70448 0.786027C5.65714 0.829794 5.61153 0.875375 5.56779 0.922713L0.356902 6.56422C0.12822 6.79445 -8.63386e-05 7.10583 4.35893e-08 7.43034V13.0239C4.35893e-08 14.0417 0.825065 14.8667 1.84282 14.8667H4.2999V11.1811C4.31139 9.50608 5.66376 8.13824 7.29659 8.09885C8.98403 8.05814 10.4298 9.44927 10.4427 11.1811Z" fill="white"/>
<svg width="24" height="24" viewBox="0 0 24 24" fill="none" xmlns="http://www.w3.org/2000/svg">
<path d="M12.0026 1.5C12.5 1.5 12.9225 1.81036 13 1.8907L21.8714 11.0574C21.9121 11.0996 21.9445 11.1503 21.9666 11.2065C21.9887 11.2626 22.0001 11.323 22 11.384V20.6949C22 21.1736 21.8245 21.6328 21.5121 21.9713C21.1996 22.3098 20.7759 22.5 20.334 22.5H15.333H14.5H14H12.001H10H9.5H9H8.6691H3.66597C3.22413 22.5 2.80038 22.3098 2.48795 21.9713C2.17552 21.6328 2 21.1736 2 20.6949L2.00156 11.384C2.0015 11.323 2.01286 11.2626 2.03496 11.2065C2.05707 11.1503 2.08945 11.0996 2.13015 11.0574L11 1.8907C11.0775 1.81036 11.5 1.5 12.0026 1.5Z" stroke="#BDBDBD" stroke-width="1.5"/>
<path d="M2 11.3L11.2789 1.74273C11.6731 1.33675 12.3252 1.33839 12.7174 1.74634L21.9 11.3" stroke="#BDBDBD" stroke-width="1.5" stroke-linecap="round"/>
<path d="M2 21.75H22C22 22.5784 21.3284 23.25 20.5 23.25H3.5C2.67157 23.25 2 22.5784 2 21.75Z" fill="#BDBDBD"/>
<path d="M9 16.5C9 15.9477 9.44772 15.5 10 15.5H14C14.5523 15.5 15 15.9477 15 16.5V22.5H9V16.5Z" stroke="#BDBDBD" stroke-width="1.5"/>
</svg>
