<svg width="22" height="24" viewBox="0 0 22 24" fill="none" xmlns="http://www.w3.org/2000/svg">
<path d="M11.0026 1.5C11.5 1.5 11.9225 1.81036 12 1.8907L20.8714 11.0574C20.9121 11.0996 20.9445 11.1503 20.9666 11.2065C20.9887 11.2626 21.0001 11.323 21 11.384V20.6949C21 21.1736 20.8245 21.6328 20.5121 21.9713C20.1996 22.3098 19.7759 22.5 19.334 22.5H14.333H13.5H13H11.001H9H8.5H8H7.6691H2.66597C2.22413 22.5 1.80038 22.3098 1.48795 21.9713C1.17552 21.6328 1 21.1736 1 20.6949L1.00156 11.384C1.0015 11.323 1.01286 11.2626 1.03496 11.2065C1.05707 11.1503 1.08945 11.0996 1.13015 11.0574L10 1.8907C10.0775 1.81036 10.5 1.5 11.0026 1.5Z" fill="#105D38" stroke="#105D38" stroke-width="1.5"/>
</svg>
