<svg width="44" height="44" viewBox="0 0 44 44" fill="none" xmlns="http://www.w3.org/2000/svg">
<rect opacity="0.1" x="1" y="1" width="42" height="42" rx="13" stroke="white" stroke-width="2"/>
<path d="M22 13.75C20.3683 13.75 18.7733 14.2339 17.4166 15.1404C16.0598 16.0469 15.0024 17.3354 14.378 18.8429C13.7536 20.3504 13.5902 22.0092 13.9085 23.6095C14.2269 25.2098 15.0126 26.6798 16.1664 27.8336C17.3202 28.9874 18.7902 29.7732 20.3905 30.0915C21.9909 30.4098 23.6497 30.2464 25.1572 29.622C26.6646 28.9976 27.9531 27.9402 28.8596 26.5835C29.7662 25.2268 30.25 23.6317 30.25 22C30.25 19.812 29.3808 17.7135 27.8336 16.1664C26.2865 14.6192 24.188 13.75 22 13.75Z" stroke="white" stroke-width="1.5" stroke-miterlimit="10"/>
<path d="M19.375 19.4822C19.375 19.4822 19.4144 18.6619 20.2923 17.9555C20.8131 17.536 21.4375 17.4146 22 17.4061C22.5123 17.3996 22.9698 17.4844 23.2436 17.6147C23.7123 17.8378 24.625 18.3825 24.625 19.5408C24.625 20.7596 23.8281 21.3132 22.9202 21.9221C22.0122 22.531 21.7656 23.1919 21.7656 23.8749" stroke="white" stroke-width="1.5" stroke-miterlimit="10" stroke-linecap="round"/>
<path d="M21.7188 27.25C22.2365 27.25 22.6562 26.8303 22.6562 26.3125C22.6562 25.7947 22.2365 25.375 21.7188 25.375C21.201 25.375 20.7812 25.7947 20.7812 26.3125C20.7812 26.8303 21.201 27.25 21.7188 27.25Z" fill="white"/>
</svg>
