<svg width="15" height="15" viewBox="0 0 15 15" fill="none" xmlns="http://www.w3.org/2000/svg">
<path d="M10.4427 11.1811V14.8667H12.8997C13.9175 14.8667 14.7426 14.0417 14.7426 13.0239V7.42113C14.7427 7.102 14.6187 6.79535 14.3967 6.56606L9.17664 0.922713C8.25557 -0.0738498 6.70104 -0.135037 5.70448 0.786027C5.65714 0.829794 5.61153 0.875375 5.56779 0.922713L0.356902 6.56422C0.12822 6.79445 -8.63386e-05 7.10583 4.35893e-08 7.43034V13.0239C4.35893e-08 14.0417 0.825065 14.8667 1.84282 14.8667H4.2999V11.1811C4.31139 9.50608 5.66376 8.13824 7.29659 8.09885C8.98403 8.05814 10.4298 9.44927 10.4427 11.1811Z" fill="#263238"/>
<path d="M7.37132 9.33821C6.35357 9.33821 5.5285 10.1633 5.5285 11.181V14.8667H9.21414V11.181C9.21414 10.1633 8.38908 9.33821 7.37132 9.33821Z" fill="#263238"/>
</svg>
