<svg width="15" height="15" viewBox="0 0 15 15" fill="none" xmlns="http://www.w3.org/2000/svg">
<path d="M10.4427 11.1811V14.8667H12.8997C13.9175 14.8667 14.7426 14.0417 14.7426 13.0239V7.42114C14.7427 7.10202 14.6187 6.79536 14.3967 6.56608L9.17664 0.922728C8.25557 -0.0738345 6.70104 -0.135022 5.70448 0.786043C5.65714 0.829809 5.61153 0.87539 5.56779 0.922728L0.356902 6.56423C0.12822 6.79447 -8.63386e-05 7.10585 4.35893e-08 7.43036V13.0239C4.35893e-08 14.0417 0.825065 14.8667 1.84282 14.8667H4.2999V11.1811C4.31139 9.50609 5.66376 8.13826 7.29659 8.09887C8.98403 8.05816 10.4298 9.44928 10.4427 11.1811Z" fill="white"/>
</svg>
