<svg width="20" height="22" viewBox="0 0 20 22" fill="none" xmlns="http://www.w3.org/2000/svg">
<path d="M16 7.5C16 5.9087 15.3679 4.38258 14.2426 3.25736C13.1174 2.13214 11.5913 1.5 10 1.5C8.4087 1.5 6.88258 2.13214 5.75736 3.25736C4.63214 4.38258 4 5.9087 4 7.5C4 12.7109 2.33756 15.151 1.48775 16.058C1.35245 16.2024 1.46267 16.5 1.66056 16.5H18.3394C18.5373 16.5 18.6475 16.2024 18.5122 16.058C17.6624 15.151 16 12.7109 16 7.5Z" fill="#FFD12E" stroke="#FFD12E" stroke-width="1.5" stroke-linecap="round" stroke-linejoin="round"/>
<path d="M13 18.5C12.6951 19.1083 12.2575 19.6132 11.731 19.9642C11.2045 20.3153 10.6076 20.5 10 20.5C9.39241 20.5 8.79547 20.3153 8.26897 19.9642C7.74247 19.6132 7.30487 19.1083 7 18.5" stroke="#FFD12E" stroke-width="1.5" stroke-linecap="round" stroke-linejoin="round"/>
</svg>
