<svg width="15" height="16" viewBox="0 0 15 16" fill="none" xmlns="http://www.w3.org/2000/svg">
<path d="M8.16383 0.774491C7.98775 0.598734 7.74897 0.5 7.5 0.5C7.25103 0.5 7.01225 0.598734 6.83617 0.774491L0.263572 7.33708C0.0925362 7.5139 -0.00210381 7.75071 3.54945e-05 7.99653C0.0021748 8.24234 0.100922 8.47748 0.27501 8.6513C0.449097 8.82512 0.684596 8.92372 0.930783 8.92586C1.17697 8.92799 1.41415 8.8335 1.59124 8.66272L1.86635 8.38803V14.5625C1.86635 14.8111 1.96527 15.0496 2.14136 15.2254C2.31744 15.4012 2.55627 15.5 2.80529 15.5H4.68317C4.9322 15.5 5.17102 15.4012 5.34711 15.2254C5.52319 15.0496 5.62212 14.8111 5.62212 14.5625V12.6875C5.62212 12.4388 5.72104 12.2004 5.89713 12.0245C6.07321 11.8487 6.31203 11.7499 6.56106 11.7499H8.43894C8.68796 11.7499 8.92679 11.8487 9.10287 12.0245C9.27896 12.2004 9.37788 12.4388 9.37788 12.6875V14.5625C9.37788 14.8111 9.47681 15.0496 9.65289 15.2254C9.82898 15.4012 10.0678 15.5 10.3168 15.5H12.1947C12.4437 15.5 12.6826 15.4012 12.8586 15.2254C13.0347 15.0496 13.1337 14.8111 13.1337 14.5625V8.38803L13.4088 8.66272C13.5858 8.8335 13.823 8.92799 14.0692 8.92586C14.3154 8.92372 14.5509 8.82512 14.725 8.6513C14.8991 8.47748 14.9978 8.24234 15 7.99653C15.0021 7.75071 14.9075 7.5139 14.7364 7.33708L8.16383 0.774491Z" fill="#4CD080"/>
</svg>
