<svg width="42" height="44" viewBox="0 0 42 44" fill="none" xmlns="http://www.w3.org/2000/svg">
<path d="M16.8337 33.4168C19.1253 33.4168 21.0003 31.5418 21.0003 29.2502C21.0003 26.9585 19.1253 25.0835 16.8337 25.0835C14.542 25.0835 12.667 26.9585 12.667 29.2502C12.667 31.5418 14.542 33.4168 16.8337 33.4168ZM29.3337 14.6668C31.6253 14.6668 33.5003 16.5418 33.5003 18.8335V39.6668C33.5003 41.9585 31.6253 43.8335 29.3337 43.8335H4.33366C2.04199 43.8335 0.166992 41.9585 0.166992 39.6668V18.8335C0.166992 16.5418 2.04199 14.6668 4.33366 14.6668H6.41699V10.5002C6.41699 4.66683 11.0003 0.0834961 16.8337 0.0834961C22.667 0.0834961 27.2503 4.66683 27.2503 10.5002V14.6668H29.3337ZM16.8337 4.25016C13.292 4.25016 10.5837 6.9585 10.5837 10.5002V14.6668H23.0837V10.5002C23.0837 6.9585 20.3753 4.25016 16.8337 4.25016ZM41.8337 25.0835H37.667V12.5835H41.8337V25.0835ZM41.8337 33.4168H37.667V29.2502H41.8337V33.4168Z" fill="#8F92A1"/>
</svg>
