<svg width="14" height="15" viewBox="0 0 14 15" fill="none" xmlns="http://www.w3.org/2000/svg">
<path d="M7.25114 3.17438C7.83529 2.60625 8.6613 1.69938 8.99218 0.834375C9.14559 0.43375 8.83757 0 8.42246 0H4.81283C4.39773 0 4.08971 0.433125 4.24312 0.834375C4.574 1.69938 5.4 2.60625 5.98416 3.17438C2.74873 3.67375 0 7.88625 0 11.25C0 13.3181 1.61892 15 3.60963 15H9.62567C11.6164 15 13.2353 13.3181 13.2353 11.25C13.2353 7.88625 10.4866 3.67375 7.25114 3.17438ZM5.80187 8.60063L7.63195 8.9175C8.4387 9.05688 9.02467 9.77562 9.02467 10.6256C9.02467 11.6594 8.21491 12.5006 7.21985 12.5006V13.1256C7.21985 13.4706 6.95033 13.7506 6.61825 13.7506C6.28616 13.7506 6.01664 13.4706 6.01664 13.1256V12.5006H5.85541C5.2129 12.5006 4.61431 12.1419 4.29245 11.5638C4.1264 11.265 4.22447 10.8831 4.51203 10.71C4.7984 10.5369 5.16718 10.6388 5.33382 10.9381C5.44091 11.1306 5.64124 11.2506 5.85541 11.2506H7.21985C7.55134 11.2506 7.82146 10.97 7.82146 10.6256C7.82146 10.3894 7.65842 10.1894 7.43402 10.1506L5.60394 9.83375C4.79719 9.69438 4.21123 8.97563 4.21123 8.12563C4.21123 7.09188 5.02099 6.25063 6.01604 6.25063V5.62563C6.01604 5.28063 6.28556 5.00063 6.61765 5.00063C6.94973 5.00063 7.21925 5.28063 7.21925 5.62563V6.25063H7.38048C8.02239 6.25063 8.62159 6.61 8.94345 7.18813C9.10949 7.48688 9.01143 7.86875 8.72386 8.04187C8.4369 8.215 8.06872 8.11312 7.90207 7.81375C7.79439 7.62063 7.59465 7.50125 7.38048 7.50125H6.01604C5.68456 7.50125 5.41444 7.78188 5.41444 8.12625C5.41444 8.3625 5.57747 8.5625 5.80187 8.60125V8.60063Z" fill="#263238"/>
</svg>
