<svg width="46" height="28" viewBox="0 0 46 28" fill="none" xmlns="http://www.w3.org/2000/svg">
<path d="M28.7778 2.99444H16.5278V25.0094H28.7778V2.99444Z" fill="#FF5F00"/>
<path d="M17.3056 14C17.3056 9.53556 19.3978 5.55722 22.6528 2.99444C20.2728 1.12 17.2667 0 14 0C6.26889 0 0 6.26889 0 14C0 21.7311 6.26889 28 14 28C17.2667 28 20.2689 26.88 22.6528 25.0056C19.3978 22.4428 17.3056 18.4644 17.3056 14Z" fill="#EB001B"/>
<path d="M45.3056 14C45.3056 21.7311 39.0367 28 31.3056 28C28.0389 28 25.0367 26.88 22.6528 25.0056C25.9078 22.4428 28.0001 18.4644 28.0001 14C28.0001 9.53556 25.9078 5.55722 22.6528 2.99444C25.0328 1.12 28.0389 0 31.3056 0C39.0367 0 45.3056 6.26889 45.3056 14Z" fill="#F79E1B"/>
<path d="M43.968 22.6761V22.225H44.1508V22.1317H43.688V22.225H43.8708V22.6761H43.968ZM44.8663 22.6761V22.1317H44.7263L44.563 22.505L44.3997 22.1317H44.2558V22.6761H44.3569V22.2678L44.5085 22.6217H44.6135L44.7652 22.2678V22.68H44.8663V22.6761Z" fill="#F79E1B"/>
</svg>
