<svg width="18" height="18" viewBox="0 0 18 18" fill="none" xmlns="http://www.w3.org/2000/svg">
<path d="M2.5 13.5C3.03043 13.5 3.53914 13.7107 3.91421 14.0858C4.28929 14.4609 4.5 14.9696 4.5 15.5C4.5 16.0304 4.28929 16.5391 3.91421 16.9142C3.53914 17.2893 3.03043 17.5 2.5 17.5C1.96957 17.5 1.46086 17.2893 1.08579 16.9142C0.710714 16.5391 0.5 16.0304 0.5 15.5C0.5 14.9696 0.710714 14.4609 1.08579 14.0858C1.46086 13.7107 1.96957 13.5 2.5 13.5ZM9 13.5C9.53043 13.5 10.0391 13.7107 10.4142 14.0858C10.7893 14.4609 11 14.9696 11 15.5C11 16.0304 10.7893 16.5391 10.4142 16.9142C10.0391 17.2893 9.53043 17.5 9 17.5C8.46957 17.5 7.96086 17.2893 7.58579 16.9142C7.21071 16.5391 7 16.0304 7 15.5C7 14.9696 7.21071 14.4609 7.58579 14.0858C7.96086 13.7107 8.46957 13.5 9 13.5ZM15.5 13.5C16.0304 13.5 16.5391 13.7107 16.9142 14.0858C17.2893 14.4609 17.5 14.9696 17.5 15.5C17.5 16.0304 17.2893 16.5391 16.9142 16.9142C16.5391 17.2893 16.0304 17.5 15.5 17.5C14.9696 17.5 14.4609 17.2893 14.0858 16.9142C13.7107 16.5391 13.5 16.0304 13.5 15.5C13.5 14.9696 13.7107 14.4609 14.0858 14.0858C14.4609 13.7107 14.9696 13.5 15.5 13.5ZM2.5 7C3.03043 7 3.53914 7.21071 3.91421 7.58579C4.28929 7.96086 4.5 8.46957 4.5 9C4.5 9.53043 4.28929 10.0391 3.91421 10.4142C3.53914 10.7893 3.03043 11 2.5 11C1.96957 11 1.46086 10.7893 1.08579 10.4142C0.710714 10.0391 0.5 9.53043 0.5 9C0.5 8.46957 0.710714 7.96086 1.08579 7.58579C1.46086 7.21071 1.96957 7 2.5 7ZM9 7C9.53043 7 10.0391 7.21071 10.4142 7.58579C10.7893 7.96086 11 8.46957 11 9C11 9.53043 10.7893 10.0391 10.4142 10.4142C10.0391 10.7893 9.53043 11 9 11C8.46957 11 7.96086 10.7893 7.58579 10.4142C7.21071 10.0391 7 9.53043 7 9C7 8.46957 7.21071 7.96086 7.58579 7.58579C7.96086 7.21071 8.46957 7 9 7ZM15.5 7C16.0304 7 16.5391 7.21071 16.9142 7.58579C17.2893 7.96086 17.5 8.46957 17.5 9C17.5 9.53043 17.2893 10.0391 16.9142 10.4142C16.5391 10.7893 16.0304 11 15.5 11C14.9696 11 14.4609 10.7893 14.0858 10.4142C13.7107 10.0391 13.5 9.53043 13.5 9C13.5 8.46957 13.7107 7.96086 14.0858 7.58579C14.4609 7.21071 14.9696 7 15.5 7ZM2.5 0.5C3.03043 0.5 3.53914 0.710714 3.91421 1.08579C4.28929 1.46086 4.5 1.96957 4.5 2.5C4.5 3.03043 4.28929 3.53914 3.91421 3.91421C3.53914 4.28929 3.03043 4.5 2.5 4.5C1.96957 4.5 1.46086 4.28929 1.08579 3.91421C0.710714 3.53914 0.5 3.03043 0.5 2.5C0.5 1.96957 0.710714 1.46086 1.08579 1.08579C1.46086 0.710714 1.96957 0.5 2.5 0.5ZM9 0.5C9.53043 0.5 10.0391 0.710714 10.4142 1.08579C10.7893 1.46086 11 1.96957 11 2.5C11 3.03043 10.7893 3.53914 10.4142 3.91421C10.0391 4.28929 9.53043 4.5 9 4.5C8.46957 4.5 7.96086 4.28929 7.58579 3.91421C7.21071 3.53914 7 3.03043 7 2.5C7 1.96957 7.21071 1.46086 7.58579 1.08579C7.96086 0.710714 8.46957 0.5 9 0.5ZM15.5 0.5C16.0304 0.5 16.5391 0.710714 16.9142 1.08579C17.2893 1.46086 17.5 1.96957 17.5 2.5C17.5 3.03043 17.2893 3.53914 16.9142 3.91421C16.5391 4.28929 16.0304 4.5 15.5 4.5C14.9696 4.5 14.4609 4.28929 14.0858 3.91421C13.7107 3.53914 13.5 3.03043 13.5 2.5C13.5 1.96957 13.7107 1.46086 14.0858 1.08579C14.4609 0.710714 14.9696 0.5 15.5 0.5Z" fill="#4CD080"/>
</svg>
