<svg width="24" height="24" viewBox="0 0 24 24" fill="none" xmlns="http://www.w3.org/2000/svg">
<circle cx="12" cy="12" r="12" fill="#262D38"/>
<path d="M14.5 11.5C14.5 12.163 14.2366 12.7989 13.7678 13.2678C13.2989 13.7366 12.663 14 12 14C11.337 14 10.7011 13.7366 10.2322 13.2678C9.76339 12.7989 9.5 12.163 9.5 11.5C9.5 10.837 9.76339 10.2011 10.2322 9.73223C10.7011 9.26339 11.337 9 12 9C12.663 9 13.2989 9.26339 13.7678 9.73223C14.2366 10.2011 14.5 10.837 14.5 11.5Z" fill="white"/>
<path d="M4 11.5C4 11.5 7 6 12 6C17 6 20 11.5 20 11.5C20 11.5 17 17 12 17C7 17 4 11.5 4 11.5ZM12 15C12.9283 15 13.8185 14.6313 14.4749 13.9749C15.1313 13.3185 15.5 12.4283 15.5 11.5C15.5 10.5717 15.1313 9.6815 14.4749 9.02513C13.8185 8.36875 12.9283 8 12 8C11.0717 8 10.1815 8.36875 9.52513 9.02513C8.86875 9.6815 8.5 10.5717 8.5 11.5C8.5 12.4283 8.86875 13.3185 9.52513 13.9749C10.1815 14.6313 11.0717 15 12 15Z" fill="white"/>
</svg>
