<svg width="228" height="228" viewBox="0 0 228 228" fill="none" xmlns="http://www.w3.org/2000/svg">
<path d="M159.833 224H191.917C200.426 224 208.586 220.62 214.603 214.603C220.62 208.586 224 200.426 224 191.917V159.833M224 68.1667V36.0833C224 27.5743 220.62 19.4138 214.603 13.397C208.586 7.3802 200.426 4 191.917 4H159.833M68.1667 224H36.0833C27.5743 224 19.4138 220.62 13.397 214.603C7.3802 208.586 4 200.426 4 191.917V159.833M4 68.1667V36.0833C4 27.5743 7.3802 19.4138 13.397 13.397C19.4138 7.3802 27.5743 4 36.0833 4H68.1667" stroke="#4CD080" stroke-width="8" stroke-linecap="round" stroke-linejoin="round"/>
</svg>
