<svg width="21" height="20" viewBox="0 0 21 20" fill="none" xmlns="http://www.w3.org/2000/svg">
<path d="M6.61083 7.93083L5.08333 9.45833L10.5 14.875L15.9167 9.45833L14.3892 7.93083L11.5833 10.7258L11.5833 0.25L9.41667 0.25L9.41667 10.7258L6.61083 7.93083ZM20.25 17.5833L20.25 2.41667C20.25 1.84203 20.0217 1.29093 19.6154 0.884602C19.2091 0.478273 18.658 0.25 18.0833 0.25L13.75 0.25L13.75 2.41667L18.0833 2.41667L18.0833 17.5833L2.91667 17.5833L2.91667 2.41667L7.25 2.41667L7.25 0.249999L2.91667 0.249999C2.34203 0.249999 1.79093 0.478272 1.3846 0.884601C0.978273 1.29093 0.75 1.84203 0.75 2.41667L0.749999 17.5833C0.749999 18.775 1.725 19.75 2.91667 19.75L18.0833 19.75C19.275 19.75 20.25 18.775 20.25 17.5833Z" fill="white"/>
</svg>
