<svg width="44" height="44" viewBox="0 0 44 44" fill="none" xmlns="http://www.w3.org/2000/svg">
<path d="M22.2948 19.0145C21.6793 18.9537 21.06 19.0847 20.5218 19.3894C19.9835 19.6942 19.5527 20.1579 19.2881 20.717C19.0236 21.2761 18.9384 21.9033 19.0441 22.5127C19.1498 23.1221 19.4412 23.684 19.8786 24.1213C20.316 24.5587 20.8778 24.8502 21.4872 24.9559C22.0967 25.0616 22.7239 24.9763 23.283 24.7118C23.8421 24.4473 24.3057 24.0164 24.6105 23.4782C24.9152 22.94 25.0462 22.3207 24.9854 21.7052C24.9161 21.0151 24.6104 20.3703 24.12 19.8799C23.6296 19.3896 22.9848 19.0838 22.2948 19.0145V19.0145ZM29.5182 22C29.5163 22.3261 29.4923 22.6517 29.4465 22.9745L31.5657 24.6367C31.658 24.7132 31.7202 24.8199 31.7412 24.9379C31.7622 25.056 31.7407 25.1776 31.6806 25.2812L29.6757 28.75C29.6148 28.8527 29.5197 28.9305 29.407 28.9699C29.2943 29.0093 29.1713 29.0076 29.0598 28.9652L26.9551 28.1177C26.839 28.0714 26.7133 28.0547 26.5892 28.0691C26.4651 28.0834 26.3465 28.1283 26.244 28.1997C25.9228 28.4209 25.5853 28.6174 25.2343 28.7875C25.124 28.8411 25.0285 28.9211 24.9564 29.0203C24.8843 29.1196 24.8378 29.2351 24.8209 29.3566L24.5054 31.6014C24.4847 31.72 24.4234 31.8276 24.3321 31.906C24.2408 31.9844 24.1251 32.0287 24.0048 32.0312H19.9951C19.8768 32.0292 19.7626 31.9869 19.6716 31.9113C19.5805 31.8357 19.5178 31.7314 19.494 31.6155L19.179 29.3739C19.1613 29.2511 19.1135 29.1345 19.0399 29.0346C18.9663 28.9346 18.8692 28.8544 18.7571 28.8011C18.4066 28.6319 18.0702 28.4349 17.7512 28.2119C17.649 28.1408 17.5308 28.0963 17.4072 28.0823C17.2835 28.0683 17.1583 28.0853 17.0429 28.1317L14.9387 28.9788C14.8272 29.0212 14.7043 29.023 14.5916 28.9837C14.4789 28.9444 14.3837 28.8666 14.3227 28.7641L12.3179 25.2953C12.2576 25.1917 12.2361 25.07 12.2571 24.952C12.2781 24.834 12.3404 24.7272 12.4327 24.6508L14.2238 23.2445C14.322 23.1666 14.3991 23.0655 14.4482 22.9502C14.4973 22.835 14.5169 22.7093 14.5051 22.5845C14.4882 22.3891 14.4779 22.1941 14.4779 21.9986C14.4779 21.8031 14.4877 21.6109 14.5051 21.4197C14.5156 21.2957 14.4951 21.1711 14.4454 21.057C14.3957 20.9429 14.3185 20.843 14.2206 20.7662L12.4304 19.36C12.3395 19.2832 12.2786 19.1768 12.2583 19.0596C12.238 18.9423 12.2596 18.8217 12.3193 18.7188L14.3242 15.25C14.385 15.1473 14.4802 15.0695 14.5929 15.0301C14.7056 14.9907 14.8285 14.9924 14.9401 15.0348L17.0448 15.8823C17.1608 15.9286 17.2866 15.9453 17.4107 15.9309C17.5348 15.9166 17.6534 15.8717 17.7559 15.8003C18.0771 15.5791 18.4146 15.3826 18.7656 15.2125C18.8759 15.1589 18.9713 15.0789 19.0434 14.9797C19.1155 14.8804 19.1621 14.7649 19.179 14.6434L19.4945 12.3986C19.5152 12.28 19.5764 12.1724 19.6677 12.094C19.7591 12.0156 19.8748 11.9713 19.9951 11.9688H24.0048C24.1231 11.9708 24.2372 12.0131 24.3283 12.0887C24.4194 12.1643 24.482 12.2686 24.5059 12.3845L24.8209 14.6261C24.8386 14.7489 24.8863 14.8655 24.9599 14.9654C25.0335 15.0654 25.1307 15.1456 25.2427 15.1989C25.5933 15.3681 25.9297 15.5651 26.2487 15.7881C26.3508 15.8592 26.4691 15.9037 26.5927 15.9177C26.7163 15.9317 26.8415 15.9147 26.957 15.8683L29.0612 15.0213C29.1727 14.9788 29.2956 14.977 29.4083 15.0163C29.521 15.0556 29.6162 15.1334 29.6771 15.2359L31.682 18.7047C31.7422 18.8083 31.7638 18.93 31.7428 19.048C31.7217 19.166 31.6595 19.2728 31.5671 19.3492L29.776 20.7555C29.6775 20.8331 29.5999 20.9342 29.5504 21.0494C29.5008 21.1647 29.4809 21.2905 29.4924 21.4155C29.5079 21.6095 29.5182 21.8045 29.5182 22Z" stroke="#030319" stroke-width="1.5" stroke-linecap="round" stroke-linejoin="round"/>
<rect opacity="0.1" x="1" y="1" width="42" height="42" rx="13" stroke="#030319" stroke-width="2"/>
</svg>
