<svg width="375" height="812" viewBox="0 0 375 812" fill="none" xmlns="http://www.w3.org/2000/svg">
<g clip-path="url(#clip0_162_6983)">
<rect width="375" height="812" fill="#105D38"/>
<path opacity="0.06" fill-rule="evenodd" clip-rule="evenodd" d="M86.5701 -217.608C139.463 -219.817 193.605 -242.158 243.273 -223.836C293.509 -205.304 333.081 -162.825 360.215 -116.663C386.192 -72.4689 387.451 -19.3857 393.377 31.5342C398.846 78.5246 402.777 125.235 393.769 171.677C384.597 218.969 369.866 265.877 340.516 304.076C310.965 342.535 269.944 370.599 225.684 390.434C182.004 410.009 134.42 419.11 86.5701 417.883C39.3148 416.67 -5.83284 402.312 -49.1482 383.383C-93.4664 364.016 -133.774 338.319 -169.67 305.905C-209.531 269.91 -254.727 234.368 -270.889 183.149C-287.235 131.349 -276.61 74.0754 -259.047 22.6762C-242.207 -26.6029 -205.806 -65.0092 -172.431 -104.985C-139.616 -144.291 -110.909 -190.587 -63.9537 -211.005C-17.312 -231.286 35.7539 -215.485 86.5701 -217.608Z" fill="white"/>
<rect x="16" y="656" width="343" height="54" rx="16" fill="#4CD080"/>
<path d="M169.199 688V676.8H170.895V686.656H175.983V688H169.199ZM181.112 688.192C180.355 688.192 179.672 688.021 179.064 687.68C178.467 687.328 177.992 686.843 177.64 686.224C177.288 685.595 177.112 684.864 177.112 684.032C177.112 683.2 177.288 682.475 177.64 681.856C178.003 681.227 178.488 680.741 179.096 680.4C179.704 680.048 180.381 679.872 181.128 679.872C181.885 679.872 182.563 680.048 183.16 680.4C183.768 680.741 184.248 681.227 184.6 681.856C184.963 682.475 185.144 683.2 185.144 684.032C185.144 684.864 184.963 685.595 184.6 686.224C184.248 686.843 183.768 687.328 183.16 687.68C182.552 688.021 181.869 688.192 181.112 688.192ZM181.112 686.736C181.517 686.736 181.891 686.635 182.232 686.432C182.584 686.229 182.867 685.931 183.08 685.536C183.293 685.131 183.4 684.629 183.4 684.032C183.4 683.435 183.293 682.939 183.08 682.544C182.877 682.139 182.6 681.835 182.248 681.632C181.907 681.429 181.533 681.328 181.128 681.328C180.723 681.328 180.344 681.429 179.992 681.632C179.651 681.835 179.373 682.139 179.16 682.544C178.947 682.939 178.84 683.435 178.84 684.032C178.84 684.629 178.947 685.131 179.16 685.536C179.373 685.931 179.651 686.229 179.992 686.432C180.333 686.635 180.707 686.736 181.112 686.736ZM189.804 685.568C189.388 685.568 189.004 685.52 188.652 685.424L187.964 686.096C188.082 686.171 188.226 686.235 188.396 686.288C188.567 686.341 188.807 686.389 189.116 686.432C189.426 686.475 189.847 686.517 190.38 686.56C191.436 686.656 192.199 686.912 192.668 687.328C193.138 687.733 193.372 688.277 193.372 688.96C193.372 689.429 193.244 689.872 192.988 690.288C192.743 690.715 192.354 691.056 191.82 691.312C191.298 691.579 190.626 691.712 189.804 691.712C188.695 691.712 187.794 691.499 187.1 691.072C186.418 690.656 186.076 690.021 186.076 689.168C186.076 688.837 186.162 688.507 186.332 688.176C186.514 687.856 186.796 687.552 187.18 687.264C186.956 687.168 186.759 687.067 186.588 686.96C186.428 686.843 186.284 686.725 186.156 686.608V686.224L187.532 684.816C186.914 684.283 186.604 683.584 186.604 682.72C186.604 682.197 186.727 681.723 186.972 681.296C187.228 680.859 187.596 680.512 188.076 680.256C188.556 680 189.132 679.872 189.804 679.872C190.252 679.872 190.668 679.936 191.052 680.064H194.012V681.184L192.604 681.264C192.86 681.701 192.988 682.187 192.988 682.72C192.988 683.253 192.86 683.733 192.604 684.16C192.359 684.587 191.996 684.928 191.516 685.184C191.047 685.44 190.476 685.568 189.804 685.568ZM189.804 684.24C190.295 684.24 190.69 684.112 190.988 683.856C191.298 683.589 191.452 683.216 191.452 682.736C191.452 682.245 191.298 681.872 190.988 681.616C190.69 681.36 190.295 681.232 189.804 681.232C189.303 681.232 188.898 681.36 188.588 681.616C188.29 681.872 188.14 682.245 188.14 682.736C188.14 683.216 188.29 683.589 188.588 683.856C188.898 684.112 189.303 684.24 189.804 684.24ZM187.676 689.008C187.676 689.467 187.879 689.808 188.284 690.032C188.69 690.267 189.196 690.384 189.804 690.384C190.391 690.384 190.866 690.256 191.228 690C191.591 689.755 191.772 689.424 191.772 689.008C191.772 688.699 191.65 688.432 191.404 688.208C191.159 687.995 190.695 687.861 190.012 687.808C189.5 687.776 189.047 687.728 188.652 687.664C188.279 687.867 188.023 688.085 187.884 688.32C187.746 688.555 187.676 688.784 187.676 689.008ZM196.485 678.56C196.165 678.56 195.898 678.464 195.685 678.272C195.482 678.069 195.381 677.819 195.381 677.52C195.381 677.221 195.482 676.976 195.685 676.784C195.898 676.581 196.165 676.48 196.485 676.48C196.805 676.48 197.066 676.581 197.269 676.784C197.482 676.976 197.589 677.221 197.589 677.52C197.589 677.819 197.482 678.069 197.269 678.272C197.066 678.464 196.805 678.56 196.485 678.56ZM195.637 688V680.064H197.333V688H195.637ZM199.572 688V680.064H201.076L201.204 681.456C201.449 680.965 201.807 680.581 202.276 680.304C202.756 680.016 203.305 679.872 203.924 679.872C204.884 679.872 205.636 680.171 206.18 680.768C206.735 681.365 207.012 682.256 207.012 683.44V688H205.332V683.616C205.332 682.08 204.703 681.312 203.444 681.312C202.815 681.312 202.292 681.536 201.876 681.984C201.471 682.432 201.268 683.072 201.268 683.904V688H199.572Z" fill="white"/>
<path d="M164.926 758.192C164.104 758.192 163.384 758.048 162.766 757.76C162.147 757.472 161.662 757.061 161.31 756.528C160.968 755.995 160.792 755.36 160.782 754.624H162.574C162.584 755.221 162.792 755.728 163.198 756.144C163.603 756.56 164.174 756.768 164.91 756.768C165.56 756.768 166.067 756.613 166.43 756.304C166.803 755.984 166.99 755.579 166.99 755.088C166.99 754.693 166.899 754.373 166.718 754.128C166.547 753.883 166.307 753.68 165.998 753.52C165.699 753.36 165.352 753.216 164.958 753.088C164.563 752.96 164.147 752.821 163.71 752.672C162.846 752.384 162.195 752.011 161.758 751.552C161.331 751.093 161.118 750.491 161.118 749.744C161.107 749.115 161.251 748.565 161.55 748.096C161.859 747.627 162.286 747.264 162.83 747.008C163.384 746.741 164.03 746.608 164.766 746.608C165.491 746.608 166.126 746.741 166.67 747.008C167.224 747.275 167.656 747.648 167.966 748.128C168.275 748.597 168.435 749.147 168.446 749.776H166.654C166.654 749.488 166.579 749.216 166.43 748.96C166.28 748.693 166.062 748.475 165.774 748.304C165.486 748.133 165.134 748.048 164.718 748.048C164.184 748.037 163.742 748.171 163.39 748.448C163.048 748.725 162.878 749.109 162.878 749.6C162.878 750.037 163.006 750.373 163.262 750.608C163.518 750.843 163.87 751.04 164.318 751.2C164.766 751.349 165.278 751.525 165.854 751.728C166.408 751.909 166.904 752.128 167.342 752.384C167.779 752.64 168.126 752.976 168.382 753.392C168.648 753.808 168.782 754.336 168.782 754.976C168.782 755.541 168.638 756.069 168.35 756.56C168.062 757.04 167.63 757.435 167.054 757.744C166.478 758.043 165.768 758.192 164.926 758.192ZM171.532 748.56C171.212 748.56 170.945 748.464 170.732 748.272C170.529 748.069 170.428 747.819 170.428 747.52C170.428 747.221 170.529 746.976 170.732 746.784C170.945 746.581 171.212 746.48 171.532 746.48C171.852 746.48 172.113 746.581 172.316 746.784C172.529 746.976 172.636 747.221 172.636 747.52C172.636 747.819 172.529 748.069 172.316 748.272C172.113 748.464 171.852 748.56 171.532 748.56ZM170.684 758V750.064H172.38V758H170.684ZM177.867 755.568C177.451 755.568 177.067 755.52 176.715 755.424L176.027 756.096C176.144 756.171 176.288 756.235 176.459 756.288C176.63 756.341 176.87 756.389 177.179 756.432C177.488 756.475 177.91 756.517 178.443 756.56C179.499 756.656 180.262 756.912 180.731 757.328C181.2 757.733 181.435 758.277 181.435 758.96C181.435 759.429 181.307 759.872 181.051 760.288C180.806 760.715 180.416 761.056 179.883 761.312C179.36 761.579 178.688 761.712 177.867 761.712C176.758 761.712 175.856 761.499 175.163 761.072C174.48 760.656 174.139 760.021 174.139 759.168C174.139 758.837 174.224 758.507 174.395 758.176C174.576 757.856 174.859 757.552 175.243 757.264C175.019 757.168 174.822 757.067 174.651 756.96C174.491 756.843 174.347 756.725 174.219 756.608V756.224L175.595 754.816C174.976 754.283 174.667 753.584 174.667 752.72C174.667 752.197 174.79 751.723 175.035 751.296C175.291 750.859 175.659 750.512 176.139 750.256C176.619 750 177.195 749.872 177.867 749.872C178.315 749.872 178.731 749.936 179.115 750.064H182.075V751.184L180.667 751.264C180.923 751.701 181.051 752.187 181.051 752.72C181.051 753.253 180.923 753.733 180.667 754.16C180.422 754.587 180.059 754.928 179.579 755.184C179.11 755.44 178.539 755.568 177.867 755.568ZM177.867 754.24C178.358 754.24 178.752 754.112 179.051 753.856C179.36 753.589 179.515 753.216 179.515 752.736C179.515 752.245 179.36 751.872 179.051 751.616C178.752 751.36 178.358 751.232 177.867 751.232C177.366 751.232 176.96 751.36 176.651 751.616C176.352 751.872 176.203 752.245 176.203 752.736C176.203 753.216 176.352 753.589 176.651 753.856C176.96 754.112 177.366 754.24 177.867 754.24ZM175.739 759.008C175.739 759.467 175.942 759.808 176.347 760.032C176.752 760.267 177.259 760.384 177.867 760.384C178.454 760.384 178.928 760.256 179.291 760C179.654 759.755 179.835 759.424 179.835 759.008C179.835 758.699 179.712 758.432 179.467 758.208C179.222 757.995 178.758 757.861 178.075 757.808C177.563 757.776 177.11 757.728 176.715 757.664C176.342 757.867 176.086 758.085 175.947 758.32C175.808 758.555 175.739 758.784 175.739 759.008ZM183.588 758V750.064H185.092L185.22 751.456C185.465 750.965 185.822 750.581 186.292 750.304C186.772 750.016 187.321 749.872 187.94 749.872C188.9 749.872 189.652 750.171 190.196 750.768C190.75 751.365 191.028 752.256 191.028 753.44V758H189.348V753.616C189.348 752.08 188.718 751.312 187.46 751.312C186.83 751.312 186.308 751.536 185.892 751.984C185.486 752.432 185.284 753.072 185.284 753.904V758H183.588ZM201.312 758.192C200.512 758.192 199.787 758.037 199.136 757.728C198.496 757.408 197.984 756.923 197.6 756.272C197.227 755.621 197.04 754.795 197.04 753.792V746.8H198.736V753.808C198.736 754.789 198.971 755.509 199.44 755.968C199.91 756.427 200.544 756.656 201.344 756.656C202.134 756.656 202.763 756.427 203.232 755.968C203.702 755.509 203.936 754.789 203.936 753.808V746.8H205.632V753.792C205.632 754.795 205.435 755.621 205.04 756.272C204.656 756.923 204.134 757.408 203.472 757.728C202.822 758.037 202.102 758.192 201.312 758.192ZM207.744 761.52V750.064H209.264L209.44 751.296C209.696 750.923 210.048 750.592 210.496 750.304C210.944 750.016 211.52 749.872 212.224 749.872C212.992 749.872 213.669 750.053 214.256 750.416C214.843 750.779 215.301 751.275 215.632 751.904C215.973 752.533 216.144 753.248 216.144 754.048C216.144 754.848 215.973 755.563 215.632 756.192C215.301 756.811 214.843 757.301 214.256 757.664C213.669 758.016 212.987 758.192 212.208 758.192C211.589 758.192 211.04 758.069 210.56 757.824C210.091 757.579 209.717 757.232 209.44 756.784V761.52H207.744ZM211.92 756.72C212.645 756.72 213.243 756.475 213.712 755.984C214.181 755.483 214.416 754.832 214.416 754.032C214.416 753.509 214.309 753.045 214.096 752.64C213.883 752.235 213.589 751.92 213.216 751.696C212.843 751.461 212.411 751.344 211.92 751.344C211.195 751.344 210.597 751.595 210.128 752.096C209.669 752.597 209.44 753.243 209.44 754.032C209.44 754.832 209.669 755.483 210.128 755.984C210.597 756.475 211.195 756.72 211.92 756.72Z" fill="white"/>
<path d="M376.412 373.058C376.253 373.75 375.931 374.394 375.472 374.937C375.209 375.246 374.875 375.486 374.497 375.635C373.172 376.145 371.742 375.307 370.557 374.504C367.942 372.813 365.427 370.972 363.026 368.992C361.623 367.777 359.814 366.198 359.758 364.36C359.712 363.673 359.902 362.991 360.298 362.425C360.757 361.768 361.371 361.233 362.087 360.868C362.802 360.503 363.596 360.318 364.4 360.33C366.001 360.348 367.575 360.743 368.993 361.482C371.288 362.473 373.286 364.04 374.792 366.03C375.547 367.02 376.081 368.159 376.361 369.37C376.64 370.582 376.657 371.839 376.412 373.058Z" fill="#FFAE58"/>
<path d="M375.472 374.937C375.209 375.246 374.875 375.486 374.497 375.635C373.172 376.145 371.742 375.307 370.556 374.504C367.942 372.813 365.427 370.972 363.025 368.992C361.623 367.776 359.814 366.198 359.758 364.36C360.721 363.433 362.008 362.915 363.348 362.914C364.955 362.936 366.535 363.331 367.962 364.067C370.253 365.068 372.251 366.633 373.768 368.615C375.116 370.433 375.724 372.691 375.472 374.937Z" fill="url(#paint0_linear_162_6983)"/>
<path d="M143.455 315.558C141.786 318.709 136.787 318.353 134.606 321.105C133.659 322.286 133.414 323.899 133.203 325.408C132.236 332.45 131.233 339.47 130.237 346.491C132.965 348.161 135.798 349.984 137.2 352.869C138.603 355.754 137.712 359.855 134.69 360.91C131.422 361.957 128.428 358.995 125.511 357.193C122.11 355.042 116.739 354.804 114.818 358.353C116.739 359.484 118.709 360.693 119.979 362.544C121.248 364.395 121.626 367.057 120.245 368.831C118.225 371.332 114.278 370.522 111.283 369.285C108.289 368.049 104.699 366.729 102.105 368.671C104.12 370.22 105.802 372.159 107.048 374.371C107.798 375.663 108.338 377.326 107.504 378.562C106.67 379.799 104.832 379.799 103.297 379.526C96.2004 378.213 89.7703 373.477 82.646 373.156C82.214 373.128 81.7807 373.128 81.3488 373.156C73.979 373.372 67.9065 378.562 61.5605 382.328C61.3105 382.486 61.0506 382.629 60.7822 382.754C55.9596 385.571 50.7339 387.64 45.2854 388.887C42.4455 389.537 39.6126 389.076 36.8358 389.907C33.6733 390.85 31.0859 392.869 28.5194 394.937C18.3238 403.236 7.9529 411.786 0.183466 422.44C-3.59607 407.833 -3.16132 392.771 -2.02535 376.069C-0.16714 375.265 1.31943 374.616 1.48071 374.511C8.82006 370.152 16.1804 365.811 23.5619 361.489C24.1038 361.12 24.7066 360.848 25.343 360.686C27.3975 360.337 28.9612 362.272 30.0411 364.102C33.6593 358.856 38.8413 354.713 44.1635 351.22C50.0466 347.294 56.2313 343.85 62.395 340.379C68.0608 337.179 73.7546 334.008 79.4274 330.801C85.7383 327.308 92.1404 323.704 98.9702 321.231C104.804 319.135 110.933 317.843 116.655 315.447C122.489 313.05 126.591 310.766 132.783 309.746C135.188 309.369 139.094 308.859 141.155 310.095C143.217 311.332 144.563 313.4 143.455 315.558Z" fill="#FCD4D0"/>
<path d="M88.1437 369.67C87.7089 371.332 85.5211 371.954 83.712 372.17C83.4831 372.243 83.2716 372.362 83.0907 372.519C82.9097 372.677 82.7632 372.869 82.6602 373.086C82.2282 373.058 81.7949 373.058 81.3629 373.086C73.9932 373.302 67.9207 378.493 61.5748 382.258C61.3248 382.416 61.0648 382.559 60.7964 382.684C60.2284 380.861 60.2565 375.642 64.1131 363.648C64.8144 361.552 65.5997 358.758 66.2168 356.732C66.5766 355.391 67.1044 354.1 67.7875 352.89C70.1988 349.169 73.9129 346.475 78.2075 345.331C78.5954 345.177 79.0111 345.104 79.4287 345.117C79.8462 345.13 80.2565 345.229 80.6337 345.408C81.4471 345.89 81.5523 346.994 81.2858 347.86C81.0194 348.726 80.4444 349.495 80.1499 350.361C78.9368 353.609 81.5523 356.865 83.5788 359.743C85.2537 362.062 86.6405 364.574 87.7089 367.225C88.1053 367.975 88.2573 368.829 88.1437 369.67Z" fill="url(#paint1_linear_162_6983)"/>
<path d="M150.366 330.504L128.277 304.212C127.011 302.706 124.76 302.507 123.249 303.768L67.9132 349.91C66.4016 351.171 66.2019 353.413 67.4671 354.919L89.5567 381.211C90.8219 382.717 93.073 382.916 94.5846 381.655L149.92 335.512C151.432 334.252 151.632 332.009 150.366 330.504Z" fill="#FFD2A6"/>
<path d="M150.366 330.504L128.277 304.212C127.011 302.706 124.76 302.507 123.249 303.768L67.9132 349.91C66.4016 351.171 66.2019 353.413 67.4671 354.919L89.5567 381.211C90.8219 382.717 93.073 382.916 94.5846 381.655L149.92 335.512C151.432 334.252 151.632 332.009 150.366 330.504Z" fill="#105D38"/>
<path d="M146 332.358L125.382 307.819C124.251 306.473 122.239 306.295 120.888 307.421L73.3598 347.054C72.0086 348.18 71.83 350.185 72.961 351.531L93.5789 376.071C94.7099 377.417 96.7221 377.595 98.0733 376.468L145.601 336.836C146.953 335.709 147.131 333.705 146 332.358Z" fill="#4CD080"/>
<path d="M35.3003 344.57C38.1527 341.908 41.2413 339.509 44.5282 337.403C48.0854 335.34 51.7991 333.558 55.6354 332.073C62.8719 329.076 70.1154 326.065 77.6114 323.815C79.8903 323.117 82.1833 322.516 84.4762 321.908L104.299 316.613C104.924 318.59 103.851 320.686 102.652 322.376C98.9102 327.652 93.6692 331.691 87.6036 333.973C85.8857 334.615 84.0976 335.132 82.6391 336.271C81.5787 337.219 80.6369 338.291 79.8342 339.463C75.4516 345.052 69.0356 349.306 66.5112 355.936C65.6627 358.136 65.2701 360.539 64.0149 362.53C62.6125 364.717 60.3686 366.17 58.1738 367.546C49.7593 372.848 41.0923 378.206 31.4155 380.665C30.2725 381.054 29.0423 381.112 27.8674 380.833C26.7212 380.334 25.7359 379.529 25.0205 378.507C22.44 375.482 19.6562 372.534 17.2511 369.369C14.9371 366.316 16.045 364.402 18.394 361.797C23.7151 355.756 29.3587 350.006 35.3003 344.57Z" fill="#FCD4D0"/>
<path d="M376.685 425.234C368.748 413.267 357.465 403.962 346.365 394.839C343.826 392.743 341.239 390.753 338.056 389.809C335.3 388.978 332.446 389.439 329.599 388.79C324.051 387.513 318.735 385.393 313.836 382.502L313.352 382.209C307.041 378.444 300.933 373.253 293.564 373.037C292.15 372.994 290.736 373.13 289.356 373.442C283.368 374.65 277.779 378.332 271.651 379.436C270.164 379.708 268.355 379.708 267.443 378.472C266.532 377.235 267.17 375.594 267.899 374.28C269.149 372.062 270.841 370.122 272.871 368.58C270.276 366.638 266.658 367.986 263.692 369.195C260.726 370.403 256.722 371.241 254.731 368.741C253.328 366.987 253.672 364.326 254.969 362.453C256.266 360.581 258.237 359.415 260.13 358.262C258.237 354.713 252.837 354.951 249.436 357.102C246.547 358.905 243.553 361.867 240.286 360.819C237.263 359.792 236.394 355.628 237.747 352.778C239.101 349.928 241.954 348.07 244.71 346.4C243.714 339.38 242.74 332.359 241.744 325.317C241.555 323.808 241.281 322.195 240.342 321.014C238.161 318.22 233.161 318.618 231.52 315.468C230.412 313.316 231.71 311.276 233.785 310.012C235.861 308.747 239.753 309.313 242.13 309.662C248.364 310.682 252.438 312.967 258.3 315.363C263.994 317.759 270.15 319.051 275.956 321.147C282.786 323.62 289.181 327.197 295.527 330.717C301.2 333.924 306.866 337.095 312.559 340.295C318.744 343.788 324.901 347.211 330.791 351.137C336.113 354.629 341.309 358.772 344.941 364.018C345.993 362.188 347.557 360.253 349.633 360.602C350.263 360.762 350.859 361.035 351.393 361.406C358.765 365.737 366.134 370.077 373.502 374.427C374.014 374.72 375.844 375.978 376.117 376.488C375.542 392.52 375.037 409.362 376.685 425.234Z" fill="#FCD4D0"/>
<path d="M361.09 366.442L357.788 364.71C357.633 364.605 357.447 364.558 357.262 364.577C357.095 364.636 356.957 364.756 356.876 364.912C356.305 365.929 355.929 367.042 355.768 368.196C354.694 373.014 352.487 377.51 349.331 381.315C347.564 383.445 345.425 385.506 344.808 388.182C344.191 390.857 345.208 393.596 346.87 395.705C348.531 397.815 350.846 399.387 353.096 400.784C355.347 402.181 357.731 403.578 359.66 405.478C364.912 402.055 367.801 396.048 369.996 390.187C370.108 389.879 370.332 389.488 370.697 389.558C370.848 389.604 370.979 389.7 371.068 389.83C372.793 391.842 373.796 394.49 375.977 396.041L376.79 377.382C376.846 376.991 376.793 376.592 376.636 376.229C376.391 375.882 376.05 375.612 375.654 375.454C371.173 373.12 366.901 370.406 362.885 367.343" fill="url(#paint2_linear_162_6983)"/>
<path d="M325.069 377.605C325.135 378.56 324.976 379.517 324.606 380.4C323.688 382.146 321.367 382.551 319.396 382.635C317.542 382.703 315.685 382.666 313.836 382.523L313.352 382.23C307.041 378.465 300.933 373.274 293.563 373.058C292.149 373.015 290.736 373.151 289.356 373.463C287.944 372.485 286.65 371.349 285.5 370.075C283.834 368.162 282.612 365.907 281.921 363.471C281.23 361.034 281.087 358.476 281.503 355.978C282.961 347.644 294.826 337.179 301.613 347.05C303.691 350.206 306.139 353.105 308.906 355.684C313.197 359.666 319.677 360.658 322.972 365.932C325.013 369.348 325.069 373.54 325.069 377.605Z" fill="url(#paint3_linear_162_6983)"/>
<path d="M285.358 381.206L307.447 354.914C308.712 353.408 308.513 351.166 307.001 349.905L251.665 303.763C250.154 302.502 247.903 302.701 246.638 304.207L224.548 330.498C223.283 332.004 223.482 334.247 224.994 335.507L280.33 381.65C281.841 382.91 284.092 382.711 285.358 381.206Z" fill="#105D38"/>
<path d="M285.358 381.206L307.447 354.914C308.712 353.408 308.513 351.166 307.001 349.905L251.665 303.763C250.154 302.502 247.903 302.701 246.638 304.207L224.548 330.498C223.283 332.004 223.482 334.247 224.994 335.507L280.33 381.65C281.841 382.91 284.092 382.711 285.358 381.206Z" fill="url(#paint4_linear_162_6983)"/>
<path d="M281.33 376.054L301.948 351.514C303.079 350.168 302.9 348.163 301.549 347.036L254.021 307.404C252.67 306.277 250.657 306.455 249.526 307.801L228.909 332.341C227.778 333.687 227.956 335.692 229.307 336.819L276.835 376.451C278.187 377.578 280.199 377.4 281.33 376.054Z" fill="#4CD080"/>
<path d="M339.626 344.57C336.775 341.91 333.689 339.511 330.405 337.403C326.846 335.34 323.129 333.558 319.291 332.073C312.061 329.076 304.811 326.065 297.315 323.815C295.043 323.117 292.743 322.516 290.45 321.908L270.627 316.613C270.003 318.59 271.076 320.686 272.275 322.376C276.016 327.652 281.257 331.691 287.323 333.973C289.041 334.615 290.829 335.132 292.294 336.271C293.353 337.22 294.295 338.292 295.099 339.463C299.482 345.052 305.898 349.306 308.457 355.936C309.306 358.136 309.698 360.539 310.96 362.53C312.363 364.717 314.6 366.17 316.795 367.546C325.244 372.848 333.876 378.206 343.553 380.665C344.696 381.054 345.926 381.112 347.101 380.833C348.248 380.332 349.235 379.527 349.955 378.507C352.528 375.482 355.319 372.534 357.717 369.369C360.031 366.316 358.923 364.402 356.574 361.797C351.24 355.755 345.582 350.005 339.626 344.57Z" fill="#FCD4D0"/>
<path d="M151.933 318.967L150.453 316.907C153.355 314.987 156.436 313.349 159.653 312.017L160.656 314.343C157.608 315.607 154.687 317.155 151.933 318.967ZM218.926 314.706C215.859 313.402 212.714 312.287 209.509 311.367L210.21 308.936C213.516 309.884 216.759 311.034 219.922 312.38L218.926 314.706ZM170.073 311.046L169.372 308.601C172.696 307.692 176.079 307.01 179.497 306.561L179.827 309.076C176.534 309.507 173.275 310.165 170.073 311.046ZM199.755 309.271C196.463 308.787 193.14 308.528 189.812 308.496V305.96C193.258 305.997 196.697 306.267 200.106 306.77L199.755 309.271Z" fill="#FFD2A6"/>
<path d="M299 247C318.882 247 335 230.882 335 211C335 191.118 318.882 175 299 175C279.118 175 263 191.118 263 211C263 230.882 279.118 247 299 247Z" fill="#FFAE58"/>
<path d="M287.491 231.023L284.644 225.357C285.364 224.939 286.099 224.567 286.787 224.118C288.721 223.039 290.206 221.317 290.979 219.257C291.359 217.829 291.192 216.313 290.509 215C290.509 214.845 290.087 214.737 289.853 214.737H283.346V209.906H287.178C286.552 208.776 285.896 207.724 285.395 206.593C284.688 205.037 284.403 203.324 284.567 201.625C284.732 199.926 285.34 198.298 286.333 196.902C287.379 195.326 288.743 193.979 290.339 192.949C291.935 191.918 293.729 191.224 295.608 190.911C299.67 190.019 303.917 190.504 307.667 192.289C310.001 193.468 311.892 195.356 313.063 197.676L306.4 201.438C305.87 200.649 305.291 199.894 304.664 199.178C303.841 198.363 302.808 197.787 301.677 197.514C300.546 197.241 299.361 197.281 298.251 197.63C296.794 197.928 295.515 198.787 294.697 200.018C293.878 201.249 293.587 202.751 293.888 204.194C293.983 204.662 294.14 205.115 294.357 205.541C294.996 206.941 295.749 208.287 296.609 209.566C296.711 209.674 296.834 209.759 296.972 209.815C297.11 209.871 297.258 209.897 297.407 209.891H305.383V214.706H298.658C298.832 216.14 298.61 217.595 298.015 218.914C297.42 220.234 296.475 221.369 295.28 222.198L296.437 222.059C298.6 221.86 300.774 222.29 302.693 223.298C303.845 223.849 305.129 224.072 306.402 223.944C307.675 223.816 308.887 223.34 309.903 222.57C310.202 222.336 310.479 222.077 310.732 221.796C311.858 224.01 312.953 226.193 314.079 228.437C313.049 229.51 311.748 230.29 310.31 230.698C307.184 231.704 303.817 231.704 300.691 230.698C299.782 230.392 298.889 230.041 298.017 229.645C296.794 229.108 295.468 228.843 294.13 228.867C292.793 228.891 291.477 229.204 290.275 229.784L287.491 231.023Z" fill="white"/>
<path d="M361.616 365.779C361.616 365.779 347.339 389.607 346.365 394.839C345.39 400.071 355.789 408.189 358.068 408.189C360.347 408.189 373.445 374.511 373.445 374.511C373.445 374.511 370.479 368.307 361.616 365.779Z" fill="#FFAE58"/>
<path d="M361.974 365.897C361.974 365.897 347.908 389.956 346.94 395.237C345.972 400.518 356.357 408.58 358.636 408.58C360.915 408.58 373.558 374.692 373.558 374.692C373.558 374.692 370.837 368.419 361.974 365.897Z" fill="url(#paint5_linear_162_6983)"/>
<path opacity="0.24" d="M109.818 355.482C117.234 355.482 123.246 349.492 123.246 342.104C123.246 334.716 117.234 328.726 109.818 328.726C102.402 328.726 96.3899 334.716 96.3899 342.104C96.3899 349.492 102.402 355.482 109.818 355.482Z" fill="white"/>
<path opacity="0.24" d="M266.343 354.671C273.759 354.671 279.771 348.682 279.771 341.294C279.771 333.905 273.759 327.916 266.343 327.916C258.926 327.916 252.914 333.905 252.914 341.294C252.914 348.682 258.926 354.671 266.343 354.671Z" fill="white"/>
<path d="M192 490C211.882 490 228 473.882 228 454C228 434.118 211.882 418 192 418C172.118 418 156 434.118 156 454C156 473.882 172.118 490 192 490Z" fill="#FFAE58"/>
<path d="M191.609 450.655L193.35 447.878C195.212 444.89 197.089 441.902 198.938 438.9C199.026 438.718 199.169 438.567 199.347 438.468C199.526 438.369 199.732 438.326 199.936 438.345H206.968C203.756 443.198 200.625 447.957 197.412 452.797H205.619V456.472H194.942V460.108H205.619V463.691H194.956V468.98H188.315V463.691H177.666V460.095H188.248V456.459H177.653V452.797H185.845L176.235 438.253H183.294C183.45 438.234 183.609 438.262 183.748 438.333C183.888 438.403 184.002 438.514 184.077 438.649C185.616 441.126 187.164 443.594 188.72 446.053L191.609 450.655Z" fill="white"/>
<path d="M100 230C119.882 230 136 213.882 136 194C136 174.118 119.882 158 100 158C80.1178 158 64 174.118 64 194C64 213.882 80.1178 230 100 230Z" fill="#FFAE58"/>
<path d="M97.5926 175.567V170.557H103.438V175.704C107.642 176.212 111.581 178.022 114.704 180.882L109.967 187.137C108.145 185.42 105.921 184.188 103.499 183.554V190.447C105.017 190.963 106.536 191.389 107.948 191.966C110.476 192.646 112.644 194.277 113.999 196.518C115.355 198.758 115.792 201.436 115.221 203.991C114.998 205.55 114.431 207.039 113.562 208.352C112.693 209.665 111.543 210.769 110.195 211.583C108.342 212.701 106.271 213.41 104.122 213.663C103.545 213.663 103.438 213.951 103.453 214.468V218.704H97.5926V213.951C96.0742 213.633 94.6318 213.374 93.2197 212.995C90.3066 212.251 87.6311 210.778 85.4457 208.713C84.5195 207.863 84.5347 207.832 85.2635 206.8C86.5238 204.993 87.7992 203.201 89.1353 201.319C91.367 203.78 94.3142 205.479 97.5622 206.177V198.343C95.892 197.781 94.2674 197.325 92.7035 196.688C91.3075 196.236 90.0256 195.488 88.9458 194.495C87.8661 193.502 87.0139 192.287 86.4479 190.933C85.9244 189.6 85.6813 188.173 85.7335 186.741C85.7858 185.31 86.1323 183.904 86.7515 182.613C87.5945 180.938 88.8102 179.478 90.3053 178.346C91.8003 177.214 93.5349 176.44 95.3758 176.084C96.0742 175.871 96.7727 175.765 97.5926 175.567ZM103.484 206.071C104.358 205.98 105.171 205.582 105.779 204.948C106.388 204.315 106.753 203.486 106.809 202.609C106.809 201.303 105.291 200.225 103.484 199.861V206.071ZM97.5167 188.883V183.159C96.7099 183.177 95.94 183.501 95.3624 184.065C94.7847 184.628 94.4423 185.39 94.404 186.196C94.404 187.426 95.7402 188.564 97.5167 188.868V188.883Z" fill="white"/>
<path d="M70.5385 567L77.7065 547.4H81.7385L88.9065 567H85.0985L83.5305 562.464H75.8865L74.2905 567H70.5385ZM76.8665 559.664H82.5505L79.6945 551.516L76.8665 559.664ZM98.0192 567V553.112H101.183L101.463 555.464C101.893 554.643 102.509 553.989 103.311 553.504C104.133 553.019 105.094 552.776 106.195 552.776C107.913 552.776 109.247 553.317 110.199 554.4C111.151 555.483 111.627 557.069 111.627 559.16V567H108.043V559.496C108.043 558.301 107.801 557.387 107.315 556.752C106.83 556.117 106.074 555.8 105.047 555.8C104.039 555.8 103.209 556.155 102.555 556.864C101.921 557.573 101.603 558.563 101.603 559.832V567H98.0192ZM121.802 567.336C120.402 567.336 119.161 567.037 118.078 566.44C116.996 565.843 116.146 565.003 115.53 563.92C114.914 562.837 114.606 561.587 114.606 560.168C114.606 558.731 114.905 557.452 115.502 556.332C116.118 555.212 116.958 554.344 118.022 553.728C119.105 553.093 120.374 552.776 121.83 552.776C123.193 552.776 124.397 553.075 125.442 553.672C126.488 554.269 127.3 555.091 127.878 556.136C128.476 557.163 128.774 558.311 128.774 559.58C128.774 559.785 128.765 560 128.746 560.224C128.746 560.448 128.737 560.681 128.718 560.924H118.162C118.237 562.007 118.61 562.856 119.282 563.472C119.973 564.088 120.804 564.396 121.774 564.396C122.502 564.396 123.109 564.237 123.594 563.92C124.098 563.584 124.472 563.155 124.714 562.632H128.354C128.093 563.509 127.654 564.312 127.038 565.04C126.441 565.749 125.694 566.309 124.798 566.72C123.921 567.131 122.922 567.336 121.802 567.336ZM121.83 555.688C120.953 555.688 120.178 555.94 119.506 556.444C118.834 556.929 118.405 557.676 118.218 558.684H125.134C125.078 557.769 124.742 557.041 124.126 556.5C123.51 555.959 122.745 555.688 121.83 555.688ZM133.958 567L129.898 553.112H133.454L135.862 563.108L138.662 553.112H142.638L145.438 563.108L147.874 553.112H151.43L147.342 567H143.618L140.65 556.612L137.682 567H133.958ZM163.079 567L159.019 553.112H162.575L164.983 563.108L167.783 553.112H171.759L174.559 563.108L176.995 553.112H180.551L176.463 567H172.739L169.771 556.612L166.803 567H163.079ZM186.889 567.336C185.695 567.336 184.715 567.149 183.949 566.776C183.184 566.384 182.615 565.871 182.241 565.236C181.868 564.601 181.681 563.901 181.681 563.136C181.681 561.848 182.185 560.803 183.193 560C184.201 559.197 185.713 558.796 187.729 558.796H191.257V558.46C191.257 557.508 190.987 556.808 190.445 556.36C189.904 555.912 189.232 555.688 188.429 555.688C187.701 555.688 187.067 555.865 186.525 556.22C185.984 556.556 185.648 557.06 185.517 557.732H182.017C182.111 556.724 182.447 555.847 183.025 555.1C183.623 554.353 184.388 553.784 185.321 553.392C186.255 552.981 187.3 552.776 188.457 552.776C190.436 552.776 191.995 553.271 193.133 554.26C194.272 555.249 194.841 556.649 194.841 558.46V567H191.789L191.453 564.76C191.043 565.507 190.464 566.123 189.717 566.608C188.989 567.093 188.047 567.336 186.889 567.336ZM187.701 564.536C188.728 564.536 189.521 564.2 190.081 563.528C190.66 562.856 191.024 562.025 191.173 561.036H188.121C187.169 561.036 186.488 561.213 186.077 561.568C185.667 561.904 185.461 562.324 185.461 562.828C185.461 563.369 185.667 563.789 186.077 564.088C186.488 564.387 187.029 564.536 187.701 564.536ZM199.533 573.16L202.753 566.076H201.913L196.509 553.112H200.401L204.293 562.884L208.353 553.112H212.161L203.341 573.16H199.533ZM227.363 567C225.907 567 224.741 566.645 223.863 565.936C222.986 565.227 222.547 563.967 222.547 562.156V556.108H220.167V553.112H222.547L222.967 549.388H226.131V553.112H229.883V556.108H226.131V562.184C226.131 562.856 226.271 563.323 226.551 563.584C226.85 563.827 227.354 563.948 228.063 563.948H229.799V567H227.363ZM239.269 567.336C237.925 567.336 236.712 567.028 235.629 566.412C234.565 565.796 233.716 564.947 233.081 563.864C232.465 562.763 232.157 561.493 232.157 560.056C232.157 558.619 232.474 557.359 233.109 556.276C233.744 555.175 234.593 554.316 235.657 553.7C236.74 553.084 237.953 552.776 239.297 552.776C240.622 552.776 241.817 553.084 242.881 553.7C243.964 554.316 244.813 555.175 245.429 556.276C246.064 557.359 246.381 558.619 246.381 560.056C246.381 561.493 246.064 562.763 245.429 563.864C244.813 564.947 243.964 565.796 242.881 566.412C241.798 567.028 240.594 567.336 239.269 567.336ZM239.269 564.228C240.202 564.228 241.014 563.883 241.705 563.192C242.396 562.483 242.741 561.437 242.741 560.056C242.741 558.675 242.396 557.639 241.705 556.948C241.014 556.239 240.212 555.884 239.297 555.884C238.345 555.884 237.524 556.239 236.833 556.948C236.161 557.639 235.825 558.675 235.825 560.056C235.825 561.437 236.161 562.483 236.833 563.192C237.524 563.883 238.336 564.228 239.269 564.228ZM256.258 573.16V553.112H259.45L259.842 555.1C260.29 554.484 260.878 553.943 261.606 553.476C262.352 553.009 263.314 552.776 264.49 552.776C265.796 552.776 266.963 553.093 267.99 553.728C269.016 554.363 269.828 555.231 270.426 556.332C271.023 557.433 271.322 558.684 271.322 560.084C271.322 561.484 271.023 562.735 270.426 563.836C269.828 564.919 269.016 565.777 267.99 566.412C266.963 567.028 265.796 567.336 264.49 567.336C263.444 567.336 262.53 567.14 261.746 566.748C260.962 566.356 260.327 565.805 259.842 565.096V573.16H256.258ZM263.734 564.2C264.872 564.2 265.815 563.817 266.562 563.052C267.308 562.287 267.682 561.297 267.682 560.084C267.682 558.871 267.308 557.872 266.562 557.088C265.815 556.304 264.872 555.912 263.734 555.912C262.576 555.912 261.624 556.304 260.878 557.088C260.15 557.853 259.786 558.843 259.786 560.056C259.786 561.269 260.15 562.268 260.878 563.052C261.624 563.817 262.576 564.2 263.734 564.2ZM279.311 567.336C278.116 567.336 277.136 567.149 276.371 566.776C275.606 566.384 275.036 565.871 274.663 565.236C274.29 564.601 274.103 563.901 274.103 563.136C274.103 561.848 274.607 560.803 275.615 560C276.623 559.197 278.135 558.796 280.151 558.796H283.679V558.46C283.679 557.508 283.408 556.808 282.867 556.36C282.326 555.912 281.654 555.688 280.851 555.688C280.123 555.688 279.488 555.865 278.947 556.22C278.406 556.556 278.07 557.06 277.939 557.732H274.439C274.532 556.724 274.868 555.847 275.447 555.1C276.044 554.353 276.81 553.784 277.743 553.392C278.676 552.981 279.722 552.776 280.879 552.776C282.858 552.776 284.416 553.271 285.555 554.26C286.694 555.249 287.263 556.649 287.263 558.46V567H284.211L283.875 564.76C283.464 565.507 282.886 566.123 282.139 566.608C281.411 567.093 280.468 567.336 279.311 567.336ZM280.123 564.536C281.15 564.536 281.943 564.2 282.503 563.528C283.082 562.856 283.446 562.025 283.595 561.036H280.543C279.591 561.036 278.91 561.213 278.499 561.568C278.088 561.904 277.883 562.324 277.883 562.828C277.883 563.369 278.088 563.789 278.499 564.088C278.91 564.387 279.451 564.536 280.123 564.536ZM291.954 573.16L295.174 566.076H294.334L288.93 553.112H292.822L296.714 562.884L300.774 553.112H304.582L295.762 573.16H291.954ZM53.0826 606.336C51.8879 606.336 50.9079 606.149 50.1426 605.776C49.3773 605.384 48.8079 604.871 48.4346 604.236C48.0613 603.601 47.8746 602.901 47.8746 602.136C47.8746 600.848 48.3786 599.803 49.3866 599C50.3946 598.197 51.9066 597.796 53.9226 597.796H57.4506V597.46C57.4506 596.508 57.1799 595.808 56.6386 595.36C56.0973 594.912 55.4253 594.688 54.6226 594.688C53.8946 594.688 53.2599 594.865 52.7186 595.22C52.1773 595.556 51.8413 596.06 51.7106 596.732H48.2106C48.3039 595.724 48.6399 594.847 49.2186 594.1C49.8159 593.353 50.5813 592.784 51.5146 592.392C52.4479 591.981 53.4933 591.776 54.6506 591.776C56.6293 591.776 58.1879 592.271 59.3266 593.26C60.4653 594.249 61.0346 595.649 61.0346 597.46V606H57.9826L57.6466 603.76C57.2359 604.507 56.6573 605.123 55.9106 605.608C55.1826 606.093 54.2399 606.336 53.0826 606.336ZM53.8946 603.536C54.9213 603.536 55.7146 603.2 56.2746 602.528C56.8533 601.856 57.2173 601.025 57.3666 600.036H54.3146C53.3626 600.036 52.6813 600.213 52.2706 600.568C51.8599 600.904 51.6546 601.324 51.6546 601.828C51.6546 602.369 51.8599 602.789 52.2706 603.088C52.6813 603.387 53.2226 603.536 53.8946 603.536ZM64.4548 606V592.112H67.6188L67.8988 594.464C68.3281 593.643 68.9441 592.989 69.7468 592.504C70.5681 592.019 71.5294 591.776 72.6308 591.776C74.3481 591.776 75.6828 592.317 76.6348 593.4C77.5868 594.483 78.0628 596.069 78.0628 598.16V606H74.4788V598.496C74.4788 597.301 74.2361 596.387 73.7508 595.752C73.2654 595.117 72.5094 594.8 71.4828 594.8C70.4748 594.8 69.6441 595.155 68.9908 595.864C68.3561 596.573 68.0388 597.563 68.0388 598.832V606H64.4548ZM82.7611 612.16L85.9811 605.076H85.1411L79.7371 592.112H83.6291L87.5211 601.884L91.5811 592.112H95.3891L86.5691 612.16H82.7611ZM103.92 606C102.464 606 101.297 605.645 100.42 604.936C99.5428 604.227 99.1041 602.967 99.1041 601.156V595.108H96.7241V592.112H99.1041L99.5241 588.388H102.688V592.112H106.44V595.108H102.688V601.184C102.688 601.856 102.828 602.323 103.108 602.584C103.407 602.827 103.911 602.948 104.62 602.948H106.356V606H103.92ZM109.517 606V585.84H113.101V594.24C113.568 593.475 114.193 592.877 114.977 592.448C115.78 592 116.695 591.776 117.721 591.776C119.439 591.776 120.764 592.317 121.697 593.4C122.649 594.483 123.125 596.069 123.125 598.16V606H119.569V598.496C119.569 597.301 119.327 596.387 118.841 595.752C118.375 595.117 117.628 594.8 116.601 594.8C115.593 594.8 114.753 595.155 114.081 595.864C113.428 596.573 113.101 597.563 113.101 598.832V606H109.517ZM128.484 589.956C127.831 589.956 127.29 589.76 126.86 589.368C126.45 588.976 126.244 588.481 126.244 587.884C126.244 587.287 126.45 586.801 126.86 586.428C127.29 586.036 127.831 585.84 128.484 585.84C129.138 585.84 129.67 586.036 130.08 586.428C130.51 586.801 130.724 587.287 130.724 587.884C130.724 588.481 130.51 588.976 130.08 589.368C129.67 589.76 129.138 589.956 128.484 589.956ZM126.692 606V592.112H130.276V606H126.692ZM134.017 606V592.112H137.181L137.461 594.464C137.891 593.643 138.507 592.989 139.309 592.504C140.131 592.019 141.092 591.776 142.193 591.776C143.911 591.776 145.245 592.317 146.197 593.4C147.149 594.483 147.625 596.069 147.625 598.16V606H144.041V598.496C144.041 597.301 143.799 596.387 143.313 595.752C142.828 595.117 142.072 594.8 141.045 594.8C140.037 594.8 139.207 595.155 138.553 595.864C137.919 596.573 137.601 597.563 137.601 598.832V606H134.017ZM156.932 601.856C156.26 601.856 155.635 601.781 155.056 601.632L154.02 602.668C154.338 602.836 154.767 602.976 155.308 603.088C155.85 603.2 156.727 603.312 157.94 603.424C159.788 603.592 161.132 604.031 161.972 604.74C162.812 605.449 163.232 606.429 163.232 607.68C163.232 608.501 163.008 609.276 162.56 610.004C162.112 610.751 161.422 611.348 160.488 611.796C159.555 612.263 158.36 612.496 156.904 612.496C154.926 612.496 153.33 612.123 152.116 611.376C150.903 610.648 150.296 609.547 150.296 608.072C150.296 606.821 150.903 605.739 152.116 604.824C151.743 604.656 151.416 604.479 151.136 604.292C150.875 604.105 150.642 603.909 150.436 603.704V603.06L152.872 600.484C151.79 599.532 151.248 598.309 151.248 596.816C151.248 595.883 151.472 595.033 151.92 594.268C152.387 593.503 153.04 592.896 153.88 592.448C154.72 592 155.738 591.776 156.932 591.776C157.716 591.776 158.444 591.888 159.116 592.112H164.38V594.296L162 594.464C162.374 595.173 162.56 595.957 162.56 596.816C162.56 597.749 162.336 598.599 161.888 599.364C161.44 600.129 160.787 600.736 159.928 601.184C159.088 601.632 158.09 601.856 156.932 601.856ZM156.932 599.112C157.66 599.112 158.258 598.916 158.724 598.524C159.21 598.132 159.452 597.572 159.452 596.844C159.452 596.116 159.21 595.556 158.724 595.164C158.258 594.772 157.66 594.576 156.932 594.576C156.167 594.576 155.551 594.772 155.084 595.164C154.618 595.556 154.384 596.116 154.384 596.844C154.384 597.572 154.618 598.132 155.084 598.524C155.551 598.916 156.167 599.112 156.932 599.112ZM153.572 607.708C153.572 608.399 153.89 608.912 154.524 609.248C155.178 609.603 155.971 609.78 156.904 609.78C157.8 609.78 158.528 609.593 159.088 609.22C159.648 608.865 159.928 608.38 159.928 607.764C159.928 607.26 159.742 606.84 159.368 606.504C159.014 606.168 158.295 605.963 157.212 605.888C156.447 605.832 155.738 605.748 155.084 605.636C154.543 605.935 154.151 606.261 153.908 606.616C153.684 606.971 153.572 607.335 153.572 607.708ZM173.666 606V592.112H176.83L177.138 593.988C177.586 593.316 178.174 592.784 178.902 592.392C179.648 591.981 180.507 591.776 181.478 591.776C183.624 591.776 185.146 592.607 186.042 594.268C186.546 593.503 187.218 592.896 188.058 592.448C188.916 592 189.85 591.776 190.858 591.776C192.668 591.776 194.059 592.317 195.03 593.4C196 594.483 196.486 596.069 196.486 598.16V606H192.902V598.496C192.902 597.301 192.668 596.387 192.202 595.752C191.754 595.117 191.054 594.8 190.102 594.8C189.131 594.8 188.347 595.155 187.75 595.864C187.171 596.573 186.882 597.563 186.882 598.832V606H183.298V598.496C183.298 597.301 183.064 596.387 182.598 595.752C182.131 595.117 181.412 594.8 180.442 594.8C179.49 594.8 178.715 595.155 178.118 595.864C177.539 596.573 177.25 597.563 177.25 598.832V606H173.666ZM206.552 606.336C205.208 606.336 203.995 606.028 202.912 605.412C201.848 604.796 200.999 603.947 200.364 602.864C199.748 601.763 199.44 600.493 199.44 599.056C199.44 597.619 199.758 596.359 200.392 595.276C201.027 594.175 201.876 593.316 202.94 592.7C204.023 592.084 205.236 591.776 206.58 591.776C207.906 591.776 209.1 592.084 210.164 592.7C211.247 593.316 212.096 594.175 212.712 595.276C213.347 596.359 213.664 597.619 213.664 599.056C213.664 600.493 213.347 601.763 212.712 602.864C212.096 603.947 211.247 604.796 210.164 605.412C209.082 606.028 207.878 606.336 206.552 606.336ZM206.552 603.228C207.486 603.228 208.298 602.883 208.988 602.192C209.679 601.483 210.024 600.437 210.024 599.056C210.024 597.675 209.679 596.639 208.988 595.948C208.298 595.239 207.495 594.884 206.58 594.884C205.628 594.884 204.807 595.239 204.116 595.948C203.444 596.639 203.108 597.675 203.108 599.056C203.108 600.437 203.444 601.483 204.116 602.192C204.807 602.883 205.619 603.228 206.552 603.228ZM216.869 606V592.112H220.061L220.397 594.716C220.901 593.82 221.582 593.111 222.441 592.588C223.318 592.047 224.345 591.776 225.521 591.776V595.556H224.513C223.729 595.556 223.029 595.677 222.413 595.92C221.797 596.163 221.311 596.583 220.957 597.18C220.621 597.777 220.453 598.608 220.453 599.672V606H216.869ZM234.472 606.336C233.072 606.336 231.831 606.037 230.748 605.44C229.666 604.843 228.816 604.003 228.2 602.92C227.584 601.837 227.276 600.587 227.276 599.168C227.276 597.731 227.575 596.452 228.172 595.332C228.788 594.212 229.628 593.344 230.692 592.728C231.775 592.093 233.044 591.776 234.5 591.776C235.863 591.776 237.067 592.075 238.112 592.672C239.158 593.269 239.97 594.091 240.548 595.136C241.146 596.163 241.444 597.311 241.444 598.58C241.444 598.785 241.435 599 241.416 599.224C241.416 599.448 241.407 599.681 241.388 599.924H230.832C230.907 601.007 231.28 601.856 231.952 602.472C232.643 603.088 233.474 603.396 234.444 603.396C235.172 603.396 235.779 603.237 236.264 602.92C236.768 602.584 237.142 602.155 237.384 601.632H241.024C240.763 602.509 240.324 603.312 239.708 604.04C239.111 604.749 238.364 605.309 237.468 605.72C236.591 606.131 235.592 606.336 234.472 606.336ZM234.5 594.688C233.623 594.688 232.848 594.94 232.176 595.444C231.504 595.929 231.075 596.676 230.888 597.684H237.804C237.748 596.769 237.412 596.041 236.796 595.5C236.18 594.959 235.415 594.688 234.5 594.688ZM251.775 606V595.108H249.871V592.112H251.775V590.488C251.775 588.808 252.195 587.613 253.035 586.904C253.893 586.195 255.051 585.84 256.507 585.84H258.047V588.892H257.067C256.451 588.892 256.012 589.013 255.751 589.256C255.489 589.499 255.359 589.909 255.359 590.488V592.112H258.355V595.108H255.359V606H251.775ZM265.434 606.336C264.24 606.336 263.26 606.149 262.494 605.776C261.729 605.384 261.16 604.871 260.786 604.236C260.413 603.601 260.226 602.901 260.226 602.136C260.226 600.848 260.73 599.803 261.738 599C262.746 598.197 264.258 597.796 266.274 597.796H269.802V597.46C269.802 596.508 269.532 595.808 268.99 595.36C268.449 594.912 267.777 594.688 266.974 594.688C266.246 594.688 265.612 594.865 265.07 595.22C264.529 595.556 264.193 596.06 264.062 596.732H260.562C260.656 595.724 260.992 594.847 261.57 594.1C262.168 593.353 262.933 592.784 263.866 592.392C264.8 591.981 265.845 591.776 267.002 591.776C268.981 591.776 270.54 592.271 271.678 593.26C272.817 594.249 273.386 595.649 273.386 597.46V606H270.334L269.998 603.76C269.588 604.507 269.009 605.123 268.262 605.608C267.534 606.093 266.592 606.336 265.434 606.336ZM266.246 603.536C267.273 603.536 268.066 603.2 268.626 602.528C269.205 601.856 269.569 601.025 269.718 600.036H266.666C265.714 600.036 265.033 600.213 264.622 600.568C264.212 600.904 264.006 601.324 264.006 601.828C264.006 602.369 264.212 602.789 264.622 603.088C265.033 603.387 265.574 603.536 266.246 603.536ZM282.546 606.336C281.314 606.336 280.232 606.14 279.298 605.748C278.365 605.337 277.618 604.777 277.058 604.068C276.498 603.359 276.162 602.537 276.05 601.604H279.662C279.774 602.145 280.073 602.612 280.558 603.004C281.062 603.377 281.706 603.564 282.49 603.564C283.274 603.564 283.844 603.405 284.198 603.088C284.572 602.771 284.758 602.407 284.758 601.996C284.758 601.399 284.497 600.997 283.974 600.792C283.452 600.568 282.724 600.353 281.79 600.148C281.193 600.017 280.586 599.859 279.97 599.672C279.354 599.485 278.785 599.252 278.262 598.972C277.758 598.673 277.348 598.3 277.03 597.852C276.713 597.385 276.554 596.816 276.554 596.144C276.554 594.912 277.04 593.876 278.01 593.036C279 592.196 280.381 591.776 282.154 591.776C283.797 591.776 285.104 592.159 286.074 592.924C287.064 593.689 287.652 594.744 287.838 596.088H284.45C284.245 595.061 283.47 594.548 282.126 594.548C281.454 594.548 280.932 594.679 280.558 594.94C280.204 595.201 280.026 595.528 280.026 595.92C280.026 596.331 280.297 596.657 280.838 596.9C281.38 597.143 282.098 597.367 282.994 597.572C283.965 597.796 284.852 598.048 285.654 598.328C286.476 598.589 287.129 598.991 287.614 599.532C288.1 600.055 288.342 600.811 288.342 601.8C288.361 602.659 288.137 603.433 287.67 604.124C287.204 604.815 286.532 605.356 285.654 605.748C284.777 606.14 283.741 606.336 282.546 606.336ZM297.268 606C295.812 606 294.645 605.645 293.768 604.936C292.89 604.227 292.452 602.967 292.452 601.156V595.108H290.072V592.112H292.452L292.872 588.388H296.036V592.112H299.788V595.108H296.036V601.184C296.036 601.856 296.176 602.323 296.456 602.584C296.754 602.827 297.258 602.948 297.968 602.948H299.704V606H297.268ZM309.257 606.336C307.857 606.336 306.616 606.037 305.533 605.44C304.451 604.843 303.601 604.003 302.985 602.92C302.369 601.837 302.061 600.587 302.061 599.168C302.061 597.731 302.36 596.452 302.957 595.332C303.573 594.212 304.413 593.344 305.477 592.728C306.56 592.093 307.829 591.776 309.285 591.776C310.648 591.776 311.852 592.075 312.897 592.672C313.943 593.269 314.755 594.091 315.333 595.136C315.931 596.163 316.229 597.311 316.229 598.58C316.229 598.785 316.22 599 316.201 599.224C316.201 599.448 316.192 599.681 316.173 599.924H305.617C305.692 601.007 306.065 601.856 306.737 602.472C307.428 603.088 308.259 603.396 309.229 603.396C309.957 603.396 310.564 603.237 311.049 602.92C311.553 602.584 311.927 602.155 312.169 601.632H315.809C315.548 602.509 315.109 603.312 314.493 604.04C313.896 604.749 313.149 605.309 312.253 605.72C311.376 606.131 310.377 606.336 309.257 606.336ZM309.285 594.688C308.408 594.688 307.633 594.94 306.961 595.444C306.289 595.929 305.86 596.676 305.673 597.684H312.589C312.533 596.769 312.197 596.041 311.581 595.5C310.965 594.959 310.2 594.688 309.285 594.688ZM319.244 606V592.112H322.436L322.772 594.716C323.276 593.82 323.957 593.111 324.816 592.588C325.693 592.047 326.72 591.776 327.896 591.776V595.556H326.888C326.104 595.556 325.404 595.677 324.788 595.92C324.172 596.163 323.686 596.583 323.332 597.18C322.996 597.777 322.828 598.608 322.828 599.672V606H319.244Z" fill="white"/>
<rect x="120" y="799" width="134" height="5" rx="2.5" fill="#E0E0E0"/>
<g clip-path="url(#clip1_162_6983)">
<path opacity="0.35" d="M336.5 20C336.5 18.8034 337.47 17.8334 338.667 17.8334H355.333C356.53 17.8334 357.5 18.8034 357.5 20V26C357.5 27.1967 356.53 28.1667 355.333 28.1667H338.667C337.47 28.1667 336.5 27.1967 336.5 26V20Z" stroke="white"/>
<path opacity="0.4" d="M359 21V25C359.805 24.6613 360.328 23.8732 360.328 23C360.328 22.1269 359.805 21.3388 359 21Z" fill="white"/>
<path d="M338 20.6667C338 19.9303 338.597 19.3334 339.333 19.3334H354.667C355.403 19.3334 356 19.9303 356 20.6667V25.3334C356 26.0698 355.403 26.6667 354.667 26.6667H339.333C338.597 26.6667 338 26.0698 338 25.3334V20.6667Z" fill="white"/>
<path fill-rule="evenodd" clip-rule="evenodd" d="M323.33 19.608C325.546 19.6081 327.678 20.4596 329.283 21.9863C329.404 22.1042 329.598 22.1027 329.717 21.983L330.873 20.8163C330.933 20.7556 330.967 20.6734 330.966 20.5878C330.966 20.5022 330.931 20.4204 330.87 20.3603C326.655 16.3208 320.005 16.3208 315.79 20.3603C315.729 20.4203 315.694 20.5021 315.694 20.5877C315.693 20.6733 315.727 20.7556 315.787 20.8163L316.943 21.983C317.062 22.1029 317.256 22.1044 317.377 21.9863C318.983 20.4595 321.114 19.608 323.33 19.608ZM323.33 23.4037C324.548 23.4036 325.722 23.8561 326.624 24.6733C326.747 24.7893 326.939 24.7868 327.058 24.6677L328.212 23.501C328.273 23.4398 328.307 23.3568 328.306 23.2705C328.305 23.1843 328.27 23.102 328.208 23.042C325.46 20.4856 321.204 20.4856 318.455 23.042C318.393 23.102 318.358 23.1843 318.357 23.2706C318.356 23.3569 318.39 23.4399 318.451 23.501L319.605 24.6677C319.724 24.7868 319.917 24.7893 320.039 24.6733C320.941 23.8567 322.114 23.4042 323.33 23.4037ZM325.643 25.9575C325.645 26.044 325.611 26.1274 325.549 26.188L323.552 28.2037C323.494 28.2629 323.414 28.2963 323.33 28.2963C323.247 28.2963 323.167 28.2629 323.109 28.2037L321.111 26.188C321.049 26.1274 321.015 26.0439 321.017 25.9574C321.019 25.8709 321.057 25.789 321.121 25.731C322.396 24.6521 324.265 24.6521 325.54 25.731C325.604 25.7891 325.642 25.871 325.643 25.9575Z" fill="white"/>
<path fill-rule="evenodd" clip-rule="evenodd" d="M309.667 17.6666H308.667C308.114 17.6666 307.667 18.1143 307.667 18.6666V27.3333C307.667 27.8856 308.114 28.3333 308.667 28.3333H309.667C310.219 28.3333 310.667 27.8856 310.667 27.3333V18.6666C310.667 18.1143 310.219 17.6666 309.667 17.6666ZM304 20H305C305.552 20 306 20.4477 306 21V27.3333C306 27.8856 305.552 28.3333 305 28.3333H304C303.448 28.3333 303 27.8856 303 27.3333V21C303 20.4477 303.448 20 304 20ZM300.333 22.3333H299.333C298.781 22.3333 298.333 22.781 298.333 23.3333V27.3333C298.333 27.8856 298.781 28.3333 299.333 28.3333H300.333C300.886 28.3333 301.333 27.8856 301.333 27.3333V23.3333C301.333 22.781 300.886 22.3333 300.333 22.3333ZM295.667 24.3333H294.667C294.114 24.3333 293.667 24.781 293.667 25.3333V27.3333C293.667 27.8856 294.114 28.3333 294.667 28.3333H295.667C296.219 28.3333 296.667 27.8856 296.667 27.3333V25.3333C296.667 24.781 296.219 24.3333 295.667 24.3333Z" fill="white"/>
<path d="M37.3208 28.2563C40.0088 28.2563 41.6055 26.1543 41.6055 22.5947C41.6055 21.2544 41.3491 20.1265 40.8584 19.2549C40.1479 17.8999 38.9248 17.1675 37.3794 17.1675C35.0796 17.1675 33.4536 18.7129 33.4536 20.8809C33.4536 22.917 34.9185 24.3965 36.9326 24.3965C38.1704 24.3965 39.1738 23.8179 39.6719 22.8145H39.6938C39.6938 22.8145 39.7231 22.8145 39.7305 22.8145C39.7451 22.8145 39.7964 22.8145 39.7964 22.8145C39.7964 25.2314 38.8809 26.6743 37.3354 26.6743C36.4272 26.6743 35.7241 26.1763 35.4824 25.3779H33.6001C33.915 27.1138 35.3872 28.2563 37.3208 28.2563ZM37.3867 22.895C36.1709 22.895 35.3066 22.0308 35.3066 20.8223C35.3066 19.6431 36.2148 18.7422 37.394 18.7422C38.5732 18.7422 39.4814 19.6577 39.4814 20.8516C39.4814 22.0308 38.5952 22.895 37.3867 22.895Z" fill="white"/>
<path d="M44.6966 28.1538C45.3924 28.1538 45.8685 27.6558 45.8685 26.9966C45.8685 26.3301 45.3924 25.8394 44.6966 25.8394C44.0081 25.8394 43.5247 26.3301 43.5247 26.9966C43.5247 27.6558 44.0081 28.1538 44.6966 28.1538ZM44.6966 22.6606C45.3924 22.6606 45.8685 22.1699 45.8685 21.5107C45.8685 20.8442 45.3924 20.3535 44.6966 20.3535C44.0081 20.3535 43.5247 20.8442 43.5247 21.5107C43.5247 22.1699 44.0081 22.6606 44.6966 22.6606Z" fill="white"/>
<path d="M52.7242 28H54.5333V26.0298H55.9615V24.4331H54.5333V17.4312H51.8673C49.9996 20.2437 48.5128 22.5947 47.5606 24.3452V26.0298H52.7242V28ZM49.3111 24.3672C50.5416 22.1992 51.6402 20.4634 52.651 18.9692H52.7535V24.4771H49.3111V24.3672Z" fill="white"/>
<path d="M59.9901 28H61.8798V17.4312H59.9975L57.2362 19.3647V21.1812L59.8656 19.3354H59.9901V28Z" fill="white"/>
</g>
</g>
<defs>
<linearGradient id="paint0_linear_162_6983" x1="370.535" y1="364.402" x2="364.867" y2="374.648" gradientUnits="userSpaceOnUse">
<stop stop-color="#010101" stop-opacity="0"/>
<stop offset="0.95" stop-color="#010101"/>
</linearGradient>
<linearGradient id="paint1_linear_162_6983" x1="2056.03" y1="10107.6" x2="11692.9" y2="8496.28" gradientUnits="userSpaceOnUse">
<stop stop-color="#010101" stop-opacity="0"/>
<stop offset="0.95" stop-color="#010101"/>
</linearGradient>
<linearGradient id="paint2_linear_162_6983" x1="15346.4" y1="9586.68" x2="21755.7" y2="14378.1" gradientUnits="userSpaceOnUse">
<stop stop-color="#010101" stop-opacity="0"/>
<stop offset="0.95" stop-color="#010101"/>
</linearGradient>
<linearGradient id="paint3_linear_162_6983" x1="17479.1" y1="11749.3" x2="32076.2" y2="710.818" gradientUnits="userSpaceOnUse">
<stop stop-color="#010101" stop-opacity="0"/>
<stop offset="0.95" stop-color="#010101"/>
</linearGradient>
<linearGradient id="paint4_linear_162_6983" x1="14541.8" y1="19694.1" x2="28998.6" y2="15628.5" gradientUnits="userSpaceOnUse">
<stop stop-color="#010101" stop-opacity="0"/>
<stop offset="0.95" stop-color="#010101"/>
</linearGradient>
<linearGradient id="paint5_linear_162_6983" x1="14294.3" y1="11739.5" x2="14998.1" y2="15956.2" gradientUnits="userSpaceOnUse">
<stop stop-color="#010101" stop-opacity="0"/>
<stop offset="0.95" stop-color="#010101"/>
</linearGradient>
<clipPath id="clip0_162_6983">
<rect width="375" height="812" fill="white"/>
</clipPath>
<clipPath id="clip1_162_6983">
<rect width="375" height="44" fill="white"/>
</clipPath>
</defs>
</svg>
