<svg width="28" height="28" viewBox="0 0 28 28" fill="none" xmlns="http://www.w3.org/2000/svg">
<path d="M13.885 5.16173C14.3678 5.43856 14.88 5.79482 15.2697 6.17245L15.1167 6.32545C14.3473 6.24409 13.5371 6.34573 12.8078 6.35692C12.7265 6.27528 12.5627 6.15255 12.7152 6.05L13.885 5.16173ZM27.4873 14.668C27.4975 15.0133 27.5301 15.3099 27.3947 15.6635C25.9893 16.0613 25.0662 14.581 23.7025 14.8042L23.8567 15.5714C25.1182 15.6127 25.9063 16.8162 27.2095 16.7645C27.0244 17.1323 27.2922 18.1017 26.4719 17.7142C25.6203 17.5106 25.0046 16.7645 24.0715 16.7645C23.959 16.9701 24.0303 17.2548 24.0105 17.4981C24.9949 17.6517 25.7029 18.4794 26.6869 18.6322C26.5944 18.9687 26.5027 19.3454 26.2254 19.5505C25.4248 19.3567 24.7994 18.6414 23.9471 18.6619L23.7954 19.3664C24.6052 19.3871 25.1288 20.1 25.8566 20.3141C25.8766 20.6112 25.6097 20.8768 25.4557 21.142C24.8095 20.949 24.3168 20.3967 23.5783 20.4375C23.5681 20.1606 23.7332 19.8465 23.6709 19.5505C22.8416 19.7959 22.2855 19.0294 21.6709 18.5695C21.6533 17.0648 20.0609 16.0776 19.9768 14.668C19.9606 14.3869 20.0036 14.087 20.1325 13.7645C20.6558 12.5608 20.4914 10.9978 19.9176 9.87549C19.7431 9.58005 19.4343 9.34697 19.1463 9.17325C19.5675 10.0615 20.081 11.1109 19.8247 12.2027C19.795 13.0456 19.2949 13.8554 19.2892 14.668C19.2873 14.9578 19.3495 15.2476 19.5171 15.5402C20.1841 16.7354 21.3844 17.8671 20.9331 19.3662C20.809 19.8267 20.4396 20.1827 20.3472 20.6513C21.1277 21.2944 21.8657 22.0191 22.9014 22.0598C23.2704 21.8254 23.0654 20.7857 23.8245 21.2653L24.9329 21.8168C24.8522 22.1119 24.6037 22.3764 24.3788 22.5797C23.9582 22.3762 23.548 22.132 23.0236 22.1519C22.8691 22.3152 22.736 22.4984 22.7478 22.7325C23.1168 22.793 23.4553 22.9478 23.7635 23.1625C23.6203 23.4692 23.3414 23.6612 23.0849 23.8962L22.2252 23.5903C22.0817 23.7947 21.7835 24.0093 21.8881 24.2337C22.0822 24.3163 22.2973 24.428 22.4401 24.5712C22.0606 24.9792 21.5796 25.2419 21.1167 25.5188C20.718 24.2224 19.4043 23.3136 19.5172 21.8144L19.4561 21.7537C19.1474 22.0992 19.2505 22.6513 19.2704 23.0996C19.64 24.0385 20.5215 24.7638 20.6552 25.7935C20.5008 26.0586 20.1529 26.1114 19.8858 26.2235C19.917 24.3671 17.086 22.959 18.9014 21.0811C19.5068 20.1616 20.5213 19.284 20.1619 18.018C19.7929 16.7956 18.4876 16.0382 18.4991 14.668L18.5013 14.5611C18.7984 13.1322 19.7016 11.6117 18.9628 10.0915C18.7568 9.48007 18.2968 8.78525 17.6712 8.5297C18.6041 9.59179 18.9738 11.3248 18.4402 12.7541C18.1712 13.3227 17.8009 13.9999 17.7638 14.6682H17.7615C17.7417 15.0172 17.8132 15.3644 18.0398 15.6934C18.7479 16.8368 19.9782 18.0925 19.2705 19.5824C18.4705 20.7758 17.0756 21.9896 17.8547 23.5615C18.4187 24.5002 19.2915 25.4369 19.0559 26.5909L18.1329 26.8968C18.7483 24.7443 15.7322 23.4796 16.9949 21.3264C17.7743 20.1735 19.1685 19.0916 18.3793 17.5613C17.9075 16.6132 16.9327 16.052 16.9633 14.8672L16.9969 14.6681C17.3146 12.9877 18.5988 11.3969 17.7007 9.60124C17.4648 9.07088 16.9933 8.53034 16.47 8.22398L16.4384 8.25535C17.4852 9.26552 17.8035 10.9277 17.2392 12.2637C16.9759 13.0476 16.398 13.8285 16.2806 14.6684C16.2246 15.0646 16.2717 15.475 16.5017 15.9074C17.1683 16.9576 18.3375 18.0716 17.608 19.4293C16.8397 20.5507 15.5571 21.6419 16.0694 23.1003C16.6338 24.3762 17.8119 25.5917 17.1759 27.1737L16.2232 27.3877C16.982 25.846 15.8444 24.316 15.1778 22.9789C14.3671 21.0604 16.9197 20.1417 16.9607 18.3879C16.951 17.2557 15.7411 16.6129 15.4856 15.5723C14.9619 15.1327 14.4192 15.7469 13.7932 15.6329C13.3311 15.7253 12.6213 15.0001 12.3455 15.7863C12.017 16.9387 10.5203 17.7859 11.178 19.1529C11.8039 20.3676 13.3102 21.2558 12.807 22.8278C12.3565 24.2961 10.8682 25.6942 11.7913 27.3877C11.4121 27.2655 10.7041 27.4995 10.7144 26.8969C10.13 24.8461 12.6221 23.6512 11.8524 21.6014C11.4941 20.3458 9.86202 19.6523 10.2213 18.1421C10.487 16.8991 11.8891 16.0301 11.6925 14.6684C11.675 14.5487 11.6467 14.4308 11.608 14.3162C11.0847 12.8468 10.0169 11.377 10.6533 9.66214C10.828 9.17242 11.177 8.75416 11.4837 8.31635C10.4682 8.85689 9.95588 10.0001 9.97691 11.163C9.93265 12.4277 10.8718 13.5111 11.0054 14.6684C11.0579 15.1355 10.981 15.6138 10.6533 16.1212C9.98714 17.0203 9.1159 17.9685 9.51533 19.1526C9.89512 20.3469 11.3925 21.0706 11.3003 22.4587C11.2901 24.101 9.37195 25.1233 9.91559 26.96L8.9609 26.6519C8.58184 25.0198 10.3253 24.1849 10.3453 22.6748C10.592 20.9385 8.36571 20.2942 8.49932 18.6014C8.48973 17.3153 9.62773 16.5008 10.1303 15.419C10.2165 15.1557 10.2452 14.9071 10.2337 14.6685C10.1721 13.4724 9.08869 12.5374 9.26849 11.1925C9.32898 10.2028 9.66747 9.33514 10.3139 8.59088C9.42202 8.94724 9.05357 9.96859 8.80719 10.8259C8.37964 12.2005 9.40025 13.437 9.50251 14.6685C9.54787 15.2124 9.41436 15.7532 8.89995 16.306C8.16102 17.1721 7.41167 18.2652 7.94517 19.4295C8.51011 20.7141 10.285 21.714 9.51514 23.3162C9.09515 24.3266 8.08947 25.0913 8.13078 26.2849C7.86431 26.1726 7.58787 26.0607 7.36142 25.8571C7.36142 24.3371 9.53506 23.3876 8.49941 21.7856C8.40767 22.1016 8.38794 22.5313 8.31611 22.8884C7.95669 23.8174 7.18771 24.5609 6.89993 25.5213C6.41872 25.3366 5.91555 24.9484 5.51529 24.5403L6.06972 24.2028C6.00813 23.9982 5.84428 23.825 5.7009 23.6515C5.34093 23.6013 5.10452 23.8363 4.80762 23.9284C4.5512 23.7033 4.30372 23.4993 4.0993 23.2237C4.28334 22.7023 5.72137 23.1335 4.99286 22.2761C4.50104 21.9703 4.00737 22.4073 3.57668 22.6113L2.99284 21.8776C3.49545 21.5718 3.99677 21.1422 4.62192 21.2655C4.77599 21.5415 4.78669 21.9473 5.0835 22.0914C6.14016 22.071 6.88887 21.2758 7.69889 20.6532C7.13432 19.8176 6.67477 18.6639 7.17627 17.6531C7.57801 16.6405 8.62509 15.7875 8.67248 14.6679C8.68327 14.4131 8.64334 14.145 8.53132 13.8565C7.97772 12.4379 7.78234 10.5207 8.839 9.26516C8.26448 9.4187 7.92571 10.1311 7.73052 10.6719C7.09532 12.0571 7.8987 13.3404 7.92645 14.6678C7.93023 14.9066 7.91078 15.1458 7.8526 15.3869C7.30877 16.4786 6.42766 17.4365 6.28456 18.6928C5.65867 19.0899 5.14481 19.7845 4.25301 19.5501C4.22166 19.7846 4.29348 20.1419 4.37527 20.4076C3.66806 20.3779 3.18583 20.8966 2.59046 21.1414C2.27318 21.0401 2.19066 20.6322 2.06784 20.3468C2.76482 20.1127 3.26761 19.4176 4.06786 19.4285C4.16062 19.1721 4.01585 18.9372 3.97501 18.6926C2.97956 18.2531 1.40166 20.8654 1.26898 18.6005C2.26368 18.5393 2.89925 17.6207 3.88446 17.5291L3.91388 16.7955C2.79589 16.6832 2.07669 17.8265 0.959167 17.7139L0.712706 16.7348C2.00542 16.8152 2.7756 15.6627 4.00673 15.6007C4.1703 15.3867 4.19003 15.0704 4.22156 14.7748C2.87777 14.6005 1.95572 16.0821 0.529402 15.6322C0.529402 15.6322 0.480254 15.0156 0.453607 14.6679H0.455546C0.450147 14.5909 0.443845 14.5141 0.436642 14.4373C1.70843 14.9281 2.82586 14.0194 3.91388 13.5504C4.19058 13.468 4.6221 13.6108 4.74612 13.3049C4.73551 13.0702 5.16574 12.7958 4.80753 12.632C3.2169 12.4172 2.16023 14.3258 0.529216 13.458L0.40686 13.2125C0.745898 8.60088 3.36028 4.14248 7.69871 1.94851C9.45567 0.94962 11.6385 0.440545 13.8399 0.422383C16.4965 0.400369 19.1812 1.09372 21.1781 2.49996C23.1173 3.68322 24.9722 5.63338 25.9789 7.61309C26.9418 9.3477 27.3848 11.294 27.5172 13.366C25.8347 14.6307 24.7059 12.1746 22.9926 12.7243C23.0848 12.99 23.1359 13.2651 23.3319 13.4896C24.8504 13.4788 25.896 15.0606 27.4856 14.4372L27.4873 14.668ZM8.16001 8.98842C7.09301 8.29443 5.74036 8.94797 4.74603 9.32597C4.65373 8.39697 4.27449 7.55063 3.48374 6.93845C3.40702 6.90039 3.30099 6.82059 3.20546 6.81462C3.1483 6.81105 3.0939 6.83407 3.05167 6.90671C3.41007 9.10023 1.97674 10.6308 0.961013 12.2947C1.29922 12.5696 1.84258 12.5286 2.2528 12.4477C3.32957 12.0194 4.35526 11.2738 5.63737 11.5293C6.01661 10.8865 6.65356 10.2639 7.1759 9.75377C7.49512 9.47896 7.93346 9.30459 8.16001 8.98842ZM11.4223 10.3659C11.4017 10.498 11.4325 10.7336 11.6372 10.6425C11.9557 10.2038 12.5195 10.551 12.8681 10.5818V10.4583C12.6769 10.1596 12.2835 10.0096 11.8839 10.0245C11.7917 10.0278 11.698 10.0411 11.6078 10.062C11.4742 10.0915 11.3811 10.2131 11.4223 10.3659ZM16.438 9.05152C16.1515 8.41871 15.495 8.16262 14.8995 8.00953C14.6073 7.97375 14.3043 7.94963 14.0037 7.9467C13.9473 7.94615 13.8911 7.94541 13.8349 7.9467C12.9942 7.96357 12.1908 8.1783 11.7 8.86679C11.6296 9.06116 11.3199 9.33413 11.6075 9.50832C12.2537 9.46732 12.9912 9.38669 13.422 9.93833C13.422 10.4287 13.7402 11.0809 13.207 11.3156C12.7653 10.9087 12.2421 11.4888 11.7614 11.1623C11.5354 11.0294 11.3924 11.1844 11.2999 11.3783C11.1663 12.6432 11.8322 14.0394 13.0217 14.7432C13.5038 14.9162 14.1519 15.0806 14.6551 14.8353C15.8653 14.2746 16.3666 12.9897 16.5921 11.8059C16.5619 11.5807 16.5725 11.1417 16.2549 11.1309C15.8961 11.3568 15.3728 11.2233 14.9927 11.1309C14.7678 11.2031 14.7575 11.5304 14.5016 11.5924L14.3457 11.4687C14.2121 10.9082 14.1297 10.1121 14.6534 9.72433C15.2386 9.48961 15.9258 9.38715 16.5308 9.57133C16.6438 9.37742 16.4695 9.22488 16.438 9.05152ZM15.8205 10.0576C15.7798 10.0587 15.7404 10.0607 15.7002 10.062C15.4853 10.2046 14.859 10.1021 15.0852 10.5818C15.4751 10.275 16.0187 10.49 16.4085 10.6425C16.5525 10.5714 16.5214 10.4285 16.5307 10.3052C16.4055 10.0736 16.1066 10.052 15.8205 10.0576ZM20.2862 5.74327C19.527 5.70319 18.8913 6.13201 18.1937 6.32591C18.133 5.73539 18.5839 5.11174 18.6868 4.51892C17.5589 4.59111 16.6655 5.26658 15.7322 5.80611C15.5157 5.28586 15.3 4.76523 15.0853 4.24421L16.3163 3.08076L16.3478 2.9274L14.6851 2.83531C14.3988 2.33614 14.2858 1.73488 13.9474 1.2757C13.6705 1.79615 13.4844 2.34687 13.2077 2.86668L11.5471 2.95905V3.08076L12.8074 4.21284C12.6533 4.79474 12.5101 5.427 12.1309 5.86673C11.3925 5.42673 10.6645 4.94792 9.85492 4.64229C9.66009 4.57983 9.38237 4.47811 9.20801 4.61092C9.46406 5.17237 9.82264 5.7762 9.76234 6.38893C9.42358 6.32692 9.15739 6.1109 8.83919 6.0201C8.45866 5.91672 8.00722 5.71502 7.63803 5.83775C8.25359 6.69428 8.75602 7.59089 8.92982 8.62179C10.9719 7.64125 13.3534 7.102 15.8254 7.52109C16.9842 7.70445 18.0496 8.17408 19.0858 8.5608C19.1263 7.47991 19.8133 6.61136 20.2862 5.74327ZM23.7931 11.6215C24.8385 11.8967 25.8871 13.0298 26.9942 12.2947C26.03 10.7031 24.595 9.23333 24.9941 7.15217C25.0359 7.01009 24.9435 6.86626 24.8108 6.84608C24.1854 7.10034 23.701 7.71335 23.4535 8.3158C23.3517 8.67224 23.2916 9.05098 23.1482 9.38697C22.3988 8.99897 21.5994 8.62326 20.6866 8.71398C20.3572 8.75479 19.8855 8.77626 19.8247 9.11252C20.8605 9.66324 21.7124 10.5822 22.3473 11.561C22.7895 11.4894 23.3316 11.5506 23.7931 11.6215ZM12.8386 13.0599L12.8681 13.2444C13.2689 13.5099 13.3922 13.9601 13.9472 13.9193C14.4392 13.9483 14.8084 13.4896 15.0534 13.1226C14.3877 13.031 13.5772 13.1726 12.8386 13.0599ZM13.3926 12.2339C13.4126 12.3156 13.3418 12.438 13.4537 12.4794C13.782 12.4085 14.3766 12.6531 14.56 12.2653C14.4319 12.1227 14.223 12.0579 14.0037 12.0579C13.7845 12.0579 13.5571 12.1214 13.3926 12.2339Z" fill="#499B67"/>
</svg>
