<svg width="14" height="15" viewBox="0 0 14 15" fill="none" xmlns="http://www.w3.org/2000/svg">
<path d="M0.248125 11.1833C0.755908 12.0646 1.882 12.3674 2.7633 11.8596C2.76391 11.8593 2.76448 11.8589 2.76509 11.8586L3.03826 11.7008C3.55393 12.142 4.14666 12.4842 4.78661 12.7101V13.025C4.78661 14.0421 5.61116 14.8667 6.62828 14.8667C7.6454 14.8667 8.46996 14.0421 8.46996 13.025V12.7101C9.10999 12.4838 9.70275 12.1413 10.2183 11.6996L10.4927 11.858C11.3742 12.3666 12.5011 12.0642 13.0097 11.1827C13.5182 10.3012 13.2159 9.1743 12.3344 8.66574L12.0618 8.50859C12.1845 7.84096 12.1845 7.15655 12.0618 6.48888L12.3344 6.33174C13.2159 5.82318 13.5182 4.6963 13.0097 3.81477C12.5011 2.93328 11.3742 2.63093 10.4927 3.13949L10.2195 3.29727C9.70336 2.85662 9.11022 2.5151 8.46996 2.2899V1.97497C8.46996 0.957852 7.6454 0.133301 6.62828 0.133301C5.61116 0.133301 4.78661 0.957852 4.78661 1.97497V2.2899C4.14657 2.51617 3.55381 2.85872 3.03826 3.30037L2.76385 3.14138C1.88232 2.6328 0.755448 2.93515 0.246887 3.81665C-0.261673 4.69814 0.0406488 5.82505 0.922177 6.33361L1.19474 6.49075C1.07204 7.15839 1.07204 7.8428 1.19474 8.51046L0.922177 8.66761C0.0430948 9.17752 -0.258249 10.3022 0.248125 11.1833ZM6.62828 5.04444C7.98444 5.04444 9.08384 6.14383 9.08384 7.49999C9.08384 8.85615 7.98444 9.95554 6.62828 9.95554C5.27212 9.95554 4.17273 8.85615 4.17273 7.49999C4.17273 6.14383 5.27212 5.04444 6.62828 5.04444Z" fill="white"/>
</svg>
