<svg width="18" height="18" viewBox="0 0 18 18" fill="none" xmlns="http://www.w3.org/2000/svg">
<path d="M1 12C1.24493 12 1.48134 12.09 1.66437 12.2527C1.84741 12.4155 1.96434 12.6397 1.993 12.883L2 13V16H6C6.25488 16.0003 6.50003 16.0979 6.68537 16.2728C6.8707 16.4478 6.98224 16.687 6.99717 16.9414C7.01211 17.1958 6.92933 17.4464 6.76574 17.6418C6.60215 17.8373 6.3701 17.9629 6.117 17.993L6 18H2C1.49542 18.0002 1.00943 17.8096 0.639452 17.4665C0.269471 17.1234 0.0428433 16.6532 0.00500011 16.15L0 16V13C0 12.7348 0.105357 12.4804 0.292893 12.2929C0.48043 12.1054 0.734784 12 1 12ZM17 12C17.2652 12 17.5196 12.1054 17.7071 12.2929C17.8946 12.4804 18 12.7348 18 13V16C18 16.5304 17.7893 17.0391 17.4142 17.4142C17.0391 17.7893 16.5304 18 16 18H12C11.7348 18 11.4804 17.8946 11.2929 17.7071C11.1054 17.5196 11 17.2652 11 17C11 16.7348 11.1054 16.4804 11.2929 16.2929C11.4804 16.1054 11.7348 16 12 16H16V13C16 12.7348 16.1054 12.4804 16.2929 12.2929C16.4804 12.1054 16.7348 12 17 12ZM17 8C17.2549 8.00028 17.5 8.09788 17.6854 8.27285C17.8707 8.44782 17.9822 8.68695 17.9972 8.94139C18.0121 9.19584 17.9293 9.44638 17.7657 9.64183C17.6021 9.83729 17.3701 9.9629 17.117 9.993L17 10H1C0.74512 9.99972 0.499968 9.90212 0.314632 9.72715C0.129296 9.55218 0.017765 9.31305 0.00282788 9.05861C-0.0121092 8.80416 0.0706746 8.55362 0.234265 8.35817C0.397855 8.16271 0.629904 8.0371 0.883 8.007L1 8H17ZM6 0C6.26522 0 6.51957 0.105357 6.70711 0.292893C6.89464 0.48043 7 0.734784 7 1C7 1.26522 6.89464 1.51957 6.70711 1.70711C6.51957 1.89464 6.26522 2 6 2H2V5C2 5.26522 1.89464 5.51957 1.70711 5.70711C1.51957 5.89464 1.26522 6 1 6C0.734784 6 0.48043 5.89464 0.292893 5.70711C0.105357 5.51957 0 5.26522 0 5V2C0 1.46957 0.210714 0.960859 0.585786 0.585786C0.960859 0.210714 1.46957 0 2 0H6ZM16 0C16.5304 0 17.0391 0.210714 17.4142 0.585786C17.7893 0.960859 18 1.46957 18 2V5C18 5.26522 17.8946 5.51957 17.7071 5.70711C17.5196 5.89464 17.2652 6 17 6C16.7348 6 16.4804 5.89464 16.2929 5.70711C16.1054 5.51957 16 5.26522 16 5V2H12C11.7348 2 11.4804 1.89464 11.2929 1.70711C11.1054 1.51957 11 1.26522 11 1C11 0.734784 11.1054 0.48043 11.2929 0.292893C11.4804 0.105357 11.7348 0 12 0H16Z" fill="white"/>
</svg>
