<svg width="14" height="15" viewBox="0 0 14 15" fill="none" xmlns="http://www.w3.org/2000/svg">
<path d="M0.248125 11.05C0.755908 11.9313 1.882 12.2341 2.7633 11.7263C2.76391 11.726 2.76448 11.7256 2.76509 11.7253L3.03826 11.5675C3.55393 12.0087 4.14666 12.3509 4.78661 12.5768V12.8917C4.78661 13.9088 5.61116 14.7334 6.62828 14.7334C7.6454 14.7334 8.46996 13.9088 8.46996 12.8917V12.5768C9.10999 12.3505 9.70275 12.008 10.2183 11.5663L10.4927 11.7247C11.3742 12.2333 12.5011 11.9309 13.0097 11.0494C13.5182 10.1679 13.2159 9.041 12.3344 8.53244L12.0618 8.37529C12.1845 7.70766 12.1845 7.02325 12.0618 6.35558L12.3344 6.19844C13.2159 5.68988 13.5182 4.563 13.0097 3.68147C12.5011 2.79998 11.3742 2.49762 10.4927 3.00619L10.2195 3.16396C9.70336 2.72332 9.11022 2.3818 8.46996 2.1566V1.84167C8.46996 0.824551 7.6454 0 6.62828 0C5.61116 0 4.78661 0.824551 4.78661 1.84167V2.1566C4.14657 2.38287 3.55381 2.72542 3.03826 3.16707L2.76385 3.00808C1.88232 2.49949 0.755448 2.80185 0.246887 3.68334C-0.261673 4.56484 0.0406488 5.69175 0.922177 6.20031L1.19474 6.35745C1.07204 7.02509 1.07204 7.7095 1.19474 8.37716L0.922177 8.53431C0.0430948 9.04422 -0.258249 10.1689 0.248125 11.05ZM6.62828 4.91114C7.98444 4.91114 9.08384 6.01053 9.08384 7.36669C9.08384 8.72285 7.98444 9.82224 6.62828 9.82224C5.27212 9.82224 4.17273 8.72285 4.17273 7.36669C4.17273 6.01053 5.27212 4.91114 6.62828 4.91114Z" fill="#263238"/>
</svg>
