<svg width="18" height="18" viewBox="0 0 18 18" fill="none" xmlns="http://www.w3.org/2000/svg">
<path d="M2 8H6C7.1 8 8 7.1 8 6V2C8 0.9 7.1 0 6 0H2C0.9 0 0 0.9 0 2V6C0 7.1 0.9 8 2 8ZM2 2H6V6H2V2ZM2 18H6C7.1 18 8 17.1 8 16V12C8 10.9 7.1 10 6 10H2C0.9 10 0 10.9 0 12V16C0 17.1 0.9 18 2 18ZM2 12H6V16H2V12ZM10 2V6C10 7.1 10.9 8 12 8H16C17.1 8 18 7.1 18 6V2C18 0.9 17.1 0 16 0H12C10.9 0 10 0.9 10 2ZM16 6H12V2H16V6ZM18 17.5V16.5C18 16.22 17.78 16 17.5 16H16.5C16.22 16 16 16.22 16 16.5V17.5C16 17.78 16.22 18 16.5 18H17.5C17.78 18 18 17.78 18 17.5ZM10 10.5V11.5C10 11.78 10.22 12 10.5 12H11.5C11.78 12 12 11.78 12 11.5V10.5C12 10.22 11.78 10 11.5 10H10.5C10.22 10 10 10.22 10 10.5ZM13.5 12H12.5C12.22 12 12 12.22 12 12.5V13.5C12 13.78 12.22 14 12.5 14H13.5C13.78 14 14 13.78 14 13.5V12.5C14 12.22 13.78 12 13.5 12ZM10 14.5V15.5C10 15.78 10.22 16 10.5 16H11.5C11.78 16 12 15.78 12 15.5V14.5C12 14.22 11.78 14 11.5 14H10.5C10.22 14 10 14.22 10 14.5ZM12.5 18H13.5C13.78 18 14 17.78 14 17.5V16.5C14 16.22 13.78 16 13.5 16H12.5C12.22 16 12 16.22 12 16.5V17.5C12 17.78 12.22 18 12.5 18ZM14.5 16H15.5C15.78 16 16 15.78 16 15.5V14.5C16 14.22 15.78 14 15.5 14H14.5C14.22 14 14 14.22 14 14.5V15.5C14 15.78 14.22 16 14.5 16ZM15.5 10H14.5C14.22 10 14 10.22 14 10.5V11.5C14 11.78 14.22 12 14.5 12H15.5C15.78 12 16 11.78 16 11.5V10.5C16 10.22 15.78 10 15.5 10ZM16.5 14H17.5C17.78 14 18 13.78 18 13.5V12.5C18 12.22 17.78 12 17.5 12H16.5C16.22 12 16 12.22 16 12.5V13.5C16 13.78 16.22 14 16.5 14Z" fill="white"/>
</svg>
