<svg viewBox="0 0 48 48" xml:space="preserve" xmlns="http://www.w3.org/2000/svg" enable-background="new 0 0 48 48"><path d="m32.575 22.416-.953 2.63h1.53l-.548-2.627c-.01 0-.02-.002-.029-.003z" fill="#ffffff" class="fill-303030"></path><path d="M36.734 14.057H11.265a2.41 2.41 0 0 0-2.406 2.407v15.072a2.41 2.41 0 0 0 2.406 2.407h25.47a2.41 2.41 0 0 0 2.406-2.407V16.464a2.41 2.41 0 0 0-2.407-2.407zM26.703 25.032a3.858 3.858 0 0 0-.623-.38c-.36-.187-.714-.377-1.027-.64-.89-.747-.777-1.793-.295-2.497.397-.578.98-.885 1.643-1.052.211-.054.43-.073.646-.11.032-.005.063-.016.094-.025h.708c.206.034.414.06.618.105.2.043.398.103.597.158.048.013.093.035.15.057l-.317 1.48c-.242-.076-.473-.163-.712-.221-.429-.104-.866-.149-1.298-.033-.157.042-.314.13-.436.237-.207.18-.208.445-.008.634.137.128.296.236.458.331.322.19.66.354.978.551.428.266.783.604.926 1.108.207.733-.02 1.71-.835 2.3-.47.338-1.001.515-1.567.588a5.713 5.713 0 0 1-2.613-.265c-.047-.016-.093-.037-.153-.062l.33-1.55c.072.031.134.056.194.085.526.25 1.081.369 1.662.362.267-.003.528-.044.77-.172.439-.232.497-.682.11-.989zm-2.96-3.882c-.444 2.08-.89 4.16-1.33 6.242-.029.133-.076.172-.212.17-.501-.01-1.003-.004-1.504-.004h-.16l1.518-7.093h1.832c-.05.234-.096.46-.143.685zm-2.58-.443c-.941 2.245-1.883 4.49-2.822 6.736-.036.086-.079.119-.175.118a115.21 115.21 0 0 0-1.705 0c-.086 0-.122-.021-.145-.11-.475-1.85-.958-3.696-1.429-5.546-.084-.332-.251-.561-.568-.702a8.975 8.975 0 0 0-1.617-.523c-.024-.006-.048-.015-.072-.023v-.05c.017-.14.105-.153.228-.152.964.005 1.93.003 2.894.003.479 0 .808.267.897.738.247 1.301.49 2.603.736 3.905.008.046.02.09.056.144l1.893-4.78h1.924c-.035.088-.064.165-.096.242zm12.514 6.845c-.053-.253-.109-.506-.16-.76-.06-.297-.059-.297-.367-.297-.645 0-1.289.001-1.933-.002-.09 0-.134.025-.163.113-.097.286-.201.57-.31.853-.014.04-.068.093-.105.093-.61.006-1.22.005-1.844.005.016-.045.026-.08.04-.114l2.694-6.432c.152-.363.434-.55.825-.551h1.534l1.481 7.092h-1.692z" fill="#ffffff" class="fill-303030"></path></svg>