<svg width="14" height="13" viewBox="0 0 14 13" fill="none" xmlns="http://www.w3.org/2000/svg">
<path d="M12.25 2.6H2.91667C2.41558 2.6 1.94133 2.3582 1.61292 1.95065C1.93375 1.55155 2.39983 1.3 2.91667 1.3H13.4167C14.1797 1.2961 14.1791 0.00325 13.4167 0H2.91667C1.30608 0 0 1.45535 0 3.25V9.75C0 11.5446 1.30608 13 2.91667 13H12.25C13.2166 13 14 12.127 14 11.05V4.55C14 3.47295 13.2166 2.6 12.25 2.6ZM11.6667 8.45C10.9037 8.4461 10.9037 7.1539 11.6667 7.15C12.4297 7.1539 12.4297 8.4461 11.6667 8.45Z" fill="#263238"/>
</svg>
