<svg width="16" height="15" viewBox="0 0 16 15" fill="none" xmlns="http://www.w3.org/2000/svg">
<path d="M13.8971 3.70585H3.30882C2.74037 3.70585 2.20235 3.44327 1.82978 3.00068C2.19375 2.56727 2.7225 2.29409 3.30882 2.29409H15.2206C16.0862 2.28985 16.0855 0.885854 15.2206 0.882324H3.30882C1.48169 0.882324 0 2.46279 0 4.41174V11.4706C0 13.4195 1.48169 15 3.30882 15H13.8971C14.9936 15 15.8824 14.052 15.8824 12.8823V5.8235C15.8824 4.65385 14.9936 3.70585 13.8971 3.70585ZM13.2353 10.0588C12.3697 10.0546 12.3697 8.65127 13.2353 8.64703C14.1009 8.65127 14.1009 10.0546 13.2353 10.0588Z" fill="white"/>
</svg>
