<?xml version="1.0" encoding="utf-8"?>
<!-- Generator: Adobe Illustrator 27.0.0, SVG Export Plug-In . SVG Version: 6.00 Build 0)  -->
<svg version="1.1" id="Layer_1" xmlns="http://www.w3.org/2000/svg" xmlns:xlink="http://www.w3.org/1999/xlink" x="0px" y="0px"
	 viewBox="0 0 539 364" style="enable-background:new 0 0 539 364;" xml:space="preserve">
<style type="text/css">
	.st0{fill:none;}
	.st1{fill:#515151;}
</style>
<polyline class="st0" points="48,1480 12,1480 12,1645 "/>
<polyline class="st0" points="22,1503 -15.6,1503 -15.6,1667.47 8,1667.47 8,1642 15,1642 15,1667.47 24.23,1667.47 24.23,1642 
	30,1642 "/>
<g>
	<g>
		<path class="st1" d="M529.62,363.94h-9.83c-0.81,0-1.48-0.66-1.48-1.48s0.66-1.48,1.48-1.48h9.83c0.81,0,1.48,0.66,1.48,1.48
			S530.44,363.94,529.62,363.94z M509.95,363.94h-9.83c-0.81,0-1.48-0.66-1.48-1.48s0.66-1.48,1.48-1.48h9.83
			c0.81,0,1.48,0.66,1.48,1.48S510.77,363.94,509.95,363.94z M490.29,363.94h-9.83c-0.81,0-1.48-0.66-1.48-1.48s0.66-1.48,1.48-1.48
			h9.83c0.81,0,1.48,0.66,1.48,1.48S491.1,363.94,490.29,363.94z M470.62,363.94h-9.83c-0.81,0-1.48-0.66-1.48-1.48
			s0.66-1.48,1.48-1.48h9.83c0.81,0,1.48,0.66,1.48,1.48S471.43,363.94,470.62,363.94z M450.95,363.94h-9.83
			c-0.81,0-1.48-0.66-1.48-1.48s0.66-1.48,1.48-1.48h9.83c0.81,0,1.48,0.66,1.48,1.48S451.76,363.94,450.95,363.94z M431.28,363.94
			h-9.83c-0.81,0-1.48-0.66-1.48-1.48s0.66-1.48,1.48-1.48h9.83c0.81,0,1.48,0.66,1.48,1.48S432.09,363.94,431.28,363.94z
			 M411.61,363.94h-9.83c-0.81,0-1.48-0.66-1.48-1.48s0.66-1.48,1.48-1.48h9.83c0.81,0,1.48,0.66,1.48,1.48
			S412.42,363.94,411.61,363.94z M391.94,363.94h-9.83c-0.81,0-1.48-0.66-1.48-1.48s0.66-1.48,1.48-1.48h9.83
			c0.81,0,1.48,0.66,1.48,1.48S392.75,363.94,391.94,363.94z M372.27,363.94h-9.83c-0.81,0-1.48-0.66-1.48-1.48s0.66-1.48,1.48-1.48
			h9.83c0.81,0,1.48,0.66,1.48,1.48S373.08,363.94,372.27,363.94z M352.6,363.94h-9.83c-0.81,0-1.48-0.66-1.48-1.48
			s0.66-1.48,1.48-1.48h9.83c0.81,0,1.48,0.66,1.48,1.48S353.42,363.94,352.6,363.94z M332.93,363.94h-9.83
			c-0.81,0-1.48-0.66-1.48-1.48s0.66-1.48,1.48-1.48h9.83c0.81,0,1.48,0.66,1.48,1.48S333.75,363.94,332.93,363.94z M313.26,363.94
			h-9.83c-0.81,0-1.48-0.66-1.48-1.48s0.66-1.48,1.48-1.48h9.83c0.81,0,1.48,0.66,1.48,1.48S314.08,363.94,313.26,363.94z
			 M293.59,363.94h-9.83c-0.81,0-1.48-0.66-1.48-1.48s0.66-1.48,1.48-1.48h9.83c0.81,0,1.48,0.66,1.48,1.48
			S294.41,363.94,293.59,363.94z M273.92,363.94h-9.83c-0.81,0-1.48-0.66-1.48-1.48s0.66-1.48,1.48-1.48h9.83
			c0.81,0,1.48,0.66,1.48,1.48S274.74,363.94,273.92,363.94z M254.26,363.94h-9.83c-0.81,0-1.48-0.66-1.48-1.48s0.66-1.48,1.48-1.48
			h9.83c0.81,0,1.48,0.66,1.48,1.48S255.07,363.94,254.26,363.94z M234.59,363.94h-9.83c-0.81,0-1.48-0.66-1.48-1.48
			s0.66-1.48,1.48-1.48h9.83c0.81,0,1.48,0.66,1.48,1.48S235.4,363.94,234.59,363.94z M214.92,363.94h-9.83
			c-0.81,0-1.48-0.66-1.48-1.48s0.66-1.48,1.48-1.48h9.83c0.81,0,1.48,0.66,1.48,1.48S215.73,363.94,214.92,363.94z M195.25,363.94
			h-9.83c-0.81,0-1.48-0.66-1.48-1.48s0.66-1.48,1.48-1.48h9.83c0.81,0,1.48,0.66,1.48,1.48S196.06,363.94,195.25,363.94z
			 M175.58,363.94h-9.83c-0.81,0-1.48-0.66-1.48-1.48s0.66-1.48,1.48-1.48h9.83c0.81,0,1.48,0.66,1.48,1.48
			S176.39,363.94,175.58,363.94z M155.91,363.94h-9.83c-0.81,0-1.48-0.66-1.48-1.48s0.66-1.48,1.48-1.48h9.83
			c0.81,0,1.48,0.66,1.48,1.48S156.72,363.94,155.91,363.94z M136.24,363.94h-9.83c-0.81,0-1.48-0.66-1.48-1.48s0.66-1.48,1.48-1.48
			h9.83c0.81,0,1.48,0.66,1.48,1.48S137.05,363.94,136.24,363.94z M116.57,363.94h-9.83c-0.81,0-1.48-0.66-1.48-1.48
			s0.66-1.48,1.48-1.48h9.83c0.81,0,1.48,0.66,1.48,1.48S117.39,363.94,116.57,363.94z M96.9,363.94h-9.83
			c-0.81,0-1.48-0.66-1.48-1.48s0.66-1.48,1.48-1.48h9.83c0.81,0,1.48,0.66,1.48,1.48S97.72,363.94,96.9,363.94z M77.23,363.94H67.4
			c-0.81,0-1.48-0.66-1.48-1.48s0.66-1.48,1.48-1.48h9.83c0.81,0,1.48,0.66,1.48,1.48S78.05,363.94,77.23,363.94z M57.56,363.94
			h-9.83c-0.81,0-1.48-0.66-1.48-1.48s0.66-1.48,1.48-1.48h9.83c0.81,0,1.48,0.66,1.48,1.48S58.38,363.94,57.56,363.94z
			 M37.89,363.94h-9.83c-0.81,0-1.48-0.66-1.48-1.48s0.66-1.48,1.48-1.48h9.83c0.81,0,1.48,0.66,1.48,1.48
			S38.71,363.94,37.89,363.94z M18.22,363.94H8.39c-0.81,0-1.48-0.66-1.48-1.48s0.66-1.48,1.48-1.48h9.83
			c0.81,0,1.48,0.66,1.48,1.48S19.04,363.94,18.22,363.94z M537.49,361.97c-0.81,0-1.48-0.66-1.48-1.48v-9.83
			c0-0.81,0.66-1.48,1.48-1.48c0.81,0,1.48,0.66,1.48,1.48v9.83C538.97,361.31,538.31,361.97,537.49,361.97z M1.51,360.99
			c-0.81,0-1.48-0.66-1.48-1.48v-9.83c0-0.81,0.66-1.48,1.48-1.48s1.48,0.66,1.48,1.48v9.83C2.98,360.33,2.32,360.99,1.51,360.99z
			 M537.49,342.3c-0.81,0-1.48-0.66-1.48-1.48V331c0-0.81,0.66-1.48,1.48-1.48c0.81,0,1.48,0.66,1.48,1.48v9.83
			C538.97,341.64,538.31,342.3,537.49,342.3z M1.51,341.32c-0.81,0-1.48-0.66-1.48-1.48v-9.83c0-0.81,0.66-1.48,1.48-1.48
			s1.48,0.66,1.48,1.48v9.83C2.98,340.66,2.32,341.32,1.51,341.32z M537.49,322.64c-0.81,0-1.48-0.66-1.48-1.48v-9.83
			c0-0.81,0.66-1.48,1.48-1.48c0.81,0,1.48,0.66,1.48,1.48v9.83C538.97,321.97,538.31,322.64,537.49,322.64z M1.51,321.65
			c-0.81,0-1.48-0.66-1.48-1.48v-9.83c0-0.81,0.66-1.48,1.48-1.48s1.48,0.66,1.48,1.48v9.83C2.98,320.99,2.32,321.65,1.51,321.65z
			 M537.49,302.97c-0.81,0-1.48-0.66-1.48-1.48v-9.83c0-0.81,0.66-1.48,1.48-1.48c0.81,0,1.48,0.66,1.48,1.48v9.83
			C538.97,302.31,538.31,302.97,537.49,302.97z M1.51,301.98c-0.81,0-1.48-0.66-1.48-1.48v-9.84c0-0.81,0.66-1.48,1.48-1.48
			s1.48,0.66,1.48,1.48v9.84C2.98,301.32,2.32,301.98,1.51,301.98z M537.49,283.3c-0.81,0-1.48-0.66-1.48-1.48v-9.83
			c0-0.81,0.66-1.48,1.48-1.48c0.81,0,1.48,0.66,1.48,1.48v9.83C538.97,282.64,538.31,283.3,537.49,283.3z M1.51,282.31
			c-0.81,0-1.48-0.66-1.48-1.48V271c0-0.81,0.66-1.48,1.48-1.48s1.48,0.66,1.48,1.48v9.83C2.98,281.65,2.32,282.31,1.51,282.31z
			 M537.49,263.63c-0.81,0-1.48-0.66-1.48-1.48v-9.83c0-0.81,0.66-1.48,1.48-1.48c0.81,0,1.48,0.66,1.48,1.48v9.83
			C538.97,262.97,538.31,263.63,537.49,263.63z M1.51,262.64c-0.81,0-1.48-0.66-1.48-1.48v-9.84c0-0.81,0.66-1.48,1.48-1.48
			s1.48,0.66,1.48,1.48v9.84C2.98,261.98,2.32,262.64,1.51,262.64z M537.49,243.96c-0.81,0-1.48-0.66-1.48-1.48v-9.83
			c0-0.81,0.66-1.48,1.48-1.48c0.81,0,1.48,0.66,1.48,1.48v9.83C538.97,243.3,538.31,243.96,537.49,243.96z M1.51,242.97
			c-0.81,0-1.48-0.66-1.48-1.48v-9.83c0-0.81,0.66-1.48,1.48-1.48s1.48,0.66,1.48,1.48v9.83C2.98,242.31,2.32,242.97,1.51,242.97z
			 M537.49,224.29c-0.81,0-1.48-0.66-1.48-1.48v-9.83c0-0.81,0.66-1.48,1.48-1.48c0.81,0,1.48,0.66,1.48,1.48v9.83
			C538.97,223.63,538.31,224.29,537.49,224.29z M1.51,223.3c-0.81,0-1.48-0.66-1.48-1.48v-9.83c0-0.81,0.66-1.48,1.48-1.48
			s1.48,0.66,1.48,1.48v9.83C2.98,222.64,2.32,223.3,1.51,223.3z M537.49,204.62c-0.81,0-1.48-0.66-1.48-1.48v-9.83
			c0-0.81,0.66-1.48,1.48-1.48c0.81,0,1.48,0.66,1.48,1.48v9.83C538.97,203.96,538.31,204.62,537.49,204.62z M1.51,203.63
			c-0.81,0-1.48-0.66-1.48-1.48v-9.83c0-0.81,0.66-1.48,1.48-1.48s1.48,0.66,1.48,1.48v9.83C2.98,202.97,2.32,203.63,1.51,203.63z
			 M537.49,184.95c-0.81,0-1.48-0.66-1.48-1.48v-9.83c0-0.81,0.66-1.48,1.48-1.48c0.81,0,1.48,0.66,1.48,1.48v9.83
			C538.97,184.29,538.31,184.95,537.49,184.95z M1.51,183.97c-0.81,0-1.48-0.66-1.48-1.48v-9.83c0-0.81,0.66-1.48,1.48-1.48
			s1.48,0.66,1.48,1.48v9.83C2.98,183.3,2.32,183.97,1.51,183.97z M537.49,165.28c-0.81,0-1.48-0.66-1.48-1.48v-9.83
			c0-0.81,0.66-1.48,1.48-1.48c0.81,0,1.48,0.66,1.48,1.48v9.83C538.97,164.62,538.31,165.28,537.49,165.28z M1.51,164.3
			c-0.81,0-1.48-0.66-1.48-1.48v-9.83c0-0.81,0.66-1.48,1.48-1.48s1.48,0.66,1.48,1.48v9.83C2.98,163.64,2.32,164.3,1.51,164.3z
			 M537.49,145.61c-0.81,0-1.48-0.66-1.48-1.48v-9.83c0-0.81,0.66-1.48,1.48-1.48c0.81,0,1.48,0.66,1.48,1.48v9.83
			C538.97,144.95,538.31,145.61,537.49,145.61z M1.51,144.63c-0.81,0-1.48-0.66-1.48-1.48v-9.83c0-0.81,0.66-1.48,1.48-1.48
			s1.48,0.66,1.48,1.48v9.83C2.98,143.97,2.32,144.63,1.51,144.63z M537.49,125.94c-0.81,0-1.48-0.66-1.48-1.48v-9.83
			c0-0.81,0.66-1.48,1.48-1.48c0.81,0,1.48,0.66,1.48,1.48v9.83C538.97,125.28,538.31,125.94,537.49,125.94z M1.51,124.96
			c-0.81,0-1.48-0.66-1.48-1.48v-9.83c0-0.81,0.66-1.48,1.48-1.48s1.48,0.66,1.48,1.48v9.83C2.98,124.3,2.32,124.96,1.51,124.96z
			 M537.49,106.27c-0.81,0-1.48-0.66-1.48-1.48v-9.83c0-0.81,0.66-1.48,1.48-1.48c0.81,0,1.48,0.66,1.48,1.48v9.83
			C538.97,105.61,538.31,106.27,537.49,106.27z M1.51,105.29c-0.81,0-1.48-0.66-1.48-1.48v-9.83c0-0.81,0.66-1.48,1.48-1.48
			s1.48,0.66,1.48,1.48v9.83C2.98,104.63,2.32,105.29,1.51,105.29z M537.49,86.61c-0.81,0-1.48-0.66-1.48-1.48V75.3
			c0-0.81,0.66-1.48,1.48-1.48c0.81,0,1.48,0.66,1.48,1.48v9.83C538.97,85.94,538.31,86.61,537.49,86.61z M1.51,85.62
			c-0.81,0-1.48-0.66-1.48-1.48v-9.83c0-0.81,0.66-1.48,1.48-1.48s1.48,0.66,1.48,1.48v9.83C2.98,84.96,2.32,85.62,1.51,85.62z
			 M537.49,66.94c-0.81,0-1.48-0.66-1.48-1.48v-9.83c0-0.81,0.66-1.48,1.48-1.48c0.81,0,1.48,0.66,1.48,1.48v9.83
			C538.97,66.28,538.31,66.94,537.49,66.94z M1.51,65.95c-0.81,0-1.48-0.66-1.48-1.48v-9.83c0-0.81,0.66-1.48,1.48-1.48
			s1.48,0.66,1.48,1.48v9.83C2.98,65.29,2.32,65.95,1.51,65.95z M537.49,47.27c-0.81,0-1.48-0.66-1.48-1.48v-9.83
			c0-0.81,0.66-1.48,1.48-1.48c0.81,0,1.48,0.66,1.48,1.48v9.83C538.97,46.61,538.31,47.27,537.49,47.27z M1.51,46.28
			c-0.81,0-1.48-0.66-1.48-1.48v-9.83c0-0.81,0.66-1.48,1.48-1.48s1.48,0.66,1.48,1.48v9.83C2.98,45.62,2.32,46.28,1.51,46.28z
			 M537.49,27.6c-0.81,0-1.48-0.66-1.48-1.48v-9.83c0-0.81,0.66-1.48,1.48-1.48c0.81,0,1.48,0.66,1.48,1.48v9.83
			C538.97,26.94,538.31,27.6,537.49,27.6z M1.51,26.61c-0.81,0-1.48-0.66-1.48-1.48V15.3c0-0.81,0.66-1.48,1.48-1.48
			s1.48,0.66,1.48,1.48v9.83C2.98,25.95,2.32,26.61,1.51,26.61z M537.49,7.93c-0.81,0-1.48-0.66-1.48-1.48V3.01h-3.44
			c-0.81,0-1.48-0.66-1.48-1.48s0.66-1.48,1.48-1.48h6.39v6.39C538.97,7.27,538.31,7.93,537.49,7.93z M1.51,6.94
			c-0.81,0-1.48-0.66-1.48-1.48V0.06h11.31c0.81,0,1.48,0.66,1.48,1.48s-0.66,1.48-1.48,1.48H2.98v2.46
			C2.98,6.28,2.32,6.94,1.51,6.94z M522.74,3.01h-9.83c-0.81,0-1.48-0.66-1.48-1.48s0.66-1.48,1.48-1.48h9.83
			c0.81,0,1.48,0.66,1.48,1.48S523.56,3.01,522.74,3.01z M503.07,3.01h-9.83c-0.81,0-1.48-0.66-1.48-1.48s0.66-1.48,1.48-1.48h9.83
			c0.81,0,1.48,0.66,1.48,1.48S503.89,3.01,503.07,3.01z M483.4,3.01h-9.83c-0.81,0-1.48-0.66-1.48-1.48s0.66-1.48,1.48-1.48h9.83
			c0.81,0,1.48,0.66,1.48,1.48S484.22,3.01,483.4,3.01z M463.73,3.01h-9.83c-0.81,0-1.48-0.66-1.48-1.48s0.66-1.48,1.48-1.48h9.83
			c0.81,0,1.48,0.66,1.48,1.48S464.55,3.01,463.73,3.01z M444.07,3.01h-9.83c-0.81,0-1.48-0.66-1.48-1.48s0.66-1.48,1.48-1.48h9.83
			c0.81,0,1.48,0.66,1.48,1.48S444.88,3.01,444.07,3.01z M424.4,3.01h-9.83c-0.81,0-1.48-0.66-1.48-1.48s0.66-1.48,1.48-1.48h9.83
			c0.81,0,1.48,0.66,1.48,1.48S425.21,3.01,424.4,3.01z M404.73,3.01h-9.83c-0.81,0-1.48-0.66-1.48-1.48s0.66-1.48,1.48-1.48h9.83
			c0.81,0,1.48,0.66,1.48,1.48S405.54,3.01,404.73,3.01z M385.06,3.01h-9.83c-0.81,0-1.48-0.66-1.48-1.48s0.66-1.48,1.48-1.48h9.83
			c0.81,0,1.48,0.66,1.48,1.48S385.87,3.01,385.06,3.01z M365.39,3.01h-9.83c-0.81,0-1.48-0.66-1.48-1.48s0.66-1.48,1.48-1.48h9.83
			c0.81,0,1.48,0.66,1.48,1.48S366.2,3.01,365.39,3.01z M345.72,3.01h-9.83c-0.81,0-1.48-0.66-1.48-1.48s0.66-1.48,1.48-1.48h9.83
			c0.81,0,1.48,0.66,1.48,1.48S346.53,3.01,345.72,3.01z M326.05,3.01h-9.83c-0.81,0-1.48-0.66-1.48-1.48s0.66-1.48,1.48-1.48h9.83
			c0.81,0,1.48,0.66,1.48,1.48S326.86,3.01,326.05,3.01z M306.38,3.01h-9.83c-0.81,0-1.48-0.66-1.48-1.48s0.66-1.48,1.48-1.48h9.83
			c0.81,0,1.48,0.66,1.48,1.48S307.19,3.01,306.38,3.01z M286.71,3.01h-9.83c-0.81,0-1.48-0.66-1.48-1.48s0.66-1.48,1.48-1.48h9.83
			c0.81,0,1.48,0.66,1.48,1.48S287.53,3.01,286.71,3.01z M267.04,3.01h-9.83c-0.81,0-1.48-0.66-1.48-1.48s0.66-1.48,1.48-1.48h9.83
			c0.81,0,1.48,0.66,1.48,1.48S267.86,3.01,267.04,3.01z M247.37,3.01h-9.83c-0.81,0-1.48-0.66-1.48-1.48s0.66-1.48,1.48-1.48h9.83
			c0.81,0,1.48,0.66,1.48,1.48S248.19,3.01,247.37,3.01z M227.7,3.01h-9.83c-0.81,0-1.48-0.66-1.48-1.48s0.66-1.48,1.48-1.48h9.83
			c0.81,0,1.48,0.66,1.48,1.48S228.52,3.01,227.7,3.01z M208.03,3.01h-9.83c-0.81,0-1.48-0.66-1.48-1.48s0.66-1.48,1.48-1.48h9.83
			c0.81,0,1.48,0.66,1.48,1.48S208.85,3.01,208.03,3.01z M188.36,3.01h-9.83c-0.81,0-1.48-0.66-1.48-1.48s0.66-1.48,1.48-1.48h9.83
			c0.81,0,1.48,0.66,1.48,1.48S189.18,3.01,188.36,3.01z M168.7,3.01h-9.83c-0.81,0-1.48-0.66-1.48-1.48s0.66-1.48,1.48-1.48h9.83
			c0.81,0,1.48,0.66,1.48,1.48S169.51,3.01,168.7,3.01z M149.03,3.01h-9.83c-0.81,0-1.48-0.66-1.48-1.48s0.66-1.48,1.48-1.48h9.83
			c0.81,0,1.48,0.66,1.48,1.48S149.84,3.01,149.03,3.01z M129.36,3.01h-9.83c-0.81,0-1.48-0.66-1.48-1.48s0.66-1.48,1.48-1.48h9.83
			c0.81,0,1.48,0.66,1.48,1.48S130.17,3.01,129.36,3.01z M109.69,3.01h-9.83c-0.81,0-1.48-0.66-1.48-1.48s0.66-1.48,1.48-1.48h9.83
			c0.81,0,1.48,0.66,1.48,1.48S110.5,3.01,109.69,3.01z M90.02,3.01h-9.83c-0.81,0-1.48-0.66-1.48-1.48s0.66-1.48,1.48-1.48h9.83
			c0.81,0,1.48,0.66,1.48,1.48S90.83,3.01,90.02,3.01z M70.35,3.01h-9.83c-0.81,0-1.48-0.66-1.48-1.48s0.66-1.48,1.48-1.48h9.83
			c0.81,0,1.48,0.66,1.48,1.48S71.16,3.01,70.35,3.01z M50.68,3.01h-9.83c-0.81,0-1.48-0.66-1.48-1.48s0.66-1.48,1.48-1.48h9.83
			c0.81,0,1.48,0.66,1.48,1.48S51.5,3.01,50.68,3.01z M31.01,3.01h-9.83c-0.81,0-1.48-0.66-1.48-1.48s0.66-1.48,1.48-1.48h9.83
			c0.81,0,1.48,0.66,1.48,1.48S31.83,3.01,31.01,3.01z"/>
	</g>
	<g>
		<path class="st1" d="M429.31,89.06H282.78c-0.81,0-1.48-0.66-1.48-1.48s0.66-1.48,1.48-1.48h146.54c0.81,0,1.48,0.66,1.48,1.48
			S430.13,89.06,429.31,89.06z"/>
	</g>
	<g>
		<path class="st1" d="M347.68,122.01h-64.91c-0.81,0-1.48-0.66-1.48-1.48c0-0.81,0.66-1.48,1.48-1.48h64.91
			c0.81,0,1.48,0.66,1.48,1.48C349.16,121.35,348.5,122.01,347.68,122.01z"/>
	</g>
	<g>
		<path class="st1" d="M331.95,263.63h-22.62c-0.81,0-1.48-0.66-1.48-1.48c0-0.81,0.66-1.48,1.48-1.48h22.62
			c0.81,0,1.48,0.66,1.48,1.48C333.42,262.97,332.76,263.63,331.95,263.63z"/>
	</g>
	<g>
		<path class="st1" d="M422.43,263.63h-34.42c-0.81,0-1.48-0.66-1.48-1.48c0-0.81,0.66-1.48,1.48-1.48h34.42
			c0.81,0,1.48,0.66,1.48,1.48C423.9,262.97,423.24,263.63,422.43,263.63z"/>
	</g>
	<g>
		<path class="st1" d="M364.4,263.63h-8.85c-0.81,0-1.48-0.66-1.48-1.48c0-0.81,0.66-1.48,1.48-1.48h8.85
			c0.81,0,1.48,0.66,1.48,1.48C365.88,262.97,365.22,263.63,364.4,263.63z"/>
	</g>
	<g>
		<path class="st1" d="M376.21,289.2h-46.22c-0.81,0-1.48-0.66-1.48-1.48s0.66-1.48,1.48-1.48h46.22c0.81,0,1.48,0.66,1.48,1.48
			S377.02,289.2,376.21,289.2z"/>
	</g>
	<g>
		<path class="st1" d="M424.39,289.2h-23.6c-0.81,0-1.48-0.66-1.48-1.48s0.66-1.48,1.48-1.48h23.6c0.81,0,1.48,0.66,1.48,1.48
			S425.21,289.2,424.39,289.2z"/>
	</g>
	<g>
		<path class="st1" d="M380.14,154.46h-97.36c-0.81,0-1.48-0.66-1.48-1.48s0.66-1.48,1.48-1.48h97.36c0.81,0,1.48,0.66,1.48,1.48
			S380.95,154.46,380.14,154.46z"/>
	</g>
	<path class="st1" d="M53.09,193.92c0.79-0.18,1.59-0.35,2.4-0.52c0-1.9,0.01-3.81,0-5.71c-0.02-4.91,1.74-9.03,5.38-12.36
		c3.98-3.64,8.51-6.45,13.32-8.8c2.97-1.45,6.03-2.75,9.12-3.93c2.22-0.85,4.6-1.13,6.99-1.15c0.34,0,0.76,0.21,1.02,0.46
		c1.52,1.44,2.91,3.06,4.54,4.36c2.4,1.93,5.26,2.94,8.32,3.28c0.65,0.07,0.78,0.33,0.78,0.91c-0.02,3.91-0.01,7.82,0,11.74
		c0,0.32,0.01,0.65,0.1,0.96c0.16,0.56,0.61,0.91,1.15,0.78c0.41-0.1,0.81-0.45,1.08-0.79c0.17-0.21,0.12-0.62,0.12-0.94
		c0-3.89,0.01-7.77-0.02-11.66c-0.01-0.7,0.17-0.94,0.92-1.03c4.52-0.52,8.33-2.48,11.35-5.91c0.16-0.18,0.31-0.37,0.46-0.56
		c1.51-1.85,1.51-1.8,3.86-1.53c3.27,0.38,6.37,1.32,9.36,2.68c5.81,2.64,11.45,5.57,16.42,9.63c1.87,1.52,3.61,3.17,4.86,5.26
		c1.58,2.64,2.24,5.52,2.23,8.58c-0.01,1.97-0.01,3.94,0,5.9c0.82,0.17,1.62,0.35,2.42,0.54c0.02-2.38,0.04-4.75-0.06-7.13
		c-0.08-1.86-0.4-3.76-0.91-5.56c-1.11-3.95-3.76-6.85-6.85-9.4c-4.92-4.05-10.48-6.99-16.22-9.66c-3.98-1.85-8.09-3.15-12.5-3.32
		c-0.61-0.02-0.68-0.34-0.68-0.84c0.01-2.81,0.06-5.61-0.02-8.42c-0.03-1.11,0.21-1.92,1.2-2.48c0.32-0.18,0.58-0.48,0.86-0.74
		c4.52-4.29,6.8-9.69,7.78-15.73c0.12-0.75,0.32-1.11,1.14-1.31c2.56-0.63,4.52-2.05,5.25-4.73c0.6-2.2,0.85-4.46,0.58-6.73
		c-0.23-1.95-0.95-3.67-2.77-4.69c-0.58-0.32-1.24-0.5-1.94-0.78c0.09-0.23,0.2-0.47,0.27-0.72c0.92-3.01,2.01-5.99,2.7-9.05
		c1.15-5.08,1.31-10.24-0.13-15.31c-2.33-8.21-7.52-14.09-15.24-17.55c-9.41-4.22-18.47-3.71-26.78,2.86
		c-1.12,0.89-2.16,1.62-3.65,1.44c-0.39-0.05-0.8,0.07-1.2,0.13c-6.32,0.91-11.28,3.85-14.27,9.65c-1.6,3.1-2.18,6.45-2.39,9.91
		c-0.39,6.65,1.24,12.72,4.99,18.22c0.14,0.21,0.27,0.44,0.42,0.69c-2.99,1.13-3.89,3.52-3.9,6.35c0,1.55,0.22,3.11,0.44,4.66
		c0.42,2.95,2.23,4.79,5,5.51c1.26,0.33,1.5,0.92,1.69,2.02c1.01,5.86,3.36,11.07,7.74,15.24c0.26,0.25,0.42,0.74,0.42,1.13
		c0.03,3.48,0,6.96,0.03,10.44c0,0.59-0.17,0.77-0.76,0.84c-1.82,0.21-3.65,0.4-5.43,0.79c-4.02,0.87-7.65,2.76-11.28,4.59
		c-4.96,2.49-9.66,5.38-13.74,9.19c-4.06,3.79-6.04,8.44-6,13.99C53.09,189.74,53.09,191.83,53.09,193.92z M119.64,159.15
		c0,0.28-0.01,0.63-0.17,0.84c-2.53,3.45-5.65,6.08-9.98,6.92c-5.46,1.06-10.18-0.38-14.15-4.28c-0.27-0.26-0.48-0.6-0.78-0.82
		c-1.62-1.25-2.06-2.87-1.92-4.88c0.17-2.33,0.04-4.69,0.05-7.04c0-0.29,0-0.58,0-0.93c8.91,4.8,17.82,4.87,26.91,0.96
		c0.02,0.23,0.04,0.44,0.04,0.65C119.65,153.43,119.65,156.29,119.64,159.15z M75.95,92.78c0.26-2.68,0.84-5.27,2.08-7.68
		c2.43-4.7,6.44-7.19,11.51-8.15c1.05-0.2,2.14-0.32,3.21-0.3c1.08,0.02,1.88-0.31,2.68-1.03c2.87-2.59,6.16-4.47,9.96-5.31
		c5.7-1.27,11.13-0.32,16.24,2.32c7.26,3.74,11.93,9.57,13.45,17.69c0.97,5.2,0.3,10.32-1.13,15.36c-0.44,1.55-1.02,3.07-1.54,4.6
		c-0.08,0.24-0.2,0.47-0.31,0.71c-0.45-2.69-1.06-5.25-2.17-7.67c-1.92-4.21-4.98-7.08-9.58-8.07c-1.33-0.29-2.73-0.36-4.09-0.39
		c-4.85-0.12-9.66-0.53-14.25-2.18c-1.91-0.68-3.73-1.67-5.48-2.71c-0.94-0.56-1.71-1.48-2.44-2.32c-0.79-0.91-1.33-1.12-2.47-0.64
		c-2.21,0.94-3.99,2.44-5.49,4.3c-2.43,3.02-3.7,6.55-4.39,10.31c-0.54,2.93-0.63,5.9-0.52,8.87c0.02,0.39,0,0.78,0,1.39
		c-0.29-0.36-0.46-0.55-0.61-0.76C76.73,105.59,75.32,99.46,75.95,92.78z M85.77,135.85c-0.77-2.19-1.13-4.54-1.6-6.83
		c-0.25-1.19-0.66-1.66-1.85-1.69c-2.32-0.07-4.06-1.51-4.52-3.76c-0.38-1.85-0.69-3.72-0.32-5.62c0.32-1.69,1.3-2.73,2.68-2.81
		c0.26-0.01,0.58,0.09,0.78,0.25c0.76,0.6,1.46,0.75,2.15,0.35c0.79-0.46,0.9-1.19,0.81-2.03c-0.48-4.42-0.49-8.83,0.53-13.19
		c0.8-3.39,2.17-6.51,4.73-8.95c0.9-0.86,1.97-1.54,2.95-2.29c4.55,4.92,10.38,6.53,16.5,7.37c2.96,0.4,5.96,0.49,8.95,0.63
		c4.69,0.23,7.96,2.51,9.99,6.69c1.44,2.97,2.01,6.13,2.09,9.4c0.01,0.4,0,0.81,0,1.21c0,0.83,0.41,1.4,1.19,1.64
		c0.74,0.22,1.44,0.05,1.85-0.63c0.31-0.52,0.69-0.52,1.16-0.44c1.22,0.2,1.96,0.96,2.33,2.1c0.56,1.72,0.35,3.47,0.1,5.21
		c-0.07,0.45-0.17,0.9-0.27,1.35c-0.44,1.99-2.25,3.47-4.29,3.53c-1.46,0.04-1.87,0.47-2.04,1.92c-0.51,4.35-1.83,8.42-4.31,12.06
		c-2.51,3.69-5.89,6.29-10.14,7.66c-5.56,1.78-11.17,1.81-16.7-0.05C92.07,146.76,87.98,142.15,85.77,135.85z"/>
</g>
</svg>
