<svg width="97" height="97" viewBox="0 0 97 97" fill="none" xmlns="http://www.w3.org/2000/svg">
<path d="M40.7702 5.57718C45.7195 3.52713 51.2805 3.52712 56.2298 5.57718L73.3852 12.6832C78.3344 14.7332 82.2666 18.6654 84.3167 23.6147L91.4227 40.7701C93.4727 45.7194 93.4728 51.2804 91.4227 56.2296L84.3167 73.385C82.2666 78.3343 78.3344 82.2665 73.3852 84.3166L56.2298 91.4226C51.2805 93.4726 45.7195 93.4726 40.7702 91.4226L23.6148 84.3166C18.6656 82.2665 14.7334 78.3343 12.6833 73.385L5.57731 56.2296C3.52725 51.2804 3.52725 45.7194 5.57731 40.7701L12.6833 23.6147C14.7334 18.6654 18.6656 14.7332 23.6148 12.6832L40.7702 5.57718Z" fill="#FFAE58" stroke="#105D38" stroke-width="8"/>
<path fill-rule="evenodd" clip-rule="evenodd" d="M60.4982 36.2595C61.0636 35.6991 61.8268 35.3837 62.6228 35.3815C63.4189 35.3793 64.1838 35.6905 64.7523 36.2478C65.3207 36.8051 65.647 37.5637 65.6606 38.3597C65.6741 39.1556 65.3739 39.9249 64.8248 40.5013L48.698 60.6597C48.4209 60.9582 48.0863 61.1978 47.7145 61.3641C47.3426 61.5304 46.941 61.62 46.5337 61.6276C46.1264 61.6351 45.7218 61.5604 45.344 61.408C44.9663 61.2556 44.6231 61.0286 44.3351 60.7405L33.6499 50.0513C33.3522 49.7739 33.1135 49.4394 32.9479 49.0678C32.7823 48.6961 32.6932 48.2949 32.686 47.8881C32.6789 47.4813 32.7537 47.0772 32.9061 46.6999C33.0585 46.3226 33.2853 45.9799 33.573 45.6922C33.8607 45.4045 34.2034 45.1777 34.5807 45.0253C34.9579 44.8729 35.362 44.7981 35.7689 44.8053C36.1757 44.8125 36.5769 44.9015 36.9485 45.0671C37.3202 45.2327 37.6547 45.4715 37.9321 45.7691L46.3913 54.2244L60.4214 36.3484C60.4465 36.3171 60.4735 36.2874 60.5022 36.2595H60.4982Z" fill="white"/>
</svg>
