<svg width="343" height="389" viewBox="0 0 343 389" fill="none" xmlns="http://www.w3.org/2000/svg">
<path fill-rule="evenodd" clip-rule="evenodd" d="M0 24C0 10.7452 10.7452 0 24 0H319C332.255 0 343 10.7452 343 24V389H336.866C335.195 385.808 331.852 383.63 328 383.63C324.148 383.63 320.805 385.808 319.134 389H312.866C311.195 385.808 307.852 383.63 304 383.63C300.148 383.63 296.805 385.808 295.134 389H288.866C287.195 385.808 283.852 383.63 280 383.63C276.148 383.63 272.805 385.808 271.134 389H264.866C263.195 385.808 259.852 383.63 256 383.63C252.148 383.63 248.805 385.808 247.134 389H240.866C239.195 385.808 235.852 383.63 232 383.63C228.148 383.63 224.805 385.808 223.134 389H216.866C215.195 385.808 211.852 383.63 208 383.63C204.148 383.63 200.805 385.808 199.134 389H192.866C191.195 385.808 187.852 383.63 184 383.63C180.148 383.63 176.805 385.808 175.134 389H168.866C167.195 385.808 163.852 383.63 160 383.63C156.148 383.63 152.805 385.808 151.134 389H144.866C143.195 385.808 139.852 383.63 136 383.63C132.148 383.63 128.805 385.808 127.134 389H120.866C119.195 385.808 115.852 383.63 112 383.63C108.148 383.63 104.805 385.808 103.134 389H96.8657C95.1954 385.808 91.852 383.63 88 383.63C84.148 383.63 80.8046 385.808 79.1343 389H72.8657C71.1954 385.808 67.852 383.63 64 383.63C60.148 383.63 56.8046 385.808 55.1343 389H48.8657C47.1954 385.808 43.852 383.63 40 383.63C36.148 383.63 32.8046 385.808 31.1343 389H24.8657C23.1954 385.808 19.852 383.63 16 383.63C12.148 383.63 8.80462 385.808 7.13427 389H0V24Z" fill="white"/>
</svg>
