<?xml version="1.0" ?><svg viewBox="0 0 32 32" xmlns="http://www.w3.org/2000/svg"><defs><style>.cls-1{fill:#0e6ae0;}.cls-2{fill:#0593ff;}</style></defs><title/><g data-name="Bell Disable" id="Bell_Disable"><path class="cls-1" d="M16,8a3,3,0,1,1,3-3A3,3,0,0,1,16,8Zm0-4a1,1,0,1,0,1,1A1,1,0,0,0,16,4Z"/><path class="cls-1" d="M19,24H13a1,1,0,0,0-1,1v1a4,4,0,0,0,8,0V25A1,1,0,0,0,19,24Z"/><path class="cls-2" d="M28.45,24.11A6.21,6.21,0,0,1,25,18.53V15A9,9,0,0,0,7,15v3.53a6.21,6.21,0,0,1-3.45,5.58A1,1,0,0,0,4,26H28a1,1,0,0,0,.45-1.89Z"/><path class="cls-1" d="M6,29a1,1,0,0,1-.71-.29,1,1,0,0,1,0-1.42l20-20a1,1,0,1,1,1.42,1.42l-20,20A1,1,0,0,1,6,29Z"/></g></svg>