<?xml version="1.0" ?><svg viewBox="0 0 24 24" xmlns="http://www.w3.org/2000/svg"><g data-name="27. No notification" id="_27._No_notification"><path d="M12,24a5.01,5.01,0,0,0,4-2H8A5.01,5.01,0,0,0,12,24Z"/><path d="M21,12.05V9a9.661,9.661,0,0,0-.14-1.62L8.24,20H19.88a3.125,3.125,0,0,0,2.21-5.33A3.685,3.685,0,0,1,21,12.05Z"/><path d="M23.707.293a1,1,0,0,0-1.414,0L19.084,3.5A8.754,8.754,0,0,0,12,0,9.014,9.014,0,0,0,3,9v3.05a3.685,3.685,0,0,1-1.09,2.62A3.151,3.151,0,0,0,1,16.88a3.009,3.009,0,0,0,.39,1.49,3.116,3.116,0,0,0,1.469,1.357L.293,22.293a1,1,0,1,0,1.414,1.414l22-22A1,1,0,0,0,23.707.293Z"/></g></svg>