<?xml version="1.0" encoding="utf-8"?>
<!-- Generator: Adobe Illustrator 27.0.0, SVG Export Plug-In . SVG Version: 6.00 Build 0)  -->
<svg version="1.1" id="Layer_1" xmlns="http://www.w3.org/2000/svg" xmlns:xlink="http://www.w3.org/1999/xlink" x="0px" y="0px"
	 viewBox="0 0 934 166" style="enable-background:new 0 0 934 166;" xml:space="preserve">
<style type="text/css">
	.st0{fill:#D8D8D8;}
</style>
<g>
	<path class="st0" d="M149.25,0h-8v166h8V0z"/>
	<path class="st0" d="M165.25,0h-8v166h8V0z"/>
	<path class="st0" d="M181.25,0h-8v166h8V0z"/>
	<path class="st0" d="M75.75,0v46h-6V0h-8v71h-6V0h-8v71h-8V0h-4H0.25v165.5h24V142h6.5v23.5h9V142h8v-24.5h14v-25h8V71h6v71h-20
		v23.5h77.5V0H75.75z M39.25,139h-8V71h-8v47h-8V71h8V48h8v23h8V139z"/>
	<path class="st0" d="M360.25,0h-8v23h8V0z"/>
	<path class="st0" d="M780.25,0h-7v165.96h7V0z"/>
	<path class="st0" d="M811.25,0h-7v165.96h7V0z"/>
	<path class="st0" d="M826.25,0h-7v165.96h7V0z"/>
	<path class="st0" d="M850.25,0h-7v165.96h7V0z"/>
	<path class="st0" d="M872.25,0h-7v46h7V0z"/>
	<path class="st0" d="M321.25,95.76V72.2h-14V25.07h7.5V0h-37.5v23.56h13v23.06h-21V0h-8.5v70.19h-7V0h-7.5v70.19h-7.5V0h-38.5
		v165.96h8h15.5v-23.56h7v23.56h9.5v-23.56h6.5v-23.56h7.5v47.13h22v-23.56h7v23.56h38v-23.56h-21V95.76H321.25z M238.25,138.88h-7
		V70.69h-7v68.19h-7V70.69h7V47.63h7v23.06h7V138.88z M291.25,139.89h-5.9v-21.72h-23.1V96.45h6.88V71.7h13.76v24.75h8.36V139.89z"
		/>
	<path class="st0" d="M457.75,165.96V0h8.5v24.64h14v22.63h-6v23.64h-8v47.27h8v47.78H457.75z"/>
	<path class="st0" d="M496.25,142.82v22.13h9v-22.13h6.5v-28.16h7V93.54h-14V70.91h7V46.77h-9v24.14h-6.5V25.15h15.5V0h-17v24.64h-6
		v25.65h-7.5v23.13h15v20.12h-15v47.27h9v-23.13h13.5v25.15H496.25z"/>
	<path class="st0" d="M549.75,0h-17.5v25h-13v22.5h17V23h13.5V0z"/>
	<path class="st0" d="M541.25,71.63h-7h-2.5v22.7h-5v22.7h-6.5v48.93h21v-23.71h8v23.71h30.5v-23.71h-23.5v-25.22h15.5v-22.7h-7.5
		v-22.7h15.5V47.42h-8V0h-7.5v47.42h-17v24.21h9v22.7h-9v22.7h-13v-22.7h7V71.63z"/>
	<path class="st0" d="M638.25,46.5V0h10v46.5H638.25z"/>
	<path class="st0" d="M653.25,21.5V0h30v21.5h-13.5V45h22.5v45h8v26h7v24.5h-9.5V116h-23.5V90h-13V68.5h-8V45h8V21.5H653.25z"/>
	<path class="st0" d="M714.25,165.96V0h51v165.96H714.25z"/>
	<g>
		<polygon class="st0" points="668.75,142.61 668.75,118.76 662.25,118.76 662.25,96.43 647.25,96.43 647.25,71.05 632.25,71.05 
			632.25,0 624.75,0 624.75,71.05 617.25,71.05 617.25,94.4 624.75,94.4 624.75,142.61 630.75,142.61 630.75,94.4 639.25,94.4 
			639.25,142.61 632.25,142.61 632.25,165.96 654.25,165.96 654.25,142.61 662.25,142.61 662.25,165.96 691.25,165.96 
			691.25,142.61 		"/>
		<polygon class="st0" points="610.25,71.05 603.25,71.05 603.25,94.4 596.25,94.4 596.25,71.05 603.25,71.05 603.25,47.71 
			610.25,47.71 610.25,71.05 617.25,71.05 617.25,0 586.75,0 586.75,165.96 601.75,165.96 601.75,142.61 609.25,142.61 
			609.25,165.96 617.25,165.96 617.25,94.4 610.25,94.4 		"/>
	</g>
	<path class="st0" d="M894.75,0v67.21v5.17h-6V0h-9v67.21h-15.5v26.88h8.5v22.75h15.5v25.33h6.5v23.78h8.5v-23.78h8v23.78h22.5V0
		H894.75z M917.25,117.88h-7v-45.5h-7V47.56h7v24.82h7V117.88z"/>
	<path class="st0" d="M450.25,49V25h-7v22h-16V25h-14V0h-16.5v44.5h9v25h-9V49h-8V26.5h-13V0h-8.5v23.5h6.5V49h9v23h-21V49h-9v45h-8
		V72h-7V49h7V0h-14.5v166h22.5v-23.5h7V166h16v-48.5h-8.5V94h21.5V72h8v45.5h-8v22h-6.5V166h6.5v-23.5h17V94h14v23.5h7.5v22h-7.5
		V166h15v-23.5h15.5V94h-7V49H450.25z M352.25,142h-13v-25h13V142z M435.25,117h-8V72h8V117z"/>
	<path class="st0" d="M881.25,142.54h-23v23.42h23V142.54z"/>
</g>
</svg>
