<svg width="39" height="59" viewBox="0 0 39 59" fill="none" xmlns="http://www.w3.org/2000/svg">
<path fill-rule="evenodd" clip-rule="evenodd" d="M35.4072 8.01924C37.7964 11.2847 39.0175 15.3401 38.9998 19.3605C38.9998 21.6779 38.5574 23.9953 37.6902 26.1723C36.7149 28.6036 35.2465 30.795 33.7774 32.9874C33.2205 33.8186 32.6634 34.6499 32.1331 35.4946C27.6578 42.6184 25.1249 50.6654 23.9881 59H15.7518C14.2763 51.2437 11.2746 43.7045 7.21461 36.9166C6.73676 36.1167 6.24336 35.3211 5.74934 34.5245C3.60861 31.0727 1.45619 27.602 0.507148 23.6793C-0.0591806 21.3443 -0.147669 18.8865 0.223984 16.4988C0.914197 11.9342 3.2503 7.70323 6.78986 4.73624C10.1524 1.92726 14.4176 0.189208 18.8067 0.0136468C25.2132 -0.232139 31.6552 2.85774 35.4072 8.01924Z" fill="#27EBE8"/>
</svg>
